<?xml version="1.0" encoding="UTF-8" standalone="no"?>
<svg width="51px" height="51px" viewBox="0 0 51 51" version="1.1" xmlns="http://www.w3.org/2000/svg" xmlns:xlink="http://www.w3.org/1999/xlink" xmlns:sketch="http://www.bohemiancoding.com/sketch/ns">
    <!-- Generator: Sketch 3.3.3 (12081) - http://www.bohemiancoding.com/sketch -->
    <title>Shape</title>
    <desc>Created with Sketch.</desc>
    <defs></defs>
    <g id="Page-1" stroke="none" stroke-width="1" fill="none" fill-rule="evenodd" sketch:type="MSPage">
        <g id="yello-login-copy-2" sketch:type="MSArtboardGroup" transform="translate(-161.500000, -442.000000)" fill="#FFFFFF">
            <g id="form" sketch:type="MSLayerGroup" transform="translate(49.000000, 234.500000)">
                <path d="M159.24757,220.344226 C157.03129,216.547038 154.024754,213.540503 150.227567,211.324222 C146.429587,209.107942 142.28342,208 137.786292,208 C133.289561,208 129.142205,209.107942 125.345018,211.324222 C121.547434,213.540106 118.540899,216.546642 116.324618,220.344226 C114.107942,224.141809 113,228.289164 113,232.7855 C113,237.282232 114.108338,241.428795 116.324222,245.226774 C118.540503,249.023566 121.547038,252.030497 125.344622,254.246778 C129.142205,256.463058 133.289164,257.571 137.785896,257.571 C142.282628,257.571 146.429983,256.463058 150.227171,254.246778 C154.024358,252.030894 157.030894,249.023962 159.247174,245.226774 C161.463058,241.429191 162.571,237.281836 162.571,232.7855 C162.571,228.288768 161.463058,224.141413 159.24757,220.344226 L159.24757,220.344226 Z M153.889678,234.237669 L150.953255,237.174488 L139.270546,248.8568 C138.882747,249.244599 138.399087,249.438301 137.817982,249.438301 C137.237273,249.438301 136.753216,249.244599 136.365813,248.8568 L133.428994,245.919981 C133.0202,245.511979 132.815803,245.027131 132.815803,244.467812 C132.815803,243.90889 133.0202,243.424834 133.428994,243.015644 L139.528815,236.916615 L123.327589,236.916615 C122.76827,236.916615 122.284214,236.711822 121.87542,236.303424 C121.466626,235.89463 121.262229,235.410178 121.262229,234.850859 L121.262229,230.719745 C121.262229,230.160426 121.466626,229.67637 121.87542,229.267576 C122.284214,228.858782 122.76827,228.654385 123.327589,228.654385 L139.528815,228.654385 L133.428994,222.55496 C133.041591,222.167557 132.847889,221.683501 132.847889,221.102792 C132.847889,220.521686 133.041591,220.038026 133.428994,219.650227 L136.365813,216.713408 C136.753216,216.326004 137.237273,216.132699 137.817982,216.132699 C138.399483,216.132699 138.882747,216.326004 139.270546,216.713408 L150.953255,228.396512 L153.889678,231.333331 C154.277477,231.720735 154.471179,232.204395 154.471179,232.7855 C154.471179,233.366605 154.277477,233.850265 153.889678,234.237669 L153.889678,234.237669 Z" id="Shape" sketch:type="MSShapeGroup"></path>
            </g>
        </g>
    </g>
</svg>