<?xml version="1.0" encoding="UTF-8" standalone="no"?>
<svg width="12px" height="18px" viewBox="0 0 12 18" version="1.1" xmlns="http://www.w3.org/2000/svg" xmlns:xlink="http://www.w3.org/1999/xlink" xmlns:sketch="http://www.bohemiancoding.com/sketch/ns">
    <!-- Generator: Sketch 3.3.3 (12081) - http://www.bohemiancoding.com/sketch -->
    <title>Shape</title>
    <desc>Created with Sketch.</desc>
    <defs></defs>
    <g id="Page-1" stroke="none" stroke-width="1" fill="none" fill-rule="evenodd" sketch:type="MSPage">
        <g id="yello-login-copy-3" sketch:type="MSArtboardGroup" transform="translate(-18.500000, -21.000000)" fill="#2E81E3">
            <g id="navbar" sketch:type="MSLayerGroup">
                <path d="M24.181346,29.8525988 L29.667371,24.3296974 C29.9460021,24.04934 30.0851098,23.706495 30.0851098,23.3011624 C30.0851098,22.8958297 29.9460021,22.5531242 29.667371,22.2727668 L28.8208092,21.4203966 C28.5424553,21.1401787 28.2018908,21 27.799393,21 C27.3967566,21 27.0563307,21.1401787 26.7776996,21.4203966 L19.4177387,28.818345 C19.1392462,29.0987024 19,29.4415474 19,29.84688 C19,30.2522127 19.1392462,30.5949182 19.4177387,30.8752756 L26.7776996,38.273224 C27.0563307,38.5535814 27.3967566,38.6937601 27.799393,38.6937601 C28.2018908,38.6937601 28.5424553,38.5535814 28.8208092,38.273224 L29.667371,37.4209933 C29.9460021,37.1407753 30.0851098,36.7997436 30.0851098,36.3981769 C30.0851098,35.9967498 29.9460021,35.651952 29.667371,35.3640626 L24.181346,29.8525988 L24.181346,29.8525988 Z" id="Shape" sketch:type="MSShapeGroup"></path>
            </g>
        </g>
    </g>
</svg>