<?xml version="1.0" encoding="UTF-8" standalone="no"?>
<svg width="12px" height="13px" viewBox="0 0 12 13" version="1.1" xmlns="http://www.w3.org/2000/svg" xmlns:xlink="http://www.w3.org/1999/xlink" xmlns:sketch="http://www.bohemiancoding.com/sketch/ns">
    <!-- Generator: Sketch 3.3.3 (12081) - http://www.bohemiancoding.com/sketch -->
    <title>Shape</title>
    <desc>Created with Sketch.</desc>
    <defs></defs>
    <g id="Page-1" stroke="none" stroke-width="1" fill="none" fill-rule="evenodd" sketch:type="MSPage">
        <g id="yello-login-copy" sketch:type="MSArtboardGroup" transform="translate(-343.000000, -606.000000)" fill="#2E81E3">
            <g id="footer" sketch:type="MSLayerGroup" transform="translate(0.000000, 587.000000)">
                <g id="Shape-+-Sign-Up" transform="translate(292.000000, 18.000000)" sketch:type="MSShapeGroup">
                    <path d="M57.3912815,1.30978329 C57.1848594,1.1032611 56.937513,1 56.6494426,1 C56.3667753,1 56.1222307,1.1032611 55.9157085,1.30978329 L55.3043467,1.92114501 C55.0978245,2.11686081 54.9945635,2.3614055 54.9945635,2.65487914 C54.9945635,2.94835278 55.0978245,3.19289746 55.3043467,3.38861326 L57.69296,5.78533132 L51.9537643,5.78533132 C51.6711971,5.78533132 51.4415613,5.88719159 51.2649568,6.09101218 C51.0883523,6.29483278 51,6.54077829 51,6.82874868 L51,7.87226609 C51,8.16033653 51.0883523,8.40618199 51.2649568,8.61000258 C51.4415613,8.81382318 51.6711971,8.91568345 51.9537643,8.91568345 L57.6928599,8.91568345 L55.3042467,11.3043968 C55.0977245,11.5107188 54.9944634,11.7580652 54.9944634,12.0461356 C54.9944634,12.3342061 55.0977245,12.5815524 55.3042467,12.7879746 L55.9156084,13.3993363 C56.1276339,13.6004553 56.3721785,13.7010148 56.6493425,13.7010148 C56.9320098,13.7010148 57.1793561,13.6004553 57.3911814,13.3993363 L62.6982214,8.09229628 C62.8993404,7.89117728 63,7.64403105 63,7.35045735 C63,7.05158052 62.8993404,6.80693577 62.6983215,6.61682329 L57.3912815,1.30978329 Z" id="Shape"></path>
                </g>
            </g>
        </g>
    </g>
</svg>