<?xml version="1.0" encoding="UTF-8" standalone="no"?>
<svg width="160px" height="58px" viewBox="0 0 160 58" version="1.1" xmlns="http://www.w3.org/2000/svg" xmlns:xlink="http://www.w3.org/1999/xlink" xmlns:sketch="http://www.bohemiancoding.com/sketch/ns">
    <!-- Generator: Sketch 3.3.3 (12081) - http://www.bohemiancoding.com/sketch -->
    <title>yello_logo_white_outline</title>
    <desc>Created with Sketch.</desc>
    <defs></defs>
    <g id="Page-1" stroke="none" stroke-width="1" fill="none" fill-rule="evenodd" sketch:type="MSPage">
        <g id="yello-login-copy" sketch:type="MSArtboardGroup" transform="translate(-107.000000, -82.000000)">
            <g id="app-logo-moto" sketch:type="MSLayerGroup" transform="translate(96.000000, 83.000000)">
                <g id="yello_logo_white_outline" transform="translate(12.000000, 0.000000)" sketch:type="MSShapeGroup">
                    <ellipse id="XMLID_191_" stroke="#FFFFFF" stroke-width="2" fill="#1E87DA" cx="27.8920615" cy="28.2293939" rx="27.7677812" ry="27.7677812"></ellipse>
                    <path d="M1.37102926,27.8210442 C1.37102926,13.1406151 13.2648954,1.24674891 27.9453245,1.24674891 C42.6257536,1.24674891 54.5196198,13.1406151 54.5196198,27.8210442 L1.37102926,27.8210442 L1.37102926,27.8210442 Z" id="XMLID_67_" fill="#0C73BA"></path>
                    <ellipse id="XMLID_73_" opacity="0.49" fill="#064060" cx="29.241391" cy="14.0614339" rx="5.68138745" ry="5.68138745"></ellipse>
                    <ellipse id="XMLID_190_" fill="#FFFFFF" cx="27.9630788" cy="13.6353299" rx="5.59261577" ry="5.59261577"></ellipse>
                    <ellipse id="XMLID_72_" opacity="0.49" fill="#064060" cx="29.241391" cy="31.8157697" rx="12.055194" ry="12.055194"></ellipse>
                    <ellipse id="XMLID_189_" fill="#FFFFFF" cx="27.8743072" cy="31.300894" rx="11.1852315" ry="11.1852315"></ellipse>
                    <rect id="XMLID_188_" fill="#FFFFFF" x="59.6368139" y="8.30902914" width="98.8206329" height="1.24674891"></rect>
                    <rect id="XMLID_187_" fill="#FFFFFF" x="59.6368139" y="47.5816199" width="98.8206329" height="1.24674891"></rect>
                    <g id="XMLID_66_" transform="translate(59.832112, 12.960665)" fill="#FFFFFF">
                        <path d="M5.85893081,20.0091364 L0.0177543358,0.355086715 L4.84693367,0.355086715 L8.38004649,13.7596102 L11.9131593,0.355086715 L16.3162346,0.355086715 L10.4750581,20.0091364 L10.4750581,29.7562668 L5.85893081,29.7562668 L5.85893081,20.0091364 L5.85893081,20.0091364 Z" id="XMLID_59_"></path>
                        <path d="M18.7130699,4.79367066 L18.7130699,0.33733238 L23.1694082,0.33733238 L23.1694082,4.33205793 L21.1454139,9.00144824 L19.2634543,9.00144824 L20.4885035,4.79367066 L18.7130699,4.79367066 L18.7130699,4.79367066 Z" id="XMLID_57_"></path>
                        <path d="M30.1468621,12.7476131 L36.48516,12.7476131 L36.48516,16.9553907 L30.1468621,16.9553907 L30.1468621,25.5662435 L38.1363132,25.5662435 L38.1363132,29.7740211 L25.5307348,29.7740211 L25.5307348,0.33733238 L38.1363132,0.33733238 L38.1363132,4.54510996 L30.1468621,4.54510996 L30.1468621,12.7476131 L30.1468621,12.7476131 Z" id="XMLID_55_"></path>
                        <path d="M42.5748972,0.33733238 L47.1910245,0.33733238 L47.1910245,25.5484892 L54.7898802,25.5484892 L54.7898802,29.7562668 L42.5571429,29.7562668 L42.5571429,0.33733238 L42.5748972,0.33733238 Z" id="XMLID_47_"></path>
                        <path d="M59.2284641,0.33733238 L63.8445914,0.33733238 L63.8445914,25.5484892 L71.4434472,25.5484892 L71.4434472,29.7562668 L59.2107098,29.7562668 L59.2107098,0.33733238 L59.2284641,0.33733238 Z" id="XMLID_45_"></path>
                        <path d="M74.870034,7.40355802 C74.870034,2.69865904 77.355641,0.0177543358 81.8829966,0.0177543358 C86.4281066,0.0177543358 88.8959592,2.69865904 88.8959592,7.40355802 L88.8959592,22.6900411 C88.8959592,27.3949401 86.4103522,30.0758448 81.8829966,30.0758448 C77.3378866,30.0758448 74.870034,27.3949401 74.870034,22.6900411 L74.870034,7.40355802 L74.870034,7.40355802 Z M79.5039156,22.9918648 C79.5039156,25.0868764 80.4271411,25.8858216 81.9007509,25.8858216 C83.3743608,25.8858216 84.2975863,25.0868764 84.2975863,22.9918648 L84.2975863,7.10173431 C84.2975863,5.00672269 83.3743608,4.20777758 81.9007509,4.20777758 C80.4271411,4.20777758 79.5039156,5.00672269 79.5039156,7.10173431 L79.5039156,22.9918648 L79.5039156,22.9918648 Z" id="XMLID_42_"></path>
                        <path d="M94.5773467,23.2404255 L93.9914536,12.6055784 L93.9914536,0.33733238 L98.6075809,0.33733238 L98.6075809,12.6055784 L98.0216878,23.2404255 L94.5773467,23.2404255 L94.5773467,23.2404255 Z M98.5365635,25.2999285 L98.5365635,29.7562668 L94.0802253,29.7562668 L94.0802253,25.2999285 L98.5365635,25.2999285 L98.5365635,25.2999285 Z" id="XMLID_21_"></path>
                    </g>
                </g>
            </g>
        </g>
    </g>
</svg>