<?xml version="1.0" encoding="utf-8"?>
<!-- Generator: Adobe Illustrator 18.0.0, SVG Export Plug-In . SVG Version: 6.00 Build 0)  -->
<!DOCTYPE svg PUBLIC "-//W3C//DTD SVG 1.1//EN" "http://www.w3.org/Graphics/SVG/1.1/DTD/svg11.dtd">
<svg version="1.1" id="Layer_1" xmlns:sketch="http://www.bohemiancoding.com/sketch/ns"
	 xmlns="http://www.w3.org/2000/svg" xmlns:xlink="http://www.w3.org/1999/xlink" x="0px" y="0px" viewBox="-362 -87.4 295 608.4"
	 enable-background="new -362 -87.4 295 608.4" xml:space="preserve">
<title>Imported Layers</title>
<desc>Created with Sketch.</desc>
<path id="Fill-309" fill="#BBE1A5" d="M-164.4,7.7c-5.2,0-9.6-4.2-9.6-9.5s4.2-9.6,9.4-9.6c5.2,0,9.6,4.2,9.6,9.5
	C-154.9,3.3-159.1,7.7-164.4,7.7L-164.4,7.7z M-164.5-10.1c-4.6,0-8.3,3.8-8.3,8.4c0,4.6,3.8,8.3,8.4,8.3s8.3-3.8,8.2-8.4
	C-156.2-6.4-159.9-10.1-164.5-10.1L-164.5-10.1z"/>
<path id="Fill-311" fill="#BBE1A5" d="M-164.4,4.4c-3.4,0-6.2-2.7-6.2-6.2c0-3.4,2.7-6.2,6.2-6.2c3.4,0,6.2,2.7,6.2,6.2
	C-158.2,1.5-161,4.4-164.4,4.4L-164.4,4.4z M-164.5-7.2c-3,0-5.4,2.5-5.4,5.4c0,3,2.5,5.4,5.4,5.4c3,0,5.4-2.5,5.4-5.4
	C-159.1-4.8-161.5-7.2-164.5-7.2L-164.5-7.2z"/>
<path id="Fill-312" fill="#BBE1A5" d="M-168.5-1.4c-0.1,0-0.2-0.1-0.2-0.2c-0.1-2.5,2-4.5,4.5-4.6c0.1,0,0.2,0.1,0.2,0.2
	c0,0.1-0.1,0.2-0.2,0.2c-2.3,0-4.1,1.9-4.1,4.1C-168.4-1.5-168.4-1.3-168.5-1.4"/>
<path id="Fill-314" fill="#BBE1A5" d="M-158.7-8.2c-0.2,0-0.4-0.2-0.4-0.4l0-4.8c0-1.6-1.4-3-3-2.9l-5.1,0c-1.6,0-3,1.4-2.9,3l0,4.8
	c0,0.2-0.2,0.4-0.4,0.4c-0.2,0-0.4-0.2-0.4-0.4l0-4.8c0-2.1,1.7-3.8,3.8-3.8l5.1,0c2.1,0,3.8,1.7,3.8,3.8l0,4.8
	C-158.2-8.4-158.4-8.2-158.7-8.2"/>
<path id="Fill-315" fill="#BBE1A5" d="M-161.8,13.6l-5.1,0c-2.1,0-3.8-1.7-3.8-3.8l0-4.8c0-0.2,0.2-0.4,0.4-0.4
	c0.2,0,0.4,0.2,0.4,0.4l0,4.8c0,1.6,1.4,3,3,2.9l5.1,0c1.6,0,3-1.4,2.9-3l0-4.8c0-0.2,0.2-0.4,0.4-0.4c0.2,0,0.4,0.2,0.4,0.4l0,4.8
	C-158.1,11.9-159.7,13.6-161.8,13.6"/>
<path id="Fill-316" fill="#BBE1A5" d="M-163.1-5.6c0,0.2,0.1,0.4,0.3,0.3c0.2,0,0.4-0.1,0.3-0.3s-0.1-0.4-0.3-0.3
	C-162.9-5.9-163.1-5.8-163.1-5.6"/>
<path id="Fill-317" fill="#BBE1A5" d="M-216.1,11.4l-51.7,0.4c-3.1,0-5.7-2.5-5.7-5.6l-0.6-76.3c0-3.1,2.5-5.7,5.6-5.7l51.7-0.4
	c3.1,0,5.7,2.5,5.7,5.6l0.6,76.3C-210.4,8.8-212.9,11.4-216.1,11.4L-216.1,11.4z M-268.4-74.6c-2.4,0-4.4,2-4.3,4.4l0.6,76.3
	c0,2.4,2,4.4,4.4,4.3l51.7-0.4c2.4,0,4.4-2,4.3-4.4l-0.6-76.3c0-2.4-2-4.4-4.4-4.3L-268.4-74.6L-268.4-74.6z"/>
<path id="Fill-318" fill="#BBE1A5" d="M-219.6,2.6l-44.7,0.3c-2.2,0-4-1.7-4-3.9l-0.5-66.1c0-2.2,1.7-4,3.9-4l44.7-0.3
	c2.2,0,4,1.7,4,3.9l0.5,66.1C-215.6,0.8-217.5,2.6-219.6,2.6L-219.6,2.6z M-264.9-69.8c-1.5,0-2.7,1.2-2.7,2.7L-267-1
	c0,1.5,1.2,2.7,2.7,2.7l44.7-0.3c1.5,0,2.7-1.2,2.7-2.7l-0.5-66.1c0-1.5-1.2-2.7-2.7-2.7L-264.9-69.8L-264.9-69.8z"/>
<path id="Fill-324" fill="#BBE1A5" d="M-220.9,14.3l-7.5,0c-1.2,0-2.3-1-2.3-2.3l0-1.2c0-0.3,0.3-0.6,0.6-0.6c0.3,0,0.6,0.3,0.6,0.6
	l0,1.2c0,0.6,0.4,1,1,1l7.5,0c0.6,0,1-0.4,1-1l0-1.2c0-0.3,0.3-0.6,0.6-0.6c0.3,0,0.6,0.3,0.6,0.6l0,1.2
	C-218.6,13.3-219.6,14.3-220.9,14.3"/>
<g>
	<path id="Fill-933" fill="#BBE1A5" d="M-215.1,315l-1.6,0c-5.5,0.1-9.9-4.4-10-9.9l-0.1-19.3c-0.1-5.5,4.4-9.9,9.8-10l1.6,0
		c5.5-0.1,9.9,4.4,10,9.9l0.1,19.3C-205.3,310.4-209.7,314.9-215.1,315L-215.1,315z M-217,277.2c-4.7,0-8.6,3.9-8.5,8.7l0.1,19.3
		c0,4.7,3.9,8.6,8.7,8.6l1.6,0c4.7,0,8.6-3.9,8.5-8.7l-0.1-19.3c0-4.7-3.9-8.6-8.7-8.6L-217,277.2L-217,277.2z"/>
	<path id="Fill-934" fill="#BBE1A5" d="M-216.2,293.3c-2.3,0-4.6-0.3-6.9-1l-3.2-1c-0.2-0.1-0.3-0.3-0.3-0.5
		c0.1-0.2,0.3-0.4,0.6-0.2l3.2,1c4.4,1.3,9,1.3,13.3-0.1l3.3-1c0.3-0.1,0.5,0.1,0.6,0.2c0.1,0.2-0.1,0.5-0.2,0.6l-3.3,1
		C-211.5,293-213.8,293.3-216.2,293.3"/>
	<path id="Fill-935" fill="#BBE1A5" d="M-216,288.3l-0.2,0c-1,0-1.9-0.8-1.9-1.9l0-4.1c0-1,0.8-1.9,1.9-1.9l0.2,0
		c1,0,1.9,0.8,1.9,1.9l0,4.1C-214.2,287.5-215,288.3-216,288.3L-216,288.3z M-216.3,281.3c-0.6,0-1,0.5-1,1.1l0,4.1
		c0,0.6,0.5,1,1.1,1l0.2,0c0.6,0,1-0.5,1-1.1l0-4.1c0-0.6-0.5-1-1.1-1L-216.3,281.3L-216.3,281.3z"/>
	<path id="Fill-936" fill="#BBE1A5" d="M-223.3,301.9c-0.1,0-0.2-0.1-0.2-0.2l-0.1-6.7c0-0.1,0.1-0.2,0.2-0.2c0.1,0,0.2,0.1,0.2,0.2
		l0.1,6.7C-223.1,301.8-223.3,301.9-223.3,301.9"/>
	<path id="Fill-937" fill="#BBE1A5" d="M-216.2,281.2c-0.1,0-0.2-0.1-0.2-0.2l0-4.2c0-0.1,0.1-0.2,0.2-0.2c0.1,0,0.2,0.1,0.2,0.2
		l0,4.2C-216,281.1-216.1,281.1-216.2,281.2"/>
	<path id="Fill-938" fill="#BBE1A5" d="M-216.1,293.2c-0.1,0-0.2-0.1-0.2-0.2l0-5.1c0-0.1,0.1-0.2,0.2-0.2c0.1,0,0.2,0.1,0.2,0.2
		l0,5.1C-215.9,293.1-216,293.2-216.1,293.2"/>
	<path id="Fill-939" fill="#BBE1A5" d="M-223.3,305.9c-0.1,0-0.2-0.1-0.2-0.2l0-1.5c0-0.1,0.1-0.2,0.2-0.2c0.1,0,0.2,0.1,0.2,0.2
		l0,1.5C-223.1,305.8-223.2,305.8-223.3,305.9"/>
</g>
<g>
	<path id="Fill-946" fill="#BBE1A5" d="M-73.3,102.9l-82.5,0.6c-1.7,0-3.1-1.3-3-3l-0.4-51.2c0-1.7,1.3-3.1,3-3l82.5-0.6
		c1.7,0,3.1,1.3,3,3l0.4,51.2C-70.3,101.6-71.6,103-73.3,102.9L-73.3,102.9z M-156.2,47.6c-1,0-1.7,0.8-1.7,1.8l0.4,51.2
		c0,1,0.8,1.7,1.8,1.7l82.5-0.6c1,0,1.7-0.8,1.7-1.8l-0.4-51.2c0-1-0.8-1.7-1.8-1.7L-156.2,47.6L-156.2,47.6z"/>
	<path id="Fill-947" fill="#BBE1A5" d="M-85.3,95.9l-73,0.5l0-0.8l73-0.5c0.9,0,1.6-0.7,1.6-1.5l-0.3-38.2c0-0.9-0.7-1.6-1.5-1.6
		l-73,0.5l0-0.8l73-0.5c1.4,0,2.4,1,2.4,2.4l0.3,38.2C-82.9,94.9-84,95.9-85.3,95.9"/>
	<path id="Fill-948" fill="#BBE1A5" d="M-141.6,53.8l0.8,0l0.3,41.6l-0.8,0L-141.6,53.8z"/>
	<path id="Fill-949" fill="#BBE1A5" d="M-149.6,79.9c-2.7,0-5-2.2-5-4.9c0-2.7,2.2-5,4.9-5c2.7,0,5,2.2,5,4.9
		C-144.7,77.6-146.9,79.8-149.6,79.9L-149.6,79.9z M-149.7,70.7c-2.3,0-4.1,1.9-4.1,4.1c0,2.3,1.9,4.1,4.1,4.1
		c2.3,0,4.1-1.9,4.1-4.1C-145.6,72.6-147.5,70.8-149.7,70.7L-149.7,70.7z"/>
	<path id="Fill-950" fill="#BBE1A5" d="M-149.6,77.3c-1.3,0-2.3-1-2.4-2.3s1-2.3,2.3-2.4c1.3,0,2.3,1,2.4,2.3
		S-148.3,77.2-149.6,77.3L-149.6,77.3z M-149.7,73c-1,0-1.9,0.9-2,2c0,1,0.9,1.9,2,2c1,0,1.9-0.9,2-2C-147.7,73.8-148.6,73-149.7,73
		L-149.7,73z"/>
	<path id="Fill-951" fill="#BBE1A5" d="M-147.8,68l-4.3,0c-0.4,0-0.7-0.3-0.7-0.7l0-1.7c0-0.4,0.3-0.7,0.7-0.7l4.3,0
		c0.4,0,0.6,0.3,0.7,0.7l0,1.7C-147.2,67.7-147.4,68.1-147.8,68L-147.8,68z M-152.2,65.5c-0.2,0-0.3,0.1-0.2,0.3l0,1.7
		c0,0.2,0.1,0.3,0.3,0.2l4.3,0c0.2,0,0.3-0.1,0.2-0.3l0-1.7c0-0.2-0.1-0.3-0.3-0.2L-152.2,65.5L-152.2,65.5z"/>
	<path id="Fill-952" fill="#BBE1A5" d="M-147.9,63.6l-4.3,0c-0.4,0-0.7-0.3-0.7-0.7l0-1.7c0-0.4,0.3-0.7,0.7-0.7l4.3,0
		c0.4,0,0.6,0.3,0.7,0.7l0,1.7C-147.2,63.3-147.5,63.6-147.9,63.6L-147.9,63.6z M-152.2,61.1c-0.2,0-0.3,0.1-0.2,0.3l0,1.7
		c0,0.2,0.1,0.3,0.3,0.2l4.3,0c0.2,0,0.3-0.1,0.2-0.3l0-1.7c0-0.2-0.1-0.3-0.3-0.2L-152.2,61.1L-152.2,61.1z"/>
	<path id="Fill-953" fill="#BBE1A5" d="M-147.9,59.2l-4.3,0c-0.4,0-0.7-0.3-0.7-0.7l0-1.7c0-0.4,0.3-0.7,0.7-0.7l4.3,0
		c0.4,0,0.6,0.3,0.7,0.7l0,1.7C-147.2,58.9-147.5,59.2-147.9,59.2L-147.9,59.2z M-152.2,56.7c-0.2,0-0.3,0.1-0.2,0.3l0,1.7
		c0,0.2,0.1,0.3,0.3,0.2l4.3,0c0.2,0,0.3-0.1,0.2-0.3l0-1.7c0-0.2-0.1-0.3-0.3-0.2L-152.2,56.7L-152.2,56.7z"/>
	<path id="Fill-954" fill="#BBE1A5" d="M-147.6,93.5l-4.3,0c-0.4,0-0.7-0.3-0.7-0.7l0-1.7c0-0.4,0.3-0.7,0.7-0.7l4.3,0
		c0.4,0,0.6,0.3,0.7,0.7l0,1.7C-147,93.2-147.2,93.5-147.6,93.5L-147.6,93.5z M-152,91c-0.2,0-0.3,0.1-0.2,0.3l0,1.7
		c0,0.2,0.1,0.3,0.3,0.2l4.3,0c0.2,0,0.3-0.1,0.2-0.3l0-1.7c0-0.2-0.1-0.3-0.3-0.2L-152,91L-152,91z"/>
	<path id="Fill-955" fill="#BBE1A5" d="M-147.6,88.9l-4.3,0c-0.4,0-0.7-0.3-0.7-0.7l0-1.7c0-0.4,0.3-0.7,0.7-0.7l4.3,0
		c0.4,0,0.6,0.3,0.7,0.7l0,1.7C-147,88.6-147.3,88.9-147.6,88.9L-147.6,88.9z M-152,86.3c-0.2,0-0.3,0.1-0.2,0.3l0,1.7
		c0,0.2,0.1,0.3,0.3,0.2l4.3,0c0.2,0,0.3-0.1,0.2-0.3l0-1.7c0-0.2-0.1-0.3-0.3-0.2L-152,86.3L-152,86.3z"/>
	<path id="Fill-956" fill="#BBE1A5" d="M-147.7,84.3l-4.3,0c-0.4,0-0.7-0.3-0.7-0.7l0-1.7c0-0.4,0.3-0.7,0.7-0.7l4.3,0
		c0.4,0,0.6,0.3,0.7,0.7l0,1.7C-147.1,84-147.3,84.3-147.7,84.3L-147.7,84.3z M-152.1,81.7c-0.2,0-0.3,0.1-0.2,0.3l0,1.7
		c0,0.2,0.1,0.3,0.3,0.2l4.3,0c0.2,0,0.3-0.1,0.2-0.3l0-1.7c0-0.2-0.1-0.3-0.3-0.2L-152.1,81.7L-152.1,81.7z"/>
	<path id="Fill-957" fill="#BBE1A5" d="M-137.6,62.5c-0.1,0-0.1,0-0.1,0c-0.1-0.1-0.1-0.2,0-0.3l4.9-4.9c0.1-0.1,0.2-0.1,0.3,0
		c0.1,0.1,0.1,0.2,0,0.3l-4.9,4.9C-137.5,62.5-137.5,62.5-137.6,62.5"/>
	<path id="Fill-958" fill="#BBE1A5" d="M-137.6,67.9c-0.1,0-0.1,0-0.1,0c-0.1-0.1-0.1-0.2,0-0.3l10.2-10.7c0.1-0.1,0.2-0.1,0.3,0
		c0.1,0.1,0.1,0.2,0,0.3l-10.2,10.7C-137.5,67.9-137.5,68-137.6,67.9"/>
	<path id="Fill-959" fill="#BBE1A5" d="M-133.5,69.4c-0.1,0-0.1,0-0.1,0c-0.1-0.1-0.1-0.2,0-0.3l11.4-11.8c0.1-0.1,0.2-0.1,0.3,0
		c0.1,0.1,0.1,0.2,0,0.3l-11.4,11.8C-133.3,69.4-133.4,69.4-133.5,69.4"/>
	<path id="Fill-960" fill="#BBE1A5" d="M-137.5,73.3c-0.1,0-0.1,0-0.1,0c-0.1-0.1-0.1-0.2,0-0.3l1.8-1.9c0.1-0.1,0.2-0.1,0.3,0
		c0.1,0.1,0.1,0.2,0,0.3l-1.8,1.9C-137.4,73.4-137.5,73.3-137.5,73.3"/>
	<path id="Fill-988" fill="#BBE1A5" d="M-93.2,89L-93.2,89l-33.6,0c-0.3,0-0.7,0-1.1-0.2l-4.6-1.2c-0.6-0.2-0.9-0.6-0.9-1.1
		c0-0.5,0.3-0.9,0.9-1.1l4.6-1.2c0.3-0.1,0.7-0.1,1-0.1l33.7,0c1.4,0,2.5,1.1,2.5,2.5C-90.8,87.9-91.8,89-93.2,89L-93.2,89z
		 M-126.8,84.9c-0.3,0-0.6,0.1-0.8,0.1l-4.6,1.2c-0.2,0-0.3,0.2-0.3,0.3c0,0.1,0.1,0.2,0.3,0.3l4.6,1.2c0.3,0.1,0.5,0.1,0.9,0.1
		l33.6,0l0,0.4l0-0.4c0.9,0,1.6-0.7,1.6-1.6c0-0.9-0.7-1.6-1.6-1.6L-126.8,84.9L-126.8,84.9z"/>
	<path id="Fill-989" fill="#BBE1A5" d="M-126.4,88.7L-126.4,88.7c-0.1,0-0.2-0.1-0.2-0.2l0-4.1c0-0.1,0.1-0.2,0.2-0.2
		c0.1,0,0.2,0.1,0.2,0.2l0,4.1C-126.2,88.7-126.3,88.8-126.4,88.7"/>
	<path id="Fill-990" fill="#BBE1A5" d="M-128.8,88.2L-128.8,88.2c-0.1,0-0.2-0.1-0.2-0.2l0-3c0-0.1,0.1-0.2,0.2-0.2l0,0
		c0.1,0,0.2,0.1,0.2,0.2l0,3C-128.6,88.1-128.6,88.2-128.8,88.2"/>
	<path id="Fill-991" fill="#BBE1A5" d="M-93.8,88.8L-93.8,88.8c-0.1,0-0.2-0.1-0.2-0.2l0-4.1c0-0.1,0.1-0.2,0.2-0.2
		c0.1,0,0.2,0.1,0.2,0.2l0,4.1C-93.6,88.7-93.7,88.8-93.8,88.8"/>
	<path id="Fill-992" fill="#BBE1A5" d="M-110,88.8L-110,88.8c-0.1,0-0.2-0.1-0.2-0.2l0-4.1c0-0.1,0.1-0.2,0.2-0.2l0,0
		c0.1,0,0.2,0.1,0.2,0.2l0,4.1C-109.8,88.7-109.9,88.8-110,88.8"/>
	<path id="Fill-993" fill="#BBE1A5" d="M-116.2,86.3L-116.2,86.3l-7.4,0c-0.1,0-0.2-0.1-0.2-0.2c0-0.1,0.1-0.2,0.2-0.2l0,0l7.4,0
		c0.1,0,0.2,0.1,0.2,0.2C-115.9,86.2-116,86.3-116.2,86.3"/>
</g>
<g>
	<path id="Fill-994" fill="#BBE1A5" d="M-120.7,0.9c-5.9,0.1-12.8-1-12.9-4.1l-0.3-39.9c0-3.2,9.8-3.5,12.8-3.6
		c3,0,12.9,0.1,12.9,3.3l0.3,39.9C-107.8-0.3-114.7,0.9-120.7,0.9L-120.7,0.9z M-121-45.3c-7.5,0-11.5,1.4-11.6,2.2l0.3,39.9
		c0,1.4,4.4,2.8,11.6,2.8c7.1,0,11.6-1.6,11.5-3l-0.3-39.9C-109.5-44.1-113.6-45.3-121-45.3L-121-45.3z"/>
	<path id="Fill-995" fill="#BBE1A5" d="M-111.2-6.1l-19.1,0.2c-0.2,0-0.4-0.2-0.4-0.4l-0.2-32.7c0-0.2,0.2-0.4,0.4-0.4l19.1-0.2
		c0.2,0,0.4,0.2,0.4,0.4l0.2,32.7C-110.8-6.3-111-6.1-111.2-6.1L-111.2-6.1z M-129.8-6.8l18.2-0.1l-0.2-31.9l-18.2,0.1L-129.8-6.8z"
		/>
	<path id="Fill-996" fill="#BBE1A5" d="M-120.1-41.8c0-0.5-0.4-0.8-0.9-0.8c-0.5,0-0.8,0.4-0.8,0.9c0,0.5,0.4,0.8,0.9,0.8
		C-120.6-41-120.1-41.4-120.1-41.8"/>
	<path id="Fill-997" fill="#BBE1A5" d="M-120.3-3.5c0,0.2-0.2,0.5-0.5,0.5c-0.2,0-0.5-0.2-0.5-0.5S-121-4-120.8-4
		C-120.4-4-120.2-3.8-120.3-3.5"/>
	<path id="Fill-998" fill="#BBE1A5" d="M-129.1-33.2c-0.1,0-0.1,0-0.1,0c-0.1-0.1-0.1-0.2,0-0.3l4.1-4.1c0.1-0.1,0.2-0.1,0.3,0
		c0.1,0.1,0.1,0.2,0,0.3l-4.1,4.1C-129-33.2-129-33.2-129.1-33.2"/>
	<path id="Fill-999" fill="#BBE1A5" d="M-128.8-29.8c-0.1,0-0.1,0-0.1,0c-0.1-0.1-0.1-0.2,0-0.3l7.3-7.4c0.1-0.1,0.2-0.1,0.3,0
		c0.1,0.1,0.1,0.2,0,0.3l-7.3,7.4C-128.7-29.8-128.7-29.7-128.8-29.8"/>
	<path id="Fill-1000" fill="#BBE1A5" d="M-124.8-30.4c-0.1,0-0.1,0-0.1,0c-0.1-0.1-0.1-0.2,0-0.3l6.6-6.7c0.1-0.1,0.2-0.1,0.3,0
		c0.1,0.1,0.1,0.2,0,0.3l-6.6,6.7C-124.7-30.4-124.7-30.5-124.8-30.4"/>
	<path id="Fill-1001" fill="#BBE1A5" d="M-128.5-26.5c-0.1,0-0.1,0-0.1,0c-0.1-0.1-0.1-0.2,0-0.3l2.6-2.7c0.1-0.1,0.2-0.1,0.3,0
		c0.1,0.1,0.1,0.2,0,0.3l-2.7,2.7C-128.4-26.6-128.4-26.6-128.5-26.5"/>
</g>
<g>
	<path id="Fill-1050" fill="#BBE1A5" d="M-290.1,97.2c-4.7,0.1-8.5-3.7-8.6-8.4c-0.1-4.7,3.7-8.5,8.4-8.6s8.5,3.7,8.6,8.4
		C-281.7,93.4-285.5,97.3-290.1,97.2L-290.1,97.2z M-290.2,81.6c-3.9,0-7.2,3.3-7.1,7.3c0,3.9,3.3,7.2,7.3,7.1
		c3.9,0,7.2-3.3,7.1-7.3C-283,84.8-286.2,81.6-290.2,81.6L-290.2,81.6z"/>
	<path id="Fill-1051" fill="#BBE1A5" d="M-295.7,89c-0.1,0-0.2-0.1-0.2-0.2c0-2.1,1.1-4.1,2.9-5.1c0.1-0.1,0.2,0,0.3,0.1
		s0,0.2-0.1,0.3c-1.7,0.9-2.8,2.7-2.8,4.7C-295.5,88.9-295.5,89.1-295.7,89"/>
	<path id="Fill-1054" fill="#BBE1A5" d="M-290.3,75.3c-4.7,0.1-8.5-3.7-8.6-8.4c-0.1-4.7,3.7-8.5,8.4-8.6c4.7-0.1,8.5,3.7,8.6,8.4
		C-281.9,71.5-285.7,75.3-290.3,75.3L-290.3,75.3z M-290.4,59.7c-3.9,0-7.2,3.3-7.1,7.3c0,3.9,3.3,7.2,7.3,7.1
		c3.9,0,7.2-3.3,7.1-7.3C-283.2,62.9-286.4,59.7-290.4,59.7L-290.4,59.7z"/>
	<path id="Fill-1055" fill="#BBE1A5" d="M-290.2,81.6c-1.4,0-2.4-1.5-2.4-3.8c0-0.9,0.2-1.8,0.5-2.4c0.4-0.8,1.1-1.3,1.8-1.4l0,1.3
		c-0.7,0-1.1,1.3-1.1,2.5c0,1.2,0.5,2.5,1.2,2.5L-290.2,81.6"/>
	<path id="Fill-1056" fill="#BBE1A5" d="M-290.3,99.5c-0.2,0-0.4-0.2-0.4-0.4l-0.1-7.8c0-1.4,0.7-2.7,1.9-3.4l1.2-0.8
		c0.2-0.1,0.4-0.1,0.6,0.1c0.1,0.2,0,0.4-0.1,0.6l-1.2,0.8c-1,0.6-1.5,1.6-1.5,2.7l0.1,7.8C-289.8,99.3-290.1,99.6-290.3,99.5"/>
	<path id="Fill-1057" fill="#BBE1A5" d="M-287.6,68.4c-0.1,0-0.1,0-0.2-0.1l-1.1-0.7c-1.2-0.8-2-2-1.9-3.5l-0.1-7.8
		c0-0.2,0.2-0.4,0.4-0.4c0.2,0,0.4,0.2,0.4,0.4l0.1,7.8c0,1.1,0.6,2.1,1.5,2.7l1.2,0.8c0.2,0.1,0.3,0.4,0.1,0.6
		C-287.3,68.4-287.5,68.5-287.6,68.4"/>
	<path id="Fill-1058" fill="#BBE1A5" d="M-291.8,83.2c0.2,0,0.3,0.2,0.3,0.3s-0.2,0.3-0.3,0.3c-0.2,0-0.3-0.2-0.3-0.3
		C-292.1,83.3-291.9,83.2-291.8,83.2"/>
	<path id="Fill-1059" fill="#BBE1A5" d="M-295.8,67c-0.1,0-0.2-0.1-0.2-0.2c0-2.1,1.1-4.1,2.9-5.1c0.1-0.1,0.2,0,0.3,0.1
		c0.1,0.1,0,0.2-0.1,0.3c-1.7,0.9-2.8,2.7-2.8,4.7C-295.6,66.9-295.7,67.1-295.8,67"/>
	<path id="Fill-1060" fill="#BBE1A5" d="M-291.9,61.2c0.2,0,0.3,0.2,0.3,0.3c0,0.2-0.2,0.3-0.3,0.3c-0.2,0-0.3-0.2-0.3-0.3
		C-292.2,61.4-292.1,61.2-291.9,61.2"/>
</g>
<g>
	<path id="Fill-1066" fill="#BBE1A5" d="M-123.4,194.6l-5.4,0c-0.8,0-1.5-0.7-1.5-1.5l-0.1-12.5c0-0.8,0.7-1.5,1.5-1.5l5.4,0
		c0.8,0,1.5,0.7,1.5,1.5l0.1,12.5C-121.9,193.9-122.5,194.6-123.4,194.6L-123.4,194.6z M-128.8,180.5c-0.1,0-0.2,0.1-0.2,0.2
		l0.1,12.5c0,0.1,0.1,0.2,0.2,0.2l5.4,0c0.1,0,0.2-0.1,0.2-0.2l-0.1-12.5c0-0.1-0.1-0.2-0.2-0.2L-128.8,180.5L-128.8,180.5z"/>
	<path id="Fill-1067" fill="#BBE1A5" d="M-119.7,192.2l-2.4,0c-0.2,0-0.4-0.2-0.4-0.4c0-0.2,0.2-0.4,0.4-0.4l2,0l-0.1-8.9l-2,0
		c-0.2,0-0.4-0.2-0.4-0.4c0-0.2,0.2-0.4,0.4-0.4l2.4,0c0.2,0,0.4,0.2,0.4,0.4l0.1,9.8C-119.2,192-119.4,192.2-119.7,192.2"/>
	<path id="Fill-1068" fill="#BBE1A5" d="M-129.8,186.7l-35.9,0.3c-1.8,0-3.3-1.4-3.3-3.2l0-0.3c0-1.8,1.4-3.3,3.2-3.3l27.9-0.2
		c1.3,0,2.4-1,2.4-2.4c0-1.3-1-2.4-2.4-2.4l-34.4,0.3c-0.2,0-0.4-0.2-0.4-0.4c0-0.2,0.2-0.4,0.4-0.4l34.4-0.3c1.8,0,3.3,1.4,3.2,3.2
		c0,1.8-1.4,3.3-3.2,3.3l-27.9,0.2c-1.3,0-2.4,1-2.4,2.4l0,0.3c0,1.3,1,2.4,2.4,2.4l35.9-0.3c0.2,0,0.4,0.2,0.4,0.4
		C-129.4,186.5-129.6,186.7-129.8,186.7"/>
	<path id="Fill-1069" fill="#BBE1A5" d="M-172.2,178.3l-8.4,0.1c-0.3,0-0.6-0.3-0.6-0.6l0-5.3c0-0.3,0.3-0.6,0.6-0.6l8.4-0.1
		c0.3,0,0.6,0.3,0.6,0.6l0,5.3C-171.5,178-171.8,178.3-172.2,178.3L-172.2,178.3z M-180,177.1l7.2,0l0-4l-7.2,0L-180,177.1z"/>
	<path id="Fill-1070" fill="#BBE1A5" d="M-181,177l-2.4,0c-0.2,0-0.4-0.2-0.4-0.4l0-2.9c0-0.2,0.2-0.4,0.4-0.4l2.4,0
		c0.2,0,0.4,0.2,0.4,0.4c0,0.2-0.2,0.4-0.4,0.4l-2,0l0,2.1l2,0c0.2,0,0.4,0.2,0.4,0.4C-180.5,176.8-180.7,177-181,177"/>
	<path id="Fill-1071" fill="#BBE1A5" d="M-174.9,176l-4.2,0c-0.1,0-0.2-0.1-0.2-0.2c0-0.1,0.1-0.2,0.2-0.2l4.2,0
		c0.1,0,0.2,0.1,0.2,0.2S-174.8,176.1-174.9,176"/>
	<path id="Fill-1072" fill="#BBE1A5" d="M-173.6,176.1l-0.4,0c-0.1,0-0.2-0.1-0.2-0.2c0-0.1,0.1-0.2,0.2-0.2l0.4,0
		c0.1,0,0.2,0.1,0.2,0.2C-173.4,175.9-173.5,176.1-173.6,176.1"/>
	<path id="Fill-1073" fill="#BBE1A5" d="M-124.1,192.5l-3.9,0.1c-0.1,0-0.2-0.1-0.2-0.2c0-0.1,0.1-0.2,0.2-0.2l3.9-0.1
		c0.1,0,0.2,0.1,0.2,0.2C-123.9,192.4-124,192.5-124.1,192.5"/>
</g>
<g>
	<path id="Fill-1118" fill="#BBE1A5" d="M-252.4,176.1l14.8-0.1l0.2,27.6l-14.8,0.1L-252.4,176.1z M-250.9,202.5l12.2-0.1l-0.2-25.1
		l-12.2,0.1L-250.9,202.5z"/>
	<path id="Fill-1119" fill="#BBE1A5" d="M-250.1,178.7l10.1,0l0.1,18.2l-10.1,0L-250.1,178.7z M-249.2,196.1l8.4-0.1l-0.1-16.5
		l-8.4,0.1L-249.2,196.1z"/>
	<path id="Fill-1120" fill="#BBE1A5" d="M-244.9,201.8c-1.1,0-2-0.9-2.1-2.1c0-1.1,0.9-2,2.1-2.1c1.1,0,2,0.9,2.1,2.1
		C-242.8,200.9-243.8,201.8-244.9,201.8L-244.9,201.8z M-244.9,198.1c-0.9,0-1.7,0.7-1.6,1.7c0,0.9,0.7,1.7,1.7,1.6
		c0.9,0,1.7-0.7,1.6-1.7C-243.3,198.9-244,198.1-244.9,198.1L-244.9,198.1z"/>
	<path id="Fill-1121" fill="#BBE1A5" d="M-248.4,182c-0.1,0-0.1,0-0.1,0c-0.1-0.1-0.1-0.2,0-0.3l1.6-1.6c0.1-0.1,0.2-0.1,0.3,0
		c0.1,0.1,0.1,0.2,0,0.3l-1.6,1.6C-248.3,182-248.4,182-248.4,182"/>
	<path id="Fill-1122" fill="#BBE1A5" d="M-248.3,183.7c-0.1,0-0.1,0-0.1,0c-0.1-0.1-0.1-0.2,0-0.3l3.2-3.3c0.1-0.1,0.2-0.1,0.3,0
		c0.1,0.1,0.1,0.2,0,0.3l-3.2,3.3C-248.2,183.7-248.2,183.8-248.3,183.7"/>
	<path id="Fill-1123" fill="#BBE1A5" d="M-246.6,184c-0.1,0-0.1,0-0.1,0c-0.1-0.1-0.1-0.2,0-0.3l3.6-3.6c0.1-0.1,0.2-0.1,0.3,0
		c0.1,0.1,0.1,0.2,0,0.3l-3.5,3.5C-246.5,184-246.6,184-246.6,184"/>
	<path id="Fill-1124" fill="#BBE1A5" d="M-248.3,185.7c-0.1,0-0.1,0-0.1,0c-0.1-0.1-0.1-0.2,0-0.3l1-1c0.1-0.1,0.2-0.1,0.3,0
		c0.1,0.1,0.1,0.2,0,0.3l-1,1C-248.2,185.6-248.2,185.6-248.3,185.7"/>
	<path id="Fill-1125" fill="#BBE1A5" d="M-220,203.4l0,0.9c0.7,0.3,1.2,1.1,1.3,1.9c0,1.1-1,2.1-2.1,2.1s-2.1-1-2.1-2.1
		c0-0.8,0.5-1.6,1.2-2l0-0.9c-1.2,0.4-2,1.5-2,2.8c0,1.6,1.4,3,3,2.9c1.6,0,3-1.4,2.9-3C-217.8,204.9-218.7,203.8-220,203.4"/>
	<path id="Fill-1126" fill="#BBE1A5" d="M-220.8,206.4c-0.7,0-1.3-0.5-1.3-1.3l-0.1-6c0-0.7,0.5-1.3,1.3-1.3c0.7,0,1.3,0.5,1.3,1.3
		l0.1,6C-219.5,205.8-220,206.4-220.8,206.4L-220.8,206.4z M-220.8,198.6c-0.2,0-0.5,0.2-0.4,0.4l0.1,6c0,0.2,0.2,0.5,0.4,0.4
		c0.2,0,0.5-0.2,0.4-0.4l-0.1-6C-220.4,198.8-220.6,198.6-220.8,198.6L-220.8,198.6z"/>
	<path id="Fill-1127" fill="#BBE1A5" d="M-216.6,199.5l0,0.9c0.7,0.3,1.2,1.1,1.3,1.9c0,1.1-1,2.1-2.1,2.1s-2.1-1-2.1-2.1
		c0-0.9,0.5-1.6,1.2-2l0-0.9c-1.2,0.4-2,1.5-2,2.8c0,1.6,1.4,3,3,2.9c1.6,0,3-1.4,2.9-3C-214.4,201-215.3,199.9-216.6,199.5"/>
	<path id="Fill-1128" fill="#BBE1A5" d="M-217.4,202.5c-0.7,0-1.3-0.5-1.3-1.3l-0.1-6c0-0.7,0.5-1.3,1.3-1.3c0.7,0,1.3,0.5,1.3,1.3
		l0.1,6C-216.1,201.9-216.6,202.5-217.4,202.5L-217.4,202.5z M-217.4,194.7c-0.2,0-0.5,0.2-0.4,0.4l0.1,6c0,0.2,0.2,0.5,0.4,0.4
		c0.2,0,0.5-0.2,0.4-0.4l-0.1-6C-217,194.9-217.2,194.7-217.4,194.7L-217.4,194.7z"/>
	<path id="Fill-1129" fill="#BBE1A5" d="M-227.9,209.3c-1.5,0-2.8-1.2-2.8-2.8l-0.2-27.8c0-1-0.8-1.7-1.7-1.7c-1,0-1.7,0.8-1.7,1.7
		l0.2,25.8c0,2.6-2.2,4.8-4.7,4.8l-6.2,0c-2.6,0-4.8-2.2-4.8-4.7l0-1.4c0-0.2,0.2-0.4,0.4-0.4c0.2,0,0.4,0.2,0.4,0.4l0,1.4
		c0,2.2,1.8,3.9,4,3.9l6.2,0c2.2,0,3.9-1.8,3.9-4l-0.2-25.8c0-1.4,1.2-2.5,2.5-2.6c1.4,0,2.5,1.2,2.6,2.5l0.2,27.8
		c0,1,0.9,1.9,1.9,1.9c1,0,1.9-0.9,1.9-1.9l-0.2-27.5c0-1.6,1.2-2.8,2.8-2.8s2.8,1.2,2.8,2.8l0.1,18.9c0,0.2-0.2,0.4-0.4,0.4
		s-0.4-0.2-0.4-0.4l-0.1-18.9c0-1.1-0.9-2-2.1-2c-1.1,0.1-2,0.9-2,2.1l0.2,27.5C-225.2,208-226.4,209.2-227.9,209.3"/>
	<path id="Fill-1130" fill="#BBE1A5" d="M-217.4,194.7c-0.2,0-0.4-0.2-0.4-0.4l-0.1-9.2c0-1.7-1.4-3-3-3c-0.2,0-0.4-0.2-0.4-0.4
		c0-0.2,0.2-0.4,0.4-0.4c2.2,0,3.9,1.7,3.9,3.8l0.1,9.2C-217,194.5-217.2,194.7-217.4,194.7"/>
</g>
<g>
	<path id="Fill-1601" fill="#BBE1A5" d="M-295,307l-24,0.2c-0.3,0-0.6-0.3-0.6-0.6l-0.4-52.7c0-0.3,0.3-0.6,0.6-0.6l32.8-0.2
		c0.3,0,0.6,0.3,0.6,0.6l0.3,43.8C-285.6,302.6-289.7,306.9-295,307L-295,307z M-318.3,305.9l23.4-0.2c4.5,0,8.2-3.7,8.1-8.2
		l-0.4-43.2l-31.5,0.2L-318.3,305.9L-318.3,305.9z"/>
	<path id="Fill-1602" fill="#BBE1A5" d="M-294.2,278l-21.5,0.2c-0.2,0-0.4-0.2-0.4-0.4l-0.2-20.5c0-0.2,0.2-0.4,0.4-0.4l25.5-0.2
		c0.2,0,0.4,0.2,0.4,0.4l0.1,16.5C-289.8,276-291.8,278-294.2,278L-294.2,278z M-315.3,277.3l21.1-0.1c1.9,0,3.5-1.6,3.6-3.6
		l-0.1-16.1l-24.6,0.2L-315.3,277.3L-315.3,277.3z"/>
	<path id="Fill-1603" fill="#BBE1A5" d="M-294.8,275.7l-16.5,0.1c-0.1,0-0.2-0.1-0.2-0.2l-0.1-16.5c0-0.1,0.1-0.2,0.2-0.2l16.5-0.1
		c0.1,0,0.2,0.1,0.2,0.2l0.1,16.5C-294.6,275.6-294.6,275.7-294.8,275.7L-294.8,275.7z M-311,275.4l16-0.1l-0.1-16.1l-16,0.1
		L-311,275.4z"/>
	<path id="Fill-1604" fill="#BBE1A5" d="M-293.3,304.2c-0.1,0-0.1,0-0.1,0l-3-3c-0.1-0.1-0.1-0.2,0-0.3c0.1-0.1,0.2-0.1,0.3,0l3,3
		c0.1,0.1,0.1,0.2,0,0.3C-293.3,304.2-293.3,304.2-293.3,304.2"/>
	<path id="Fill-1605" fill="#BBE1A5" d="M-292.3,303.2c-0.1,0-0.1,0-0.1,0l-3-3c-0.1-0.1-0.1-0.2,0-0.3c0.1-0.1,0.2-0.1,0.3,0l3,3
		c0.1,0.1,0.1,0.2,0,0.3C-292.2,303.1-292.3,303.1-292.3,303.2"/>
	<path id="Fill-1606" fill="#BBE1A5" d="M-291.3,302.1c-0.1,0-0.1,0-0.1,0l-3-3c-0.1-0.1-0.1-0.2,0-0.3c0.1-0.1,0.2-0.1,0.3,0l3,3
		c0.1,0.1,0.1,0.2,0,0.3C-291.2,302.1-291.2,302.1-291.3,302.1"/>
	<path id="Fill-1607" fill="#BBE1A5" d="M-290.2,301c-0.1,0-0.1,0-0.1,0l-3-3c-0.1-0.1-0.1-0.2,0-0.3c0.1-0.1,0.2-0.1,0.3,0l3,3
		c0.1,0.1,0.1,0.2,0,0.3C-290.1,300.9-290.2,301-290.2,301"/>
	<path id="Fill-1608" fill="#BBE1A5" d="M-289.2,299.9c-0.1,0-0.1,0-0.1,0l-3-3c-0.1-0.1-0.1-0.2,0-0.3c0.1-0.1,0.2-0.1,0.3,0l3,3
		c0.1,0.1,0.1,0.2,0,0.3C-289.1,299.9-289.1,300-289.2,299.9"/>
	<path id="Fill-1609" fill="#BBE1A5" d="M-288.2,298.9c-0.1,0-0.1,0-0.1,0l-3-3c-0.1-0.1-0.1-0.2,0-0.3c0.1-0.1,0.2-0.1,0.3,0l3,3
		c0.1,0.1,0.1,0.2,0,0.3C-288,298.9-288.1,298.8-288.2,298.9"/>
	<path id="Fill-1610" fill="#BBE1A5" d="M-309.3,292.6l-3.1,0.1c-0.2,0-0.4-0.2-0.4-0.4l0-2.9l-2.9,0c-0.2,0-0.4-0.2-0.4-0.4
		l-0.1-3.1c0-0.2,0.2-0.4,0.4-0.4l2.9,0l0-2.9c0-0.2,0.2-0.4,0.4-0.4l3.1-0.1c0.2,0,0.4,0.2,0.4,0.4l0,2.9l2.9,0
		c0.2,0,0.4,0.2,0.4,0.4l0.1,3.1c0,0.2-0.2,0.4-0.4,0.4l-2.9,0l0,2.9C-308.8,292.4-309,292.6-309.3,292.6L-309.3,292.6z
		 M-311.8,291.8l2.2,0l0-2.9c0-0.2,0.2-0.4,0.4-0.4l2.9,0l0-2.2l-2.9,0c-0.2,0-0.4-0.2-0.4-0.4l0-2.9l-2.2,0l0,2.9
		c0,0.2-0.2,0.4-0.4,0.4l-2.9,0l0,2.2l2.9,0c0.2,0,0.4,0.2,0.4,0.4L-311.8,291.8L-311.8,291.8z"/>
	<path id="Fill-1611" fill="#BBE1A5" d="M-292.7,287c-0.7,0-1.3-0.2-1.8-0.7c-1-0.9-1-2.5-0.1-3.5c0.9-0.9,2.6-1,3.5-0.1
		c1,0.9,1,2.5,0.1,3.5C-291.4,286.8-292.1,287.1-292.7,287L-292.7,287z M-292.8,282.9c-0.5,0-0.8,0.1-1.2,0.5
		c-0.7,0.7-0.7,1.7,0,2.4c0.6,0.6,1.7,0.6,2.4,0c0.7-0.7,0.7-1.7,0-2.4C-291.9,283-292.3,282.8-292.8,282.9L-292.8,282.9z"/>
	<path id="Fill-1612" fill="#BBE1A5" d="M-297.4,291.8c-0.7,0-1.3-0.2-1.8-0.7c-1-0.9-1-2.5-0.1-3.5c0.9-0.9,2.6-1,3.5-0.1
		c1,0.9,1,2.5,0.1,3.5C-296.1,291.6-296.8,291.8-297.4,291.8L-297.4,291.8z M-297.5,287.6c-0.5,0-0.8,0.1-1.2,0.5
		c-0.7,0.7-0.7,1.7,0,2.4c0.6,0.6,1.7,0.6,2.3,0c0.7-0.7,0.7-1.7,0-2.4C-296.6,287.8-297,287.6-297.5,287.6L-297.5,287.6z"/>
	<path id="Fill-1613" fill="#BBE1A5" d="M-309.3,301c-0.6,0-1-0.3-1.2-0.8l0-0.2c-0.3-0.6,0.1-1.4,0.7-1.6l3.1-1.2
		c0.6-0.2,1.4,0.1,1.6,0.7l0,0.2c0.2,0.3,0.1,0.7,0,0.9c-0.2,0.3-0.4,0.5-0.7,0.7l-3.1,1.2C-309,301-309.1,301-309.3,301L-309.3,301
		z M-306.3,297.9c-0.1,0-0.1,0.1-0.2,0l-3.1,1.2c-0.2,0.1-0.3,0.3-0.2,0.6l0,0.2c0.1,0.2,0.3,0.3,0.6,0.2l3.1-1.2
		c0.1-0.1,0.2-0.1,0.2-0.3c0-0.1,0.1-0.2,0-0.3l0-0.2C-305.9,298-306,297.9-306.3,297.9L-306.3,297.9z"/>
	<path id="Fill-1614" fill="#BBE1A5" d="M-302.7,301c-0.6,0-1-0.3-1.2-0.8l0-0.2c-0.3-0.6,0.1-1.4,0.7-1.6l3.1-1.2
		c0.6-0.2,1.4,0.1,1.6,0.7l0,0.2c0.2,0.3,0.1,0.7,0,0.9c-0.2,0.3-0.4,0.5-0.7,0.7l-3.1,1.2C-302.4,300.9-302.5,300.9-302.7,301
		L-302.7,301z M-299.7,297.9c-0.1,0-0.1,0.1-0.2,0l-3.1,1.2c-0.2,0.1-0.3,0.3-0.2,0.6l0,0.2c0.1,0.2,0.4,0.4,0.6,0.2l3.1-1.2
		c0.1-0.1,0.2-0.1,0.2-0.3c0-0.1,0.1-0.2,0-0.3l0-0.2C-299.3,298-299.5,297.8-299.7,297.9L-299.7,297.9z"/>
	<path id="Fill-1615" fill="#BBE1A5" d="M-310.1,263.8c-0.1,0-0.1,0-0.1,0c-0.1-0.1-0.1-0.2,0-0.3l3.2-3.2c0.1-0.1,0.2-0.1,0.3,0
		c0.1,0.1,0.1,0.2,0,0.3l-3.2,3.2C-310,263.7-310.1,263.8-310.1,263.8"/>
	<path id="Fill-1616" fill="#BBE1A5" d="M-310.1,266.7c-0.1,0-0.1,0-0.1,0c-0.1-0.1-0.1-0.2,0-0.3l6.1-6.3c0.1-0.1,0.2-0.1,0.3,0
		c0.1,0.1,0.1,0.2,0,0.3L-310.1,266.7C-310,266.7-310.1,266.7-310.1,266.7"/>
	<path id="Fill-1617" fill="#BBE1A5" d="M-310.1,269.8c-0.1,0-0.1,0-0.1,0c-0.1-0.1-0.1-0.2,0-0.3l9.1-9.3c0.1-0.1,0.2-0.1,0.3,0
		c0.1,0.1,0.1,0.2,0,0.3l-9.1,9.3C-309.9,269.8-310,269.7-310.1,269.8"/>
</g>
<g>
	<path id="Fill-1618" fill="#BBE1A5" d="M-143.9,248.5l-51.6,0.4c-2.3,0-4.2-1.9-4.2-4.1l-0.3-34.9c0-2.3,1.8-4.3,4.2-4.3l51.6-0.4
		c2.3,0,4.2,1.9,4.2,4.1l0.3,34.9C-139.7,246.6-141.6,248.4-143.9,248.5L-143.9,248.5z M-195.9,206.8c-1.6,0-3,1.4-2.9,3l0.3,34.9
		c0,1.6,1.4,3,3,3l51.6-0.4c1.6,0,3-1.4,2.9-3l-0.3-34.9c0-1.6-1.4-3-3-3L-195.9,206.8L-195.9,206.8z"/>
	<path id="Fill-1619" fill="#BBE1A5" d="M-148.2,244.5l-43.1,0.3c-0.2,0-0.4-0.2-0.4-0.4l-0.2-34.5c0-0.2,0.2-0.4,0.4-0.4l43.1-0.3
		c0.2,0,0.4,0.2,0.4,0.4l0.2,34.5C-147.8,244.3-148,244.5-148.2,244.5L-148.2,244.5z M-190.9,244l42.2-0.3L-149,210l-42.2,0.3
		L-190.9,244z"/>
	<path id="Fill-1620" fill="#BBE1A5" d="M-144.3,226.8c0,0.2-0.2,0.3-0.4,0.4c-0.2,0-0.3-0.2-0.4-0.4s0.2-0.3,0.4-0.4
		C-144.4,226.5-144.3,226.6-144.3,226.8"/>
	<path id="Fill-1621" fill="#BBE1A5" d="M-195.3,229.1c-1,0-1.8-0.8-1.9-1.8c0-1,0.8-1.8,1.8-1.9c1,0,1.8,0.8,1.9,1.8
		C-193.4,228.2-194.3,229.1-195.3,229.1L-195.3,229.1z M-195.3,226.2c-0.6,0-1,0.5-1,1.1c0,0.6,0.5,1,1.1,1c0.6,0,1-0.5,1-1.1
		C-194.3,226.7-194.8,226.2-195.3,226.2L-195.3,226.2z"/>
	<path id="Fill-1622" fill="#BBE1A5" d="M-189.1,218.3c-0.1,0-0.1,0-0.1,0c-0.1-0.1-0.1-0.2,0-0.3l5.6-5.7c0.1-0.1,0.2-0.1,0.3,0
		c0.1,0.1,0.1,0.2,0,0.3l-5.6,5.7C-189.1,218.3-189.1,218.4-189.1,218.3"/>
	<path id="Fill-1623" fill="#BBE1A5" d="M-189.1,223c-0.1,0-0.1,0-0.1,0c-0.1-0.1-0.1-0.2,0-0.3l10.2-10.4c0.1-0.1,0.2-0.1,0.3,0
		c0.1,0.1,0.1,0.2,0,0.3l-10.2,10.4C-188.9,223-189,223-189.1,223"/>
	<path id="Fill-1624" fill="#BBE1A5" d="M-183.4,222.5c-0.1,0-0.1,0-0.1,0c-0.1-0.1-0.1-0.2,0-0.3l9.6-9.8c0.1-0.1,0.2-0.1,0.3,0
		c0.1,0.1,0.1,0.2,0,0.3l-9.6,9.8C-183.3,222.5-183.4,222.5-183.4,222.5"/>
	<path id="Fill-1625" fill="#BBE1A5" d="M-188.4,227.2c-0.1,0-0.1,0-0.1,0c-0.1-0.1-0.1-0.2,0-0.3l3.1-3.1c0.1-0.1,0.2-0.1,0.3,0
		c0.1,0.1,0.1,0.2,0,0.3l-3.1,3.1C-188.3,227.2-188.3,227.2-188.4,227.2"/>
</g>
<g>
	<path id="Fill-1703" fill="#BBE1A5" d="M-124.8,356.9l-51.7,0.4c-3.1,0-5.7-2.5-5.7-5.6l-0.6-76.3c0-3.1,2.5-5.7,5.6-5.7l51.7-0.4
		c3.1,0,5.7,2.5,5.7,5.6l0.6,76.3C-119.2,354.4-121.7,356.9-124.8,356.9L-124.8,356.9z M-177.2,270.9c-2.4,0-4.4,2-4.3,4.4l0.6,76.3
		c0,2.4,2,4.4,4.4,4.3l51.7-0.4c2.4,0,4.4-2,4.3-4.4l-0.5-76.3c0-2.4-2-4.4-4.4-4.3L-177.2,270.9L-177.2,270.9z"/>
	<path id="Fill-1704" fill="#BBE1A5" d="M-128.4,348.1l-44.7,0.3c-2.2,0-4-1.7-4-3.9l-0.5-66.1c0-2.2,1.7-4,3.9-4l44.7-0.3
		c2.2,0,4,1.7,4,3.9l0.5,66.1C-124.4,346.3-126.1,348.1-128.4,348.1L-128.4,348.1z M-173.6,275.6c-1.5,0-2.7,1.2-2.7,2.7l0.5,66.1
		c0,1.5,1.2,2.7,2.7,2.7l44.7-0.3c1.5,0,2.7-1.2,2.7-2.7l-0.5-66.1c0-1.5-1.2-2.7-2.7-2.7L-173.6,275.6L-173.6,275.6z"/>
	<path id="Fill-1705" fill="#BBE1A5" d="M-170.9,281.9c-0.9,0-1.6-0.7-1.5-1.6s0.7-1.6,1.6-1.5c0.9,0,1.6,0.7,1.6,1.6
		C-169.3,281.2-170,281.9-170.9,281.9L-170.9,281.9z M-170.9,279.2c-0.6,0-1.1,0.5-1.2,1.2c0,0.6,0.5,1.1,1.2,1.2
		c0.6,0,1.1-0.5,1.2-1.2C-169.8,279.7-170.3,279.2-170.9,279.2L-170.9,279.2z"/>
	<path id="Fill-1706" fill="#BBE1A5" d="M-130.7,281.6c-0.9,0-1.6-0.7-1.5-1.6c0-0.9,0.7-1.6,1.6-1.5c0.9,0,1.6,0.7,1.5,1.6
		C-129.1,280.9-129.8,281.5-130.7,281.6L-130.7,281.6z M-130.7,278.9c-0.6,0-1.1,0.5-1.2,1.2c0,0.6,0.5,1.1,1.2,1.2
		c0.6,0,1.1-0.5,1.2-1.2C-129.6,279.4-130,278.8-130.7,278.9L-130.7,278.9z"/>
	<path id="Fill-1707" fill="#BBE1A5" d="M-170.4,344c-0.9,0-1.6-0.7-1.5-1.6s0.7-1.6,1.6-1.5c0.9,0,1.6,0.7,1.6,1.6
		C-168.9,343.3-169.6,344-170.4,344L-170.4,344z M-170.5,341.3c-0.6,0-1.1,0.5-1.2,1.2s0.5,1.1,1.2,1.2c0.6,0,1.1-0.5,1.2-1.2
		C-169.3,341.8-169.8,341.3-170.5,341.3L-170.5,341.3z"/>
	<path id="Fill-1708" fill="#BBE1A5" d="M-130.2,343.7c-0.9,0-1.6-0.7-1.5-1.6c0-0.9,0.7-1.6,1.6-1.5s1.6,0.7,1.5,1.6
		C-128.6,343-129.3,343.7-130.2,343.7L-130.2,343.7z M-130.2,341c-0.6,0-1.1,0.5-1.2,1.2c0,0.6,0.5,1.1,1.2,1.2s1.1-0.5,1.2-1.2
		C-129.1,341.5-129.6,340.9-130.2,341L-130.2,341z"/>
	<path id="Fill-1709" fill="#BBE1A5" d="M-164.9,360.1l-7.5,0c-1.2,0-2.3-1-2.3-2.3l0-1.2c0-0.3,0.3-0.6,0.6-0.6
		c0.3,0,0.6,0.3,0.6,0.6l0,1.2c0,0.6,0.4,1,1,1l7.5,0c0.6,0,1-0.4,1-1l0-1.2c0-0.3,0.3-0.6,0.6-0.6c0.3,0,0.6,0.3,0.6,0.6l0,1.2
		C-162.7,359-163.6,360.1-164.9,360.1"/>
	<path id="Fill-1710" fill="#BBE1A5" d="M-129.6,359.8l-7.5,0c-1.2,0-2.3-1-2.3-2.3l0-1.2c0-0.3,0.3-0.6,0.6-0.6
		c0.3,0,0.6,0.3,0.6,0.6l0,1.2c0,0.6,0.4,1,1,1l7.5,0c0.6,0,1-0.4,1-1l0-1.2c0-0.3,0.3-0.6,0.6-0.6c0.3,0,0.6,0.3,0.6,0.6l0,1.2
		C-127.4,358.8-128.4,359.7-129.6,359.8"/>
	<path id="Fill-1711" fill="#BBE1A5" d="M-151.1,295.9c-4.1,0.1-7.4-3.3-7.5-7.4c-0.1-4.1,3.3-7.4,7.4-7.5c4.1-0.1,7.4,3.3,7.5,7.4
		S-147,295.8-151.1,295.9L-151.1,295.9z M-151.2,281.8c-3.6,0-6.6,3-6.5,6.6c0,3.6,3,6.6,6.6,6.5c3.6,0,6.6-3,6.5-6.6
		C-144.6,284.8-147.6,281.9-151.2,281.8L-151.2,281.8z"/>
	<path id="Fill-1712" fill="#BBE1A5" d="M-151.1,293.6c-2.8,0-5.2-2.3-5.2-5.1c0-2.8,2.3-5.2,5.1-5.2c2.8,0,5.2,2.3,5.2,5.1
		C-146,291.2-148.3,293.6-151.1,293.6L-151.1,293.6z M-151.2,283.7c-2.6,0-4.7,2.2-4.7,4.8c0,2.6,2.2,4.7,4.8,4.7
		c2.6,0,4.7-2.2,4.7-4.8C-146.4,285.8-148.6,283.6-151.2,283.7L-151.2,283.7z"/>
	<path id="Fill-1713" fill="#BBE1A5" d="M-151.1,291.6c-1.8,0-3.2-1.4-3.2-3.2c0-1.8,1.4-3.2,3.2-3.2c1.8,0,3.2,1.4,3.2,3.2
		C-147.9,290.2-149.4,291.7-151.1,291.6L-151.1,291.6z M-151.2,286.1c-1.3,0-2.3,1.1-2.3,2.4c0,1.3,1.1,2.3,2.4,2.3
		c1.3,0,2.3-1.1,2.3-2.4S-149.9,286.1-151.2,286.1L-151.2,286.1z"/>
	<path id="Fill-1714" fill="#BBE1A5" d="M-158.1,281.8c0-0.3-0.2-0.6-0.6-0.6c-0.3,0-0.6,0.2-0.6,0.6c0,0.3,0.2,0.6,0.6,0.6
		C-158.3,282.4-158.1,282.1-158.1,281.8"/>
	<path id="Fill-1715" fill="#BBE1A5" d="M-143.2,281.7c0-0.3-0.2-0.6-0.6-0.6c-0.3,0-0.6,0.2-0.6,0.6c0,0.3,0.2,0.6,0.6,0.6
		C-143.5,282.3-143.2,282-143.2,281.7"/>
	<path id="Fill-1716" fill="#BBE1A5" d="M-158,295.2c0-0.3-0.2-0.6-0.6-0.6c-0.3,0-0.6,0.2-0.6,0.6c0,0.3,0.2,0.6,0.6,0.6
		C-158.2,295.8-158,295.5-158,295.2"/>
	<path id="Fill-1717" fill="#BBE1A5" d="M-143.1,295.1c0-0.3-0.2-0.6-0.6-0.6c-0.3,0-0.6,0.2-0.6,0.6c0,0.3,0.2,0.6,0.6,0.6
		C-143.4,295.6-143.1,295.4-143.1,295.1"/>
	<path id="Fill-1718" fill="#BBE1A5" d="M-150.8,340.3c-11,0.1-20-8.8-20.1-19.7c-0.1-10.9,8.7-20,19.7-20.1
		c11-0.1,20,8.8,20.1,19.7C-130.9,331.2-139.8,340.2-150.8,340.3L-150.8,340.3z M-151.1,301.6c-10.3,0.1-18.6,8.5-18.5,18.8
		c0.1,10.3,8.5,18.6,18.8,18.6c10.3-0.1,18.6-8.5,18.5-18.8C-132.3,310-140.7,301.6-151.1,301.6L-151.1,301.6z"/>
	<path id="Fill-1719" fill="#BBE1A5" d="M-150.9,326.2c-3.2,0-5.9-2.6-5.9-5.8c0-3.2,2.6-5.9,5.8-5.9c3.2,0,5.9,2.6,5.9,5.8
		C-145,323.6-147.7,326.2-150.9,326.2L-150.9,326.2z M-151,315.4c-2.7,0.1-5,2.3-4.9,5s2.3,5,5,4.9c2.7-0.1,5-2.3,4.9-5
		C-146,317.6-148.2,315.3-151,315.4L-151,315.4z"/>
	<path id="Fill-1722" fill="#BBE1A5" d="M-150.8,337c-9.2,0.1-16.6-7.4-16.7-16.4c-0.1-9.2,7.3-16.7,16.4-16.7
		c9.2-0.1,16.6,7.4,16.7,16.4C-134.3,329.4-141.7,336.9-150.8,337L-150.8,337z M-151,304.2c-8.9,0.1-16.1,7.4-16.1,16.3
		c0.1,8.9,7.4,16.1,16.3,16.1s16.1-7.4,16.1-16.3C-134.8,311.4-142.1,304.2-151,304.2L-151,304.2z"/>
	<path id="Fill-1723" fill="#BBE1A5" d="M-137,318c0-0.2-0.2-0.4-0.4-0.4c-0.2,0-0.4,0.2-0.4,0.4c0,0.2,0.2,0.4,0.4,0.4
		C-137.2,318.3-137,318.2-137,318"/>
	<path id="Fill-1724" fill="#BBE1A5" d="M-151.3,333.9c-0.1,0-0.2-0.1-0.2-0.2c0-0.1,0.1-0.2,0.2-0.2c7.6-0.1,13.7-6.3,13.7-13.9
		c0-0.1,0.1-0.2,0.2-0.2c0.1,0,0.2,0.1,0.2,0.2C-137.2,327.4-143.5,333.8-151.3,333.9"/>
</g>
<g>
	<path id="Fill-1725" fill="#BBE1A5" d="M-124.5,410.1c-6.8,0.1-12.5-5.5-12.5-12.4c-0.1-6.8,5.5-12.5,12.3-12.5
		c6.8-0.1,12.5,5.5,12.5,12.4C-112.1,404.4-117.6,410.1-124.5,410.1L-124.5,410.1z M-124.7,386.5c-6.2,0-11.1,5.1-11.1,11.3
		c0,6.2,5.1,11.1,11.3,11.1c6.2,0,11.1-5.1,11.1-11.3S-118.5,386.5-124.7,386.5L-124.7,386.5z"/>
	<path id="Fill-1726" fill="#BBE1A5" d="M-105,413.8l-38.8,0.3c-2,0-3.7-1.7-3.6-3.6l-0.2-22.5c0-2,1.6-3.7,3.6-3.6l7.6-0.1l1.8-5.3
		c0.5-1.4,1.8-2.4,3.4-2.4l13.1-0.1c1.5,0,2.9,0.9,3.5,2.4l1.9,5.3l7.6-0.1c2,0,3.7,1.7,3.6,3.6l0.2,22.5
		C-101.4,412.2-103,413.8-105,413.8L-105,413.8z M-144.1,385.6c-1.3,0-2.4,1-2.4,2.4l0.2,22.5c0,1.3,1,2.4,2.4,2.4l38.8-0.3
		c1.3,0,2.4-1,2.4-2.4l-0.2-22.5c0-1.3-1-2.4-2.4-2.4l-8,0.1c-0.2,0-0.5-0.2-0.6-0.4l-2.1-5.7c-0.3-1-1.3-1.6-2.3-1.6l-13.1,0.1
		c-1,0-1.9,0.6-2.2,1.6l-2,5.7c-0.1,0.2-0.3,0.4-0.6,0.5L-144.1,385.6L-144.1,385.6z"/>
	<path id="Fill-1727" fill="#BBE1A5" d="M-135.6,393.6l-11.5,0.1c-0.1,0-0.2-0.1-0.2-0.2c0-0.1,0.1-0.2,0.2-0.2l11.5-0.1
		c0.1,0,0.2,0.1,0.2,0.2C-135.4,393.6-135.5,393.7-135.6,393.6"/>
	<path id="Fill-1728" fill="#BBE1A5" d="M-101.9,393.4l-11.7,0.1c-0.1,0-0.2-0.1-0.2-0.2c0-0.1,0.1-0.2,0.2-0.2l11.7-0.1
		c0.1,0,0.2,0.1,0.2,0.2C-101.7,393.3-101.9,393.4-101.9,393.4"/>
	<path id="Fill-1729" fill="#BBE1A5" d="M-102.9,409.3l-44.1,0.3c-0.1,0-0.2-0.1-0.2-0.2c0-0.1,0.1-0.2,0.2-0.2l44.1-0.3
		c0.1,0,0.2,0.1,0.2,0.2C-102.7,409.2-102.8,409.3-102.9,409.3"/>
	<path id="Fill-1732" fill="#BBE1A5" d="M-124.5,406.6c-4.9,0.1-8.9-3.9-8.9-8.8c-0.1-4.9,3.9-8.9,8.8-8.9c4.9,0,8.9,3.9,8.9,8.8
		C-115.7,402.5-119.6,406.5-124.5,406.6L-124.5,406.6z M-124.7,389.6c-4.4,0-8,3.6-7.9,8.1c0,4.4,3.6,8,8.1,7.9s8-3.6,7.9-8.1
		C-116.6,393.1-120.2,389.6-124.7,389.6L-124.7,389.6z"/>
	<path id="Fill-1733" fill="#BBE1A5" d="M-118.6,396.4c0,0.2-0.2,0.3-0.4,0.4c-0.2,0-0.3-0.2-0.4-0.4c0-0.2,0.2-0.3,0.4-0.4
		C-118.8,396-118.6,396.2-118.6,396.4"/>
	<path id="Fill-1734" fill="#BBE1A5" d="M-137.4,384.7l-0.8,0l0-1.6c0-0.8-0.6-1.4-1.4-1.4l-2.8,0c-0.8,0-1.4,0.6-1.4,1.4l0,1.6
		l-0.8,0l0-1.6c0-1.3,1-2.3,2.3-2.3l2.8,0c1.3,0,2.3,1,2.3,2.3L-137.4,384.7"/>
	<path id="Fill-1735" fill="#BBE1A5" d="M-142.7,381.3l0.4,0l0,3.6l-0.4,0L-142.7,381.3z"/>
	<path id="Fill-1736" fill="#BBE1A5" d="M-141.3,381.5l0.4,0l0,3.4l-0.4,0L-141.3,381.5z"/>
	<path id="Fill-1737" fill="#BBE1A5" d="M-139.9,381.3l0.4,0l0,3.6l-0.4,0L-139.9,381.3z"/>
	<path id="Fill-1739" fill="#BBE1A5" d="M-106.2,384.2l-0.8,0c0-0.9-0.7-1.6-1.6-1.6s-1.6,0.7-1.6,1.6l-0.8,0c0-1.4,1-2.4,2.4-2.4
		C-107.3,381.8-106.2,382.9-106.2,384.2"/>
	<path id="Fill-1740" fill="#BBE1A5" d="M-119.7,383.1l-10.1,0c-0.6,0-1.1-0.5-1.2-1.2l0-1c0-0.6,0.5-1.1,1.2-1.2l10.1,0
		c0.6,0,1.1,0.5,1.2,1.2l0,1C-118.6,382.6-119,383.1-119.7,383.1L-119.7,383.1z M-129.8,380.2c-0.4,0-0.7,0.3-0.7,0.8l0,1
		c0,0.4,0.3,0.7,0.8,0.7l10.1,0c0.4,0,0.7-0.3,0.7-0.8l0-1c0-0.4-0.3-0.7-0.8-0.7L-129.8,380.2L-129.8,380.2z"/>
	<path id="Fill-1741" fill="#BBE1A5" d="M-105.6,391.4l-5,0c-0.4,0-0.7-0.3-0.7-0.7l0-2.6c0-0.4,0.3-0.7,0.7-0.7l5,0
		c0.4,0,0.7,0.3,0.7,0.7l0,2.6C-104.9,391.1-105.2,391.4-105.6,391.4L-105.6,391.4z M-110.6,387.8c-0.2,0-0.3,0.2-0.2,0.3l0,2.6
		c0,0.2,0.2,0.3,0.3,0.2l5,0c0.2,0,0.3-0.1,0.2-0.3l0-2.6c0-0.2-0.2-0.3-0.3-0.2L-110.6,387.8L-110.6,387.8z"/>
	<path id="Fill-1742" fill="#BBE1A5" d="M-124.5,403.4c-0.1,0-0.2-0.1-0.2-0.2c0-0.1,0.1-0.2,0.2-0.2c3,0,5.3-2.4,5.3-5.4
		c0-0.1,0.1-0.2,0.2-0.2c0.1,0,0.2,0.1,0.2,0.2C-118.8,400.8-121.3,403.4-124.5,403.4"/>
</g>
<g>
	<path id="Fill-2229" fill="#BBE1A5" d="M-208.3,437l-5.2,0c-0.3,0-0.6-0.3-0.6-0.6l-0.4-45.9c0-0.3,0.3-0.6,0.6-0.6l5.2,0
		c0.3,0,0.6,0.3,0.6,0.6l0.4,45.9C-207.7,436.7-208,437-208.3,437L-208.3,437z M-213,435.8l4,0l-0.3-44.6l-4,0L-213,435.8z"/>
	<path id="Fill-2231" fill="#BBE1A5" d="M-208.6,401.8l-5.2,0c-0.2,0-0.4-0.2-0.4-0.4c0-0.2,0.2-0.4,0.4-0.4l5.2,0
		c0.2,0,0.4,0.2,0.4,0.4C-208.2,401.6-208.4,401.8-208.6,401.8"/>
	<path id="Fill-2233" fill="#BBE1A5" d="M-209.5,391c-0.2,0-0.4-0.2-0.4-0.4l0-1.8l-2.9,0l0,1.8c0,0.2-0.2,0.4-0.4,0.4
		c-0.2,0-0.4-0.2-0.4-0.4l0-2.2c0-0.2,0.2-0.4,0.4-0.4l3.7,0c0.2,0,0.4,0.2,0.4,0.4l0,2.2C-209.1,390.8-209.2,391-209.5,391"/>
	<path id="Fill-2234" fill="#BBE1A5" d="M-212.1,422.3c-0.1,0-0.2-0.1-0.2-0.2l-0.1-19.2c0-0.1,0.1-0.2,0.2-0.2
		c0.1,0,0.2,0.1,0.2,0.2l0.1,19.2C-211.9,422.2-212,422.3-212.1,422.3"/>
	<path id="Fill-2238" fill="#BBE1A5" d="M-212.2,398.1c-0.1,0-0.2-0.1-0.2-0.2l0-5.5c0-0.1,0.1-0.2,0.2-0.2c0.1,0,0.2,0.1,0.2,0.2
		l0,5.5C-212,398-212.1,398.1-212.2,398.1"/>
	<path id="Fill-2239" fill="#BBE1A5" d="M-212.2,399.8c-0.1,0-0.2-0.1-0.2-0.2l0-0.6c0-0.1,0.1-0.2,0.2-0.2c0.1,0,0.2,0.1,0.2,0.2
		l0,0.6C-212,399.6-212.2,399.8-212.2,399.8"/>
	<path id="Fill-2240" fill="#BBE1A5" d="M-208.3,437l-5.2,0c-0.3,0-0.6-0.3-0.6-0.6l-0.4-45.9c0-0.3,0.3-0.6,0.6-0.6l5.2,0
		c0.3,0,0.6,0.3,0.6,0.6l0.4,45.9C-207.7,436.7-208,437-208.3,437L-208.3,437z M-213,435.8l4,0l-0.3-44.6l-4,0L-213,435.8z"/>
	<path id="Fill-2242" fill="#BBE1A5" d="M-208.6,401.8l-5.2,0c-0.2,0-0.4-0.2-0.4-0.4c0-0.2,0.2-0.4,0.4-0.4l5.2,0
		c0.2,0,0.4,0.2,0.4,0.4C-208.2,401.6-208.4,401.8-208.6,401.8"/>
	<path id="Fill-2244" fill="#BBE1A5" d="M-209.5,391c-0.2,0-0.4-0.2-0.4-0.4l0-1.8l-2.9,0l0,1.8c0,0.2-0.2,0.4-0.4,0.4
		c-0.2,0-0.4-0.2-0.4-0.4l0-2.2c0-0.2,0.2-0.4,0.4-0.4l3.7,0c0.2,0,0.4,0.2,0.4,0.4l0,2.2C-209.1,390.8-209.2,391-209.5,391"/>
	<path id="Fill-2245" fill="#BBE1A5" d="M-212.1,422.3c-0.1,0-0.2-0.1-0.2-0.2l-0.1-19.2c0-0.1,0.1-0.2,0.2-0.2
		c0.1,0,0.2,0.1,0.2,0.2l0.1,19.2C-211.9,422.2-212,422.3-212.1,422.3"/>
	<path id="Fill-2249" fill="#BBE1A5" d="M-212.2,398.1c-0.1,0-0.2-0.1-0.2-0.2l0-5.5c0-0.1,0.1-0.2,0.2-0.2c0.1,0,0.2,0.1,0.2,0.2
		l0,5.5C-212,398-212.1,398.1-212.2,398.1"/>
	<path id="Fill-2250" fill="#BBE1A5" d="M-212.2,399.8c-0.1,0-0.2-0.1-0.2-0.2l0-0.6c0-0.1,0.1-0.2,0.2-0.2c0.1,0,0.2,0.1,0.2,0.2
		l0,0.6C-212,399.6-212.2,399.8-212.2,399.8"/>
	<path id="Fill-2251" fill="#BBE1A5" d="M-217.8,437.1l-5.2,0c-0.3,0-0.6-0.3-0.6-0.6l-0.4-45.9c0-0.3,0.3-0.6,0.6-0.6l5.2,0
		c0.3,0,0.6,0.3,0.6,0.6l0.4,45.9C-217.3,436.9-217.5,437.1-217.8,437.1L-217.8,437.1z M-222.5,435.9l4,0l-0.3-44.6l-4,0
		L-222.5,435.9z"/>
	<path id="Fill-2253" fill="#BBE1A5" d="M-218.1,401.8l-5.2,0c-0.2,0-0.4-0.2-0.4-0.4c0-0.2,0.2-0.4,0.4-0.4l5.2,0
		c0.2,0,0.4,0.2,0.4,0.4C-217.7,401.7-217.9,401.9-218.1,401.8"/>
	<path id="Fill-2255" fill="#BBE1A5" d="M-218.9,391c-0.2,0-0.4-0.2-0.4-0.4l0-1.8l-2.9,0l0,1.8c0,0.2-0.2,0.4-0.4,0.4
		c-0.2,0-0.4-0.2-0.4-0.4l0-2.2c0-0.2,0.2-0.4,0.4-0.4l3.7,0c0.2,0,0.4,0.2,0.4,0.4l0,2.2C-218.6,390.8-218.8,391-218.9,391"/>
	<path id="Fill-2256" fill="#BBE1A5" d="M-221.6,422.4c-0.1,0-0.2-0.1-0.2-0.2l-0.1-19.2c0-0.1,0.1-0.2,0.2-0.2
		c0.1,0,0.2,0.1,0.2,0.2l0.1,19.2C-221.3,422.3-221.4,422.3-221.6,422.4"/>
	<path id="Fill-2260" fill="#BBE1A5" d="M-221.8,398.2c-0.1,0-0.2-0.1-0.2-0.2l0-5.5c0-0.1,0.1-0.2,0.2-0.2c0.1,0,0.2,0.1,0.2,0.2
		l0,5.5C-221.5,398.1-221.6,398.2-221.8,398.2"/>
	<path id="Fill-2261" fill="#BBE1A5" d="M-221.7,399.8c-0.1,0-0.2-0.1-0.2-0.2l0-0.6c0-0.1,0.1-0.2,0.2-0.2c0.1,0,0.2,0.1,0.2,0.2
		l0,0.6C-221.5,399.7-221.6,399.8-221.7,399.8"/>
	<path id="Fill-2262" fill="#BBE1A5" d="M-217.8,437.1l-5.2,0c-0.3,0-0.6-0.3-0.6-0.6l-0.4-45.9c0-0.3,0.3-0.6,0.6-0.6l5.2,0
		c0.3,0,0.6,0.3,0.6,0.6l0.4,45.9C-217.3,436.9-217.5,437.1-217.8,437.1L-217.8,437.1z M-222.5,435.9l4,0l-0.3-44.6l-4,0
		L-222.5,435.9z"/>
	<path id="Fill-2264" fill="#BBE1A5" d="M-218.1,401.8l-5.2,0c-0.2,0-0.4-0.2-0.4-0.4c0-0.2,0.2-0.4,0.4-0.4l5.2,0
		c0.2,0,0.4,0.2,0.4,0.4C-217.7,401.7-217.9,401.9-218.1,401.8"/>
	<path id="Fill-2266" fill="#BBE1A5" d="M-218.9,391c-0.2,0-0.4-0.2-0.4-0.4l0-1.8l-2.9,0l0,1.8c0,0.2-0.2,0.4-0.4,0.4
		c-0.2,0-0.4-0.2-0.4-0.4l0-2.2c0-0.2,0.2-0.4,0.4-0.4l3.7,0c0.2,0,0.4,0.2,0.4,0.4l0,2.2C-218.6,390.8-218.8,391-218.9,391"/>
	<path id="Fill-2267" fill="#BBE1A5" d="M-221.6,422.4c-0.1,0-0.2-0.1-0.2-0.2l-0.1-19.2c0-0.1,0.1-0.2,0.2-0.2
		c0.1,0,0.2,0.1,0.2,0.2l0.1,19.2C-221.3,422.3-221.4,422.3-221.6,422.4"/>
	<path id="Fill-2271" fill="#BBE1A5" d="M-221.8,398.2c-0.1,0-0.2-0.1-0.2-0.2l0-5.5c0-0.1,0.1-0.2,0.2-0.2c0.1,0,0.2,0.1,0.2,0.2
		l0,5.5C-221.5,398.1-221.6,398.2-221.8,398.2"/>
	<path id="Fill-2272" fill="#BBE1A5" d="M-221.7,399.8c-0.1,0-0.2-0.1-0.2-0.2l0-0.6c0-0.1,0.1-0.2,0.2-0.2c0.1,0,0.2,0.1,0.2,0.2
		l0,0.6C-221.5,399.7-221.6,399.8-221.7,399.8"/>
</g>
<g>
	<path id="Fill-2347" fill="#BBE1A5" d="M-268.5,403.8c-3.3,0.1-6.6-0.7-9.8-2.1c-9.8-4.6-15.1-16.2-12.1-27
		c0.1-0.4,0.5-0.5,0.8-0.4c0.4,0.1,0.5,0.5,0.4,0.8c-2.8,10.2,2.1,21.1,11.4,25.5c5.2,2.4,11,2.7,16.4,0.7c5.4-1.9,9.7-5.9,12-11
		c4.9-10.7,0.3-23.4-10.4-28.4c-9.3-4.4-20.8-1.1-26.7,7.5c-0.2,0.3-0.6,0.4-0.8,0.1c-0.3-0.2-0.4-0.6-0.1-0.8
		c6.3-9.1,18.5-12.5,28.3-7.9c11.3,5.3,16.3,18.8,11,30c-2.5,5.5-7.1,9.6-12.8,11.7C-263.4,403.3-265.9,403.7-268.5,403.8"/>
	<path id="Fill-2348" fill="#BBE1A5" d="M-268.6,395.9L-268.6,395.9c-2.2,0-4.4-0.4-6.4-1.4c-7.4-3.5-10.6-12.2-7.2-19.6
		c2.4-5.1,7.6-8.5,13.3-8.5c2.2,0,4.4,0.4,6.4,1.4c3.6,1.7,6.3,4.6,7.7,8.4c1.4,3.7,1.2,7.7-0.5,11.3
		C-257.7,392.5-263,395.8-268.6,395.9L-268.6,395.9z M-268.9,367.6c-5.2,0-10,3.1-12.2,7.8c-3.1,6.8-0.1,14.8,6.6,18
		c1.8,0.9,3.8,1.3,5.8,1.2c5.2,0,10-3.1,12.2-7.8c1.5-3.2,1.7-7,0.4-10.3c-1.2-3.4-3.7-6.1-7-7.6
		C-264.9,368-266.9,367.6-268.9,367.6L-268.9,367.6z"/>
	<path id="Fill-2349" fill="#BBE1A5" d="M-268.6,392.8L-268.6,392.8c-1.8,0-3.4-0.4-5-1.1c-2.8-1.3-5-3.7-6-6.6
		c-1-3-0.9-6.1,0.4-8.9c1.9-4.1,6-6.7,10.5-6.7c1.8,0,3.4,0.4,5,1.1c5.8,2.7,8.4,9.7,5.7,15.6C-260.1,390.1-264.1,392.7-268.6,392.8
		L-268.6,392.8z M-268.8,370.3c-4.2,0-8,2.5-9.7,6.2c-1.2,2.6-1.3,5.5-0.4,8.3c1,2.7,3,4.9,5.6,6.2c1.5,0.7,3,1.1,4.7,1
		c4.2,0,8-2.5,9.7-6.2c2.5-5.4,0.2-11.9-5.3-14.4C-265.6,370.6-267.2,370.3-268.8,370.3L-268.8,370.3z"/>
	<path id="Fill-2350" fill="#BBE1A5" d="M-277,378L-277,378c-0.1,0-0.3-0.2-0.2-0.3c1.1-2.3,3.1-4.1,5.5-5c2.4-0.9,5.1-0.8,7.4,0.3
		c0.1,0,0.2,0.2,0.1,0.3c0,0.1-0.2,0.2-0.3,0.1c-2.2-1.1-4.8-1.2-7.1-0.3c-2.3,0.8-4.2,2.6-5.3,4.8C-276.9,377.9-277,378-277,378"/>
	<path id="Fill-2351" fill="#BBE1A5" d="M-277.4,379.4c0,0.1-0.2,0.2-0.4,0.1c-0.1,0-0.2-0.2-0.1-0.4c0-0.1,0.2-0.2,0.4-0.1
		C-277.4,379.1-277.3,379.3-277.4,379.4"/>
	<path id="Fill-2352" fill="#BBE1A5" d="M-282.5,378.1c-0.1,0-0.1,0-0.1,0l-7-3.3c-1.5-0.7-2.2-2.3-1.6-3.6l0.5-1.1
		c0.6-1.3,2.3-1.8,3.8-1.1l7,3.3c0.2,0.1,0.3,0.3,0.2,0.6s-0.3,0.3-0.6,0.2l-7-3.3c-1.1-0.5-2.3-0.2-2.7,0.6l-0.5,1.1
		c-0.4,0.8,0.1,2,1.2,2.5l7,3.3c0.2,0.1,0.3,0.3,0.2,0.6C-282.3,378-282.4,378.2-282.5,378.1"/>
</g>
<g>
	<path id="Fill-2353" fill="#BBE1A5" d="M-123.9,489L-123.9,489c-0.6,0-1.1-0.1-1.7-0.2l-8.6-2.3c-1.8,1.5-4.1,2.3-6.5,2.3
		c-3.6,0-7.1-1.9-9-4.9c-0.1,0-0.2,0-0.2,0l-1.3,0c-1.5,0-2.8-1.2-2.9-2.8l0-5.4c0-1.5,1.2-2.8,2.8-2.9l1.3,0c0.1,0,0.1,0,0.2,0
		c0.3-0.5,0.7-1.1,1.2-1.6l-0.2-17.7c-0.4-0.4-0.8-1-1.1-1.5c-0.1,0-0.2,0-0.2,0l-1.3,0c-1.5,0-2.8-1.2-2.9-2.8l0-5.4
		c0-1.5,1.2-2.8,2.8-2.8l1.3,0c0.1,0,0.1,0,0.2,0c1.9-3.1,5.3-5,8.9-5c2.3,0,4.7,0.7,6.5,2.3l8.6-2.4c0.5-0.2,1.1-0.2,1.7-0.2
		c3.2,0,6,2.1,6.8,5.2c0.4,1.8,0.2,3.7-0.8,5.3s-2.5,2.7-4.2,3.2l-5.7,1.8c0.5,0.9,0.8,1.8,0.8,2.9c0,2.8-2.1,5.1-4.8,5.5l0,6.4
		c2.7,0.3,4.8,2.6,4.9,5.4c0,0.7-0.1,1.4-0.4,2.1l6.4,1.7c1.8,0.5,3.1,1.6,3.8,3.2c0.6,1.5,0.8,3.4,0.3,5.2
		C-117.9,486.8-120.6,489-123.9,489L-123.9,489z M-134.3,485.2c0.1,0,0.1,0,0.1,0l8.9,2.4c0.4,0.1,0.9,0.2,1.3,0.2
		c2.6,0,4.9-1.8,5.5-4.4c0.4-1.6,0.3-3.2-0.2-4.4c-0.6-1.3-1.6-2.2-2.9-2.5l-7.1-1.9c-0.2-0.1-0.3-0.2-0.4-0.4c-0.1-0.2,0-0.4,0-0.6
		c0.4-0.7,0.6-1.4,0.6-2.2c0-2.3-1.9-4.2-4.2-4.1c-0.3,0-0.6-0.3-0.6-0.6l-0.1-7.6c0-0.3,0.3-0.6,0.6-0.6c2.3,0,4.2-2,4.1-4.2
		c0-1-0.4-2-1.1-2.8c-0.1-0.1-0.2-0.4-0.1-0.6c0.1-0.2,0.2-0.3,0.4-0.4l6.6-2.1c1.5-0.4,2.8-1.3,3.5-2.6c0.8-1.3,1-2.8,0.6-4.3
		c-0.7-2.5-3-4.3-5.5-4.3c-0.5,0-0.9,0.1-1.3,0.2l-8.8,2.5c-0.2,0-0.4,0-0.6-0.1c-1.7-1.4-3.8-2.2-5.9-2.2c-3.3,0.1-6.4,1.9-8,4.8
		c-0.2,0.3-0.4,0.4-0.7,0.3c-0.1,0-0.2-0.1-0.4,0l-1.3,0c-0.9,0-1.6,0.7-1.5,1.6l0,5.4c0,0.9,0.7,1.5,1.6,1.5l1.3,0
		c0.1,0,0.2,0,0.3-0.1c0.3-0.1,0.5,0.1,0.7,0.3c0.4,0.7,0.8,1.3,1.4,1.8c0.1,0.1,0.2,0.3,0.2,0.5l0.2,18.2c0,0.2-0.1,0.3-0.1,0.4
		c-0.6,0.6-1,1.2-1.4,1.9c-0.2,0.3-0.4,0.4-0.7,0.3c-0.1,0-0.2-0.1-0.4,0l-1.3,0c-0.9,0-1.5,0.7-1.5,1.6l0,5.4
		c0,0.9,0.7,1.5,1.6,1.5l1.3,0c0.1,0,0.2,0,0.3-0.1c0.3-0.1,0.5,0.1,0.7,0.3c1.6,2.9,4.8,4.7,8.1,4.6c2.2,0,4.2-0.8,6-2.2
		C-134.6,485.3-134.4,485.2-134.3,485.2L-134.3,485.2z"/>
	<path id="Fill-2354" fill="#BBE1A5" d="M-133.4,475.1c-1.8,0-3.4-1.5-3.4-3.3c0-1.8,1.5-3.4,3.3-3.4c1.8,0,3.4,1.5,3.4,3.3
		C-130,473.6-131.5,475.1-133.4,475.1L-133.4,475.1z M-133.4,469.2c-1.4,0-2.6,1.2-2.5,2.6c0,1.4,1.2,2.6,2.6,2.5
		c1.4,0,2.6-1.2,2.5-2.6C-130.9,470.4-132.1,469.2-133.4,469.2L-133.4,469.2z"/>
	<path id="Fill-2355" fill="#BBE1A5" d="M-133.5,457.5c-1.8,0-3.4-1.5-3.4-3.3c0-1.8,1.5-3.4,3.3-3.4c1.8,0,3.4,1.5,3.4,3.3
		C-130.2,455.9-131.7,457.5-133.5,457.5L-133.5,457.5z M-133.6,451.5c-1.4,0-2.6,1.2-2.5,2.6c0,1.4,1.2,2.6,2.6,2.5
		c1.4,0,2.6-1.2,2.5-2.6S-132.1,451.5-133.6,451.5L-133.6,451.5z"/>
	<path id="Fill-2356" fill="#BBE1A5" d="M-131.8,454.2c-0.1,0-0.2-0.1-0.2-0.2c0-0.9-0.7-1.6-1.6-1.5c-0.1,0-0.2-0.1-0.2-0.2
		c0-0.1,0.1-0.2,0.2-0.2c1.1,0,2,0.8,2,2C-131.6,454.1-131.7,454.3-131.8,454.2"/>
	<path id="Fill-2357" fill="#BBE1A5" d="M-131.7,472c-0.1,0-0.2-0.1-0.2-0.2c0-0.9-0.7-1.6-1.6-1.5c-0.1,0-0.2-0.1-0.2-0.2
		c0-0.1,0.1-0.2,0.2-0.2c1.1,0,2,0.9,2,2C-131.5,471.9-131.5,471.9-131.7,472"/>
	<path id="Fill-2360" fill="#BBE1A5" d="M-136.5,464.7c-0.9,0.1-1.7-0.7-1.7-1.6c-0.1-0.9,0.7-1.7,1.6-1.7c0.9-0.1,1.7,0.7,1.7,1.6
		C-134.8,463.9-135.5,464.7-136.5,464.7L-136.5,464.7z M-136.5,461.8c-0.7,0-1.2,0.6-1.2,1.2c0,0.7,0.6,1.2,1.2,1.2
		c0.7,0,1.2-0.6,1.2-1.2C-135.2,462.3-135.8,461.8-136.5,461.8L-136.5,461.8z"/>
	<path id="Fill-2361" fill="#BBE1A5" d="M-135.8,463.2c-0.1,0-0.2-0.1-0.2-0.2c0-0.2-0.2-0.5-0.5-0.5c-0.1,0-0.2-0.1-0.2-0.2
		c0-0.1,0.1-0.2,0.2-0.2c0.5,0,0.9,0.4,0.9,0.9C-135.5,463.1-135.6,463.2-135.8,463.2"/>
	<path id="Fill-2362" fill="#BBE1A5" d="M-145.2,447.7c-0.9,0.1-1.7-0.7-1.7-1.6c-0.1-0.9,0.7-1.7,1.6-1.7c0.9-0.1,1.7,0.7,1.7,1.6
		C-143.5,446.9-144.3,447.6-145.2,447.7L-145.2,447.7z M-145.2,444.7c-0.7,0-1.2,0.6-1.2,1.2c0,0.7,0.6,1.2,1.2,1.2
		c0.7,0,1.2-0.6,1.2-1.2C-144,445.3-144.6,444.7-145.2,444.7L-145.2,444.7z"/>
	<path id="Fill-2363" fill="#BBE1A5" d="M-138,447.6c-0.9,0.1-1.7-0.7-1.7-1.6c-0.1-0.9,0.7-1.7,1.6-1.7c0.9-0.1,1.7,0.7,1.7,1.6
		C-136.4,446.9-137.1,447.6-138,447.6L-138,447.6z M-138.1,444.7c-0.7,0-1.2,0.6-1.2,1.2c0,0.6,0.6,1.2,1.2,1.2
		c0.7,0,1.2-0.6,1.2-1.2C-136.8,445.2-137.3,444.7-138.1,444.7L-138.1,444.7z"/>
	<path id="Fill-2364" fill="#BBE1A5" d="M-141.6,444.1c-0.9,0.1-1.7-0.7-1.7-1.6c-0.1-0.9,0.7-1.7,1.6-1.7s1.7,0.7,1.7,1.6
		C-140,443.3-140.7,444-141.6,444.1L-141.6,444.1z M-141.7,441.2c-0.7,0-1.2,0.6-1.2,1.2c0,0.7,0.6,1.2,1.2,1.2
		c0.7,0,1.2-0.6,1.2-1.2C-140.5,441.7-141,441.2-141.7,441.2L-141.7,441.2z"/>
	<path id="Fill-2365" fill="#BBE1A5" d="M-141.6,451.4c-0.9,0.1-1.7-0.7-1.7-1.6c-0.1-0.9,0.7-1.7,1.6-1.7c0.9,0,1.7,0.7,1.7,1.6
		C-140,450.6-140.7,451.3-141.6,451.4L-141.6,451.4z M-141.6,448.4c-0.7,0-1.2,0.6-1.2,1.2c0,0.7,0.6,1.2,1.2,1.2
		c0.7,0,1.2-0.6,1.2-1.2C-140.4,449-140.9,448.5-141.6,448.4L-141.6,448.4z"/>
	<path id="Fill-2366" fill="#BBE1A5" d="M-143.6,477.1c0.2,0,0.4,0.1,0.5,0.2l0.4,0.5c0.2,0.2,0.2,0.5,0,0.7l-0.4,0.5
		c-0.1,0.1-0.3,0.2-0.5,0.2l-2.3,0c-0.3,0-0.6-0.2-0.6-0.6l0-1c0-0.3,0.2-0.6,0.6-0.6L-143.6,477.1 M-143.6,476.6l-2.3,0
		c-0.6,0-1,0.4-1,1l0,1c0,0.6,0.4,1,1,1l2.3,0c0.3,0,0.6-0.1,0.8-0.4l0.4-0.5c0.3-0.4,0.3-0.9,0-1.3l-0.4-0.5
		C-143,476.8-143.3,476.7-143.6,476.6"/>
	<path id="Fill-2367" fill="#BBE1A5" d="M-136.9,477.1c0.3,0,0.6,0.2,0.6,0.6l0,1c0,0.3-0.2,0.6-0.6,0.6l-2.3,0
		c-0.2,0-0.4-0.1-0.5-0.2l-0.4-0.5c-0.2-0.2-0.2-0.5,0-0.7l0.4-0.5c0.1-0.1,0.3-0.2,0.5-0.2L-136.9,477.1 M-136.8,476.6l-2.3,0
		c-0.3,0-0.6,0.1-0.8,0.4l-0.4,0.5c-0.3,0.4-0.3,0.9,0,1.2l0.4,0.5c0.2,0.2,0.5,0.4,0.8,0.4l2.3,0c0.6,0,1-0.4,1-1l0-1
		C-135.8,477-136.3,476.6-136.8,476.6"/>
	<path id="Fill-2368" fill="#BBE1A5" d="M-140.9,473.1c0.3,0,0.6,0.2,0.6,0.6l0,2.3c0,0.2-0.1,0.4-0.2,0.5l-0.5,0.4
		c-0.1,0.1-0.2,0.1-0.4,0.1c-0.1,0-0.2-0.1-0.4-0.1l-0.5-0.4c-0.1-0.1-0.2-0.3-0.2-0.5l0-2.3c0-0.3,0.2-0.6,0.6-0.6L-140.9,473.1
		 M-140.9,472.6l-1,0c-0.6,0-1,0.4-1,1l0,2.3c0,0.3,0.1,0.6,0.4,0.8l0.5,0.4c0.2,0.1,0.4,0.2,0.7,0.2c0.2,0,0.4-0.1,0.6-0.2l0.5-0.4
		c0.2-0.2,0.4-0.5,0.4-0.8l0-2.3C-139.8,473.1-140.3,472.6-140.9,472.6"/>
	<path id="Fill-2369" fill="#BBE1A5" d="M-141.3,479.4c0.1,0,0.2,0.1,0.4,0.1l0.5,0.4c0.1,0.1,0.2,0.3,0.3,0.5l0,2.3
		c0,0.3-0.2,0.6-0.6,0.6l-1,0c-0.3,0-0.6-0.2-0.6-0.6l0-2.3c0-0.2,0.1-0.4,0.2-0.5l0.5-0.4C-141.6,479.4-141.5,479.4-141.3,479.4
		 M-141.4,479L-141.4,479c-0.2,0-0.4,0.1-0.6,0.2l-0.5,0.4c-0.2,0.2-0.4,0.5-0.4,0.8l0,2.3c0,0.6,0.4,1,1,1l1,0c0.6,0,1-0.4,1-1
		l0-2.3c0-0.3-0.1-0.6-0.4-0.8l-0.5-0.4C-140.9,479.1-141.1,479-141.4,479"/>
	<path id="Fill-2370" fill="#BBE1A5" d="M-142.5,470.3l-5.5,0.1c-0.2,0-0.4-0.2-0.4-0.4c0-0.2,0.2-0.4,0.4-0.4l5.5-0.1
		c0.7,0,1.3-0.6,1.3-1.3l-0.1-11.9c0-0.7-0.6-1.3-1.3-1.3l-5.5,0.1c-0.2,0-0.4-0.2-0.4-0.4c0-0.2,0.2-0.4,0.4-0.4l5.5-0.1
		c1.1,0,2.1,1,2.1,2.1l0.1,11.9C-140.3,469.3-141.3,470.3-142.5,470.3"/>
	<path id="Fill-2372" fill="#BBE1A5" d="M-120.7,478.8L-120.7,478.8l-8.4-2c-0.1,0-0.2-0.1-0.2-0.3s0.1-0.2,0.3-0.2l8.4,2
		c0.1,0,0.2,0.1,0.2,0.3C-120.5,478.7-120.6,478.9-120.7,478.8"/>
	<path id="Fill-2373" fill="#BBE1A5" d="M-134,442c-0.1,0-0.2-0.1-0.2-0.1c-0.1-0.1,0.1-0.2,0.2-0.3l9.3-2.3
		c0.1-0.1,0.2,0.1,0.3,0.2c0.1,0.1-0.1,0.2-0.2,0.3L-134,442L-134,442"/>
</g>
</svg>
