<?xml version="1.0" encoding="utf-8"?>
<!-- Generator: Adobe Illustrator 18.0.0, SVG Export Plug-In . SVG Version: 6.00 Build 0)  -->
<!DOCTYPE svg PUBLIC "-//W3C//DTD SVG 1.1//EN" "http://www.w3.org/Graphics/SVG/1.1/DTD/svg11.dtd">
<svg version="1.1" id="Layer_1" xmlns="http://www.w3.org/2000/svg" xmlns:xlink="http://www.w3.org/1999/xlink" x="0px" y="0px"
	 viewBox="0 0 960 560" style="enable-background:new 0 0 960 560;" xml:space="preserve">
<style type="text/css">
	.st0{fill:#1E87DA;}
	.st1{fill:#0C73BA;}
	.st2{opacity:0.49;fill:#064060;}
	.st3{fill:#FFFFFF;}
</style>
<circle id="XMLID_191_" class="st0" cx="191.1" cy="273" r="156.4"/>
<path id="XMLID_67_" class="st1" d="M34.7,270.7c0-86.4,70-156.4,156.4-156.4s156.4,70,156.4,156.4H34.7z"/>
<circle id="XMLID_73_" class="st2" cx="198.7" cy="193.2" r="32"/>
<circle id="XMLID_190_" class="st3" cx="191.5" cy="190.8" r="31.5"/>
<circle id="XMLID_72_" class="st2" cx="198.7" cy="293.2" r="67.9"/>
<circle id="XMLID_189_" class="st3" cx="191" cy="290.3" r="63"/>
<rect id="XMLID_188_" x="369.9" y="160.8" class="st3" width="556.6" height="3.2"/>
<rect id="XMLID_187_" x="369.9" y="382" class="st3" width="556.6" height="3.2"/>
<g id="XMLID_66_">
	<path id="XMLID_59_" class="st1" d="M404,299.7l-32.9-110.7h27.2l19.9,75.5l19.9-75.5h24.8L430,299.7v54.9h-26V299.7z"/>
	<path id="XMLID_57_" class="st1" d="M476.4,214v-25.1h25.1v22.5l-11.4,26.3h-10.6l6.9-23.7H476.4z"/>
	<path id="XMLID_55_" class="st1" d="M540.8,258.8h35.7v23.7h-35.7v48.5h45v23.7h-71V188.9h71v23.7h-45V258.8z"/>
	<path id="XMLID_47_" class="st1" d="M610.8,188.9h26v142h42.8v23.7h-68.9V188.9z"/>
	<path id="XMLID_45_" class="st1" d="M704.6,188.9h26v142h42.8v23.7h-68.9V188.9z"/>
	<path id="XMLID_42_" class="st1" d="M792.7,228.7c0-26.5,14-41.6,39.5-41.6c25.6,0,39.5,15.1,39.5,41.6v86.1
		c0,26.5-14,41.6-39.5,41.6c-25.6,0-39.5-15.1-39.5-41.6V228.7z M818.8,316.5c0,11.8,5.2,16.3,13.5,16.3s13.5-4.5,13.5-16.3V227
		c0-11.8-5.2-16.3-13.5-16.3s-13.5,4.5-13.5,16.3V316.5z"/>
	<path id="XMLID_21_" class="st1" d="M903.7,317.9l-3.3-59.9v-69.1h26V258l-3.3,59.9H903.7z M926,329.5v25.1h-25.1v-25.1H926z"/>
</g>
</svg>
