<?xml version="1.0" encoding="UTF-8" standalone="no"?>
<svg width="103px" height="37px" viewBox="0 0 103 37" version="1.1" xmlns="http://www.w3.org/2000/svg" xmlns:xlink="http://www.w3.org/1999/xlink" xmlns:sketch="http://www.bohemiancoding.com/sketch/ns">
    <!-- Generator: Sketch 3.3.3 (12081) - http://www.bohemiancoding.com/sketch -->
    <title>cable</title>
    <desc>Created with Sketch.</desc>
    <defs></defs>
    <g id="Page-1" stroke="none" stroke-width="1" fill="none" fill-rule="evenodd" sketch:type="MSPage">
        <g id="cable" sketch:type="MSLayerGroup" fill="#FFFFFF">
            <path d="M96.0276923,36.3666667 L87.4707692,36.3666667 C86.2030769,36.3666667 85.0938462,35.2583333 85.0938462,33.9916667 L84.9353846,14.2 C84.9353846,12.9333333 86.0446154,11.825 87.3123077,11.825 L95.8692308,11.825 C97.1369231,11.825 98.2461538,12.9333333 98.2461538,14.2 L98.4046154,33.9916667 C98.4046154,35.2583333 97.4538462,36.3666667 96.0276923,36.3666667 L96.0276923,36.3666667 L96.0276923,36.3666667 Z M87.4707692,14.0416667 C87.3123077,14.0416667 87.1538462,14.2 87.1538462,14.3583333 L87.3123077,34.15 C87.3123077,34.3083333 87.4707692,34.4666667 87.6292308,34.4666667 L96.1861538,34.4666667 C96.3446154,34.4666667 96.5030769,34.3083333 96.5030769,34.15 L96.3446154,14.3583333 C96.3446154,14.2 96.1861538,14.0416667 96.0276923,14.0416667 L87.4707692,14.0416667 L87.4707692,14.0416667 Z" id="Fill-1066" sketch:type="MSShapeGroup"></path>
            <path d="M101.890769,32.5666667 L98.0876923,32.5666667 C97.7707692,32.5666667 97.4538462,32.25 97.4538462,31.9333333 C97.4538462,31.6166667 97.7707692,31.3 98.0876923,31.3 L101.256923,31.3 L101.098462,17.2083333 L97.9292308,17.2083333 C97.6123077,17.2083333 97.2953846,16.8916667 97.2953846,16.575 C97.2953846,16.2583333 97.6123077,15.9416667 97.9292308,15.9416667 L101.732308,15.9416667 C102.049231,15.9416667 102.366154,16.2583333 102.366154,16.575 L102.524615,32.0916667 C102.683077,32.25 102.366154,32.5666667 101.890769,32.5666667" id="Fill-1067" sketch:type="MSShapeGroup"></path>
            <path d="M85.8861538,23.8583333 L28.9984615,24.3333333 C26.1461538,24.3333333 23.7692308,22.1166667 23.7692308,19.2666667 L23.7692308,18.7916667 C23.7692308,15.9416667 25.9876923,13.5666667 28.84,13.5666667 L73.0507692,13.25 C75.1107692,13.25 76.8538462,11.6666667 76.8538462,9.45 C76.8538462,7.39166667 75.2692308,5.65 73.0507692,5.65 L18.54,6.125 C18.2230769,6.125 17.9061538,5.80833333 17.9061538,5.49166667 C17.9061538,5.175 18.2230769,4.85833333 18.54,4.85833333 L73.0507692,4.38333333 C75.9030769,4.38333333 78.28,6.6 78.1215385,9.45 C78.1215385,12.3 75.9030769,14.675 73.0507692,14.675 L28.84,14.9916667 C26.78,14.9916667 25.0369231,16.575 25.0369231,18.7916667 L25.0369231,19.2666667 C25.0369231,21.325 26.6215385,23.0666667 28.84,23.0666667 L85.7276923,22.5916667 C86.0446154,22.5916667 86.3615385,22.9083333 86.3615385,23.225 C86.52,23.5416667 86.2030769,23.8583333 85.8861538,23.8583333" id="Fill-1068" sketch:type="MSShapeGroup"></path>
            <path d="M18.6984615,10.5583333 L5.38769231,10.7166667 C4.91230769,10.7166667 4.43692308,10.2416667 4.43692308,9.76666667 L4.43692308,1.375 C4.43692308,0.9 4.91230769,0.425 5.38769231,0.425 L18.6984615,0.266666667 C19.1738462,0.266666667 19.6492308,0.741666667 19.6492308,1.21666667 L19.6492308,9.60833333 C19.8076923,10.0833333 19.3323077,10.5583333 18.6984615,10.5583333 L18.6984615,10.5583333 L18.6984615,10.5583333 Z M6.33846154,8.65833333 L17.7476923,8.65833333 L17.7476923,2.325 L6.33846154,2.325 L6.33846154,8.65833333 L6.33846154,8.65833333 Z" id="Fill-1069" sketch:type="MSShapeGroup"></path>
            <path d="M4.75384615,8.5 L0.950769231,8.5 C0.633846154,8.5 0.316923077,8.18333333 0.316923077,7.86666667 L0.316923077,3.275 C0.316923077,2.95833333 0.633846154,2.64166667 0.950769231,2.64166667 L4.75384615,2.64166667 C5.07076923,2.64166667 5.38769231,2.95833333 5.38769231,3.275 C5.38769231,3.59166667 5.07076923,3.90833333 4.75384615,3.90833333 L1.58461538,3.90833333 L1.58461538,7.23333333 L4.75384615,7.23333333 C5.07076923,7.23333333 5.38769231,7.55 5.38769231,7.86666667 C5.54615385,8.18333333 5.22923077,8.5 4.75384615,8.5" id="Fill-1070" sketch:type="MSShapeGroup"></path>
            <path d="M14.42,6.91666667 L7.76461538,6.91666667 C7.60615385,6.91666667 7.44769231,6.75833333 7.44769231,6.6 C7.44769231,6.44166667 7.60615385,6.28333333 7.76461538,6.28333333 L14.42,6.28333333 C14.5784615,6.28333333 14.7369231,6.44166667 14.7369231,6.6 C14.7369231,6.75833333 14.5784615,7.075 14.42,6.91666667" id="Fill-1071" sketch:type="MSShapeGroup"></path>
            <path d="M16.48,7.075 L15.8461538,7.075 C15.6876923,7.075 15.5292308,6.91666667 15.5292308,6.75833333 C15.5292308,6.6 15.6876923,6.44166667 15.8461538,6.44166667 L16.48,6.44166667 C16.6384615,6.44166667 16.7969231,6.6 16.7969231,6.75833333 C16.7969231,6.75833333 16.6384615,7.075 16.48,7.075" id="Fill-1072" sketch:type="MSShapeGroup"></path>
            <path d="M94.9184615,33.0416667 L88.7384615,33.2 C88.58,33.2 88.4215385,33.0416667 88.4215385,32.8833333 C88.4215385,32.725 88.58,32.5666667 88.7384615,32.5666667 L94.9184615,32.4083333 C95.0769231,32.4083333 95.2353846,32.5666667 95.2353846,32.725 C95.2353846,32.8833333 95.0769231,33.0416667 94.9184615,33.0416667" id="Fill-1073" sketch:type="MSShapeGroup"></path>
        </g>
    </g>
</svg>