<?xml version="1.0" encoding="UTF-8" standalone="no"?>
<svg width="47px" height="39px" viewBox="0 0 47 39" version="1.1" xmlns="http://www.w3.org/2000/svg" xmlns:xlink="http://www.w3.org/1999/xlink" xmlns:sketch="http://www.bohemiancoding.com/sketch/ns">
    <!-- Generator: Sketch 3.3.3 (12081) - http://www.bohemiancoding.com/sketch -->
    <title>camera</title>
    <desc>Created with Sketch.</desc>
    <defs></defs>
    <g id="Page-1" stroke="none" stroke-width="1" fill="none" fill-rule="evenodd" sketch:type="MSPage">
        <g id="pattern.yello" sketch:type="MSLayerGroup" transform="translate(-205.000000, -446.000000)" fill="#BBE1A5">
            <g id="camera" transform="translate(205.000000, 446.000000)" sketch:type="MSShapeGroup">
                <path d="M23.5,34.1 C16.7,34.2 11,28.6 11,21.7 C10.9,14.9 16.5,9.2 23.3,9.2 C30.1,9.1 35.8,14.7 35.8,21.6 C35.9,28.4 30.4,34.1 23.5,34.1 L23.5,34.1 L23.5,34.1 Z M23.3,10.5 C17.1,10.5 12.2,15.6 12.2,21.8 C12.2,28 17.3,32.9 23.5,32.9 C29.7,32.9 34.6,27.8 34.6,21.6 C34.6,15.4 29.5,10.5 23.3,10.5 L23.3,10.5 L23.3,10.5 Z" id="Fill-1725"></path>
                <path d="M43,37.8 L4.2,38.1 C2.2,38.1 0.5,36.4 0.6,34.5 L0.4,12 C0.4,10 2,8.3 4,8.4 L11.6,8.3 L13.4,3 C13.9,1.6 15.2,0.6 16.8,0.6 L29.9,0.5 C31.4,0.5 32.8,1.4 33.4,2.9 L35.3,8.2 L42.9,8.1 C44.9,8.1 46.6,9.8 46.5,11.7 L46.7,34.2 C46.6,36.2 45,37.8 43,37.8 L43,37.8 L43,37.8 Z M3.9,9.6 C2.6,9.6 1.5,10.6 1.5,12 L1.7,34.5 C1.7,35.8 2.7,36.9 4.1,36.9 L42.9,36.6 C44.2,36.6 45.3,35.6 45.3,34.2 L45.1,11.7 C45.1,10.4 44.1,9.3 42.7,9.3 L34.7,9.4 C34.5,9.4 34.2,9.2 34.1,9 L32,3.3 C31.7,2.3 30.7,1.7 29.7,1.7 L16.6,1.8 C15.6,1.8 14.7,2.4 14.4,3.4 L12.4,9.1 C12.3,9.3 12.1,9.5 11.8,9.6 L3.9,9.6 L3.9,9.6 Z" id="Fill-1726"></path>
                <path d="M12.4,17.6 L0.9,17.7 C0.8,17.7 0.7,17.6 0.7,17.5 C0.7,17.4 0.8,17.3 0.9,17.3 L12.4,17.2 C12.5,17.2 12.6,17.3 12.6,17.4 C12.6,17.6 12.5,17.7 12.4,17.6" id="Fill-1727"></path>
                <path d="M46.1,17.4 L34.4,17.5 C34.3,17.5 34.2,17.4 34.2,17.3 C34.2,17.2 34.3,17.1 34.4,17.1 L46.1,17 C46.2,17 46.3,17.1 46.3,17.2 C46.3,17.3 46.1,17.4 46.1,17.4" id="Fill-1728"></path>
                <path d="M45.1,33.3 L1,33.6 C0.9,33.6 0.8,33.5 0.8,33.4 C0.8,33.3 0.9,33.2 1,33.2 L45.1,32.9 C45.2,32.9 45.3,33 45.3,33.1 C45.3,33.2 45.2,33.3 45.1,33.3" id="Fill-1729"></path>
                <path d="M23.5,30.6 C18.6,30.7 14.6,26.7 14.6,21.8 C14.5,16.9 18.5,12.9 23.4,12.9 C28.3,12.9 32.3,16.8 32.3,21.7 C32.3,26.5 28.4,30.5 23.5,30.6 L23.5,30.6 L23.5,30.6 Z M23.3,13.6 C18.9,13.6 15.3,17.2 15.4,21.7 C15.4,26.1 19,29.7 23.5,29.6 C28,29.5 31.5,26 31.4,21.5 C31.4,17.1 27.8,13.6 23.3,13.6 L23.3,13.6 L23.3,13.6 Z" id="Fill-1732"></path>
                <path d="M29.4,20.4 C29.4,20.6 29.2,20.7 29,20.8 C28.8,20.8 28.7,20.6 28.6,20.4 C28.6,20.2 28.8,20.1 29,20 C29.2,20 29.4,20.2 29.4,20.4" id="Fill-1733"></path>
                <path d="M10.6,8.7 L9.8,8.7 L9.8,7.1 C9.8,6.3 9.2,5.7 8.4,5.7 L5.6,5.7 C4.8,5.7 4.2,6.3 4.2,7.1 L4.2,8.7 L3.4,8.7 L3.4,7.1 C3.4,5.8 4.4,4.8 5.7,4.8 L8.5,4.8 C9.8,4.8 10.8,5.8 10.8,7.1 L10.6,8.7" id="Fill-1734"></path>
                <path id="Fill-1735" d="M5.3,5.3 L5.7,5.3 L5.7,8.9 L5.3,8.9 L5.3,5.3 L5.3,5.3 Z"></path>
                <path id="Fill-1736" d="M6.7,5.5 L7.1,5.5 L7.1,8.9 L6.7,8.9 L6.7,5.5 L6.7,5.5 Z"></path>
                <path id="Fill-1737" d="M8.1,5.3 L8.5,5.3 L8.5,8.9 L8.1,8.9 L8.1,5.3 L8.1,5.3 Z"></path>
                <path d="M41.8,8.2 L41,8.2 C41,7.3 40.3,6.6 39.4,6.6 C38.5,6.6 37.8,7.3 37.8,8.2 L37,8.2 C37,6.8 38,5.8 39.4,5.8 C40.7,5.8 41.8,6.9 41.8,8.2" id="Fill-1739"></path>
                <path d="M28.3,7.1 L18.2,7.1 C17.6,7.1 17.1,6.6 17,5.9 L17,4.9 C17,4.3 17.5,3.8 18.2,3.7 L28.3,3.7 C28.9,3.7 29.4,4.2 29.5,4.9 L29.5,5.9 C29.4,6.6 29,7.1 28.3,7.1 L28.3,7.1 L28.3,7.1 Z M18.2,4.2 C17.8,4.2 17.5,4.5 17.5,5 L17.5,6 C17.5,6.4 17.8,6.7 18.3,6.7 L28.4,6.7 C28.8,6.7 29.1,6.4 29.1,5.9 L29.1,4.9 C29.1,4.5 28.8,4.2 28.3,4.2 L18.2,4.2 L18.2,4.2 Z" id="Fill-1740"></path>
                <path d="M42.4,15.4 L37.4,15.4 C37,15.4 36.7,15.1 36.7,14.7 L36.7,12.1 C36.7,11.7 37,11.4 37.4,11.4 L42.4,11.4 C42.8,11.4 43.1,11.7 43.1,12.1 L43.1,14.7 C43.1,15.1 42.8,15.4 42.4,15.4 L42.4,15.4 L42.4,15.4 Z M37.4,11.8 C37.2,11.8 37.1,12 37.2,12.1 L37.2,14.7 C37.2,14.9 37.4,15 37.5,14.9 L42.5,14.9 C42.7,14.9 42.8,14.8 42.7,14.6 L42.7,12 C42.7,11.8 42.5,11.7 42.4,11.8 L37.4,11.8 L37.4,11.8 Z" id="Fill-1741"></path>
                <path d="M23.5,27.4 C23.4,27.4 23.3,27.3 23.3,27.2 C23.3,27.1 23.4,27 23.5,27 C26.5,27 28.8,24.6 28.8,21.6 C28.8,21.5 28.9,21.4 29,21.4 C29.1,21.4 29.2,21.5 29.2,21.6 C29.2,24.8 26.7,27.4 23.5,27.4" id="Fill-1742"></path>
            </g>
        </g>
    </g>
</svg>