<?xml version="1.0" encoding="UTF-8" standalone="no"?>
<svg width="63px" height="62px" viewBox="0 0 63 62" version="1.1" xmlns="http://www.w3.org/2000/svg" xmlns:xlink="http://www.w3.org/1999/xlink" xmlns:sketch="http://www.bohemiancoding.com/sketch/ns">
    <!-- Generator: Sketch 3.3.3 (12081) - http://www.bohemiancoding.com/sketch -->
    <title>coffee</title>
    <desc>Created with Sketch.</desc>
    <defs></defs>
    <g id="Page-1" stroke="none" stroke-width="1" fill="none" fill-rule="evenodd" sketch:type="MSPage">
        <g id="pattern.yello" sketch:type="MSLayerGroup" transform="translate(-53.000000, -421.000000)" fill="#BBE1A5">
            <g id="coffee" transform="translate(53.000000, 420.000000)" sketch:type="MSShapeGroup">
                <path d="M32,62.726087 C27.506383,62.8630435 23.012766,61.7673913 18.6553191,59.85 C5.3106383,53.55 -1.90638298,37.6630435 2.1787234,22.8717391 C2.31489362,22.323913 2.85957447,22.1869565 3.26808511,22.323913 C3.81276596,22.4608696 3.94893617,23.0086957 3.81276596,23.4195652 C-1.63646874e-13,37.3891304 6.67234043,52.3173913 19.3361702,58.3434783 C26.4170213,61.6304348 34.3148936,62.0413043 41.6680851,59.3021739 C49.0212766,56.7 54.8765957,51.2217391 58.0085106,44.2369565 C64.6808511,29.5826087 58.4170213,12.1891304 43.8468085,5.34130435 C31.1829787,-0.684782609 15.5234043,3.83478261 7.4893617,15.6130435 C7.21702128,16.023913 6.67234043,16.1608696 6.4,15.75 C5.99148936,15.476087 5.85531915,14.9282609 6.26382979,14.6543478 C14.8425532,2.19130435 31.4553191,-2.46521739 44.8,3.83478261 C60.187234,11.0934783 66.9957447,29.5826087 59.7787234,44.9217391 C56.3744681,52.4543478 50.1106383,58.0695652 42.3489362,60.9456522 C38.9446809,62.0413043 35.5404255,62.5891304 32,62.726087" id="Fill-2347"></path>
                <path d="M31.8638298,51.9065217 L31.8638298,51.9065217 C28.8680851,51.9065217 25.8723404,51.3586957 23.1489362,49.9891304 C13.0723404,45.1956522 8.71489362,33.2804348 13.3446809,23.1456522 C16.612766,16.1608696 23.693617,11.5043478 31.4553191,11.5043478 C34.4510638,11.5043478 37.4468085,12.0521739 40.1702128,13.4217391 C45.0723404,15.75 48.7489362,19.7217391 50.6553191,24.926087 C52.5617021,29.9934783 52.2893617,35.4717391 49.9744681,40.4021739 C46.706383,47.25 39.4893617,51.7695652 31.8638298,51.9065217 L31.8638298,51.9065217 L31.8638298,51.9065217 Z M31.4553191,13.1478261 C24.3744681,13.1478261 17.8382979,17.3934783 14.8425532,23.8304348 C10.6212766,33.1434783 14.706383,44.1 23.8297872,48.4826087 C26.2808511,49.7152174 29.0042553,50.2630435 31.7276596,50.126087 C38.8085106,50.126087 45.3446809,45.8804348 48.3404255,39.4434783 C50.3829787,35.0608696 50.6553191,29.8565217 48.8851064,25.3369565 C47.2510638,20.6804348 43.8468085,16.9826087 39.3531915,14.9282609 C36.9021277,13.6956522 34.1787234,13.1478261 31.4553191,13.1478261 L31.4553191,13.1478261 L31.4553191,13.1478261 Z" id="Fill-2348"></path>
                <path d="M31.8638298,47.6608696 L31.8638298,47.6608696 C29.412766,47.6608696 27.2340426,47.1130435 25.0553191,46.1543478 C21.2425532,44.373913 18.2468085,41.0869565 16.8851064,37.1152174 C15.5234043,33.0065217 15.6595745,28.7608696 17.4297872,24.926087 C20.0170213,19.3108696 25.6,15.75 31.7276596,15.75 C34.1787234,15.75 36.3574468,16.2978261 38.5361702,17.2565217 C46.4340426,20.9543478 49.9744681,30.5413043 46.2978723,38.6217391 C43.4382979,43.9630435 37.9914894,47.523913 31.8638298,47.6608696 L31.8638298,47.6608696 L31.8638298,47.6608696 Z M31.5914894,16.8456522 C25.8723404,16.8456522 20.6978723,20.2695652 18.3829787,25.3369565 C16.7489362,28.8978261 16.612766,32.8695652 17.8382979,36.7043478 C19.2,40.4021739 21.9234043,43.4152174 25.4638298,45.1956522 C27.506383,46.1543478 29.5489362,46.7021739 31.8638298,46.5652174 C37.5829787,46.5652174 42.7574468,43.1413043 45.0723404,38.073913 C48.4765957,30.6782609 45.3446809,21.776087 37.8553191,18.3521739 C35.9489362,17.2565217 33.7702128,16.8456522 31.5914894,16.8456522 L31.5914894,16.8456522 L31.5914894,16.8456522 Z" id="Fill-2349"></path>
                <path d="M20.4255319,27.3913043 L20.4255319,27.3913043 C20.2893617,27.3913043 20.0170213,27.1173913 20.1531915,26.9804348 C21.6510638,23.8304348 24.3744681,21.3652174 27.6425532,20.1326087 C30.9106383,18.9 34.587234,19.0369565 37.7191489,20.5434783 C37.8553191,20.5434783 37.9914894,20.8173913 37.8553191,20.9543478 C37.8553191,21.0913043 37.5829787,21.2282609 37.4468085,21.0913043 C34.4510638,19.5847826 30.9106383,19.4478261 27.7787234,20.6804348 C24.6468085,21.776087 22.0595745,24.2413043 20.5617021,27.2543478 C20.5617021,27.2543478 20.4255319,27.3913043 20.4255319,27.3913043" id="Fill-2350"></path>
                <path d="M19.8808511,29.3086957 C19.8808511,29.4456522 19.6085106,29.5826087 19.3361702,29.4456522 C19.2,29.4456522 19.0638298,29.1717391 19.2,28.8978261 C19.2,28.7608696 19.4723404,28.623913 19.7446809,28.7608696 C19.8808511,28.8978261 20.0170213,29.1717391 19.8808511,29.3086957" id="Fill-2351"></path>
                <path d="M12.9361702,27.5282609 L12.8,27.5282609 L3.26808511,23.0086957 C1.22553191,22.05 0.272340426,19.8586957 1.0893617,18.0782609 L1.77021277,16.5717391 C2.58723404,14.7913043 4.90212766,14.1065217 6.94468085,15.0652174 L16.4765957,19.5847826 C16.7489362,19.7217391 16.8851064,19.9956522 16.7489362,20.4065217 C16.612766,20.8173913 16.3404255,20.8173913 15.9319149,20.6804348 L6.4,16.1608696 C4.90212766,15.476087 3.26808511,15.8869565 2.72340426,16.9826087 L2.04255319,18.4891304 C1.49787234,19.5847826 2.1787234,21.2282609 3.67659574,21.9130435 L13.2085106,26.4326087 C13.4808511,26.5695652 13.6170213,26.8434783 13.4808511,27.2543478 C13.2085106,27.3913043 13.0723404,27.6652174 12.9361702,27.5282609" id="Fill-2352"></path>
            </g>
        </g>
    </g>
</svg>