<?xml version="1.0" encoding="UTF-8" standalone="no"?>
<svg width="57px" height="90px" viewBox="0 0 57 90" version="1.1" xmlns="http://www.w3.org/2000/svg" xmlns:xlink="http://www.w3.org/1999/xlink" xmlns:sketch="http://www.bohemiancoding.com/sketch/ns">
    <!-- Generator: Sketch 3.3.3 (12081) - http://www.bohemiancoding.com/sketch -->
    <title>game-console</title>
    <desc>Created with Sketch.</desc>
    <defs></defs>
    <g id="Page-1" stroke="none" stroke-width="1" fill="none" fill-rule="evenodd" sketch:type="MSPage">
        <g id="pattern.yello" sketch:type="MSLayerGroup" transform="translate(-50.000000, -225.000000)" fill="#BBE1A5">
            <g id="game-console" transform="translate(50.000000, 225.000000)" sketch:type="MSShapeGroup">
                <path d="M41.4285714,89.3454545 L1.65714286,89.6763636 C1.16,89.6763636 0.662857143,89.18 0.662857143,88.6836364 L0,1.48909091 C0,0.992727273 0.497142857,0.496363636 0.994285714,0.496363636 L55.3485714,0.165454545 C55.8457143,0.165454545 56.3428571,0.661818182 56.3428571,1.15818182 L56.84,73.6272727 C57.0057143,82.0654545 50.2114286,89.18 41.4285714,89.3454545 L41.4285714,89.3454545 L41.4285714,89.3454545 Z M2.81714286,87.5254545 L41.5942857,87.1945455 C49.0514286,87.1945455 55.1828571,81.0727273 55.0171429,73.6272727 L54.3542857,2.15090909 L2.15428571,2.48181818 L2.81714286,87.5254545 L2.81714286,87.5254545 Z" id="Fill-1601"></path>
                <path d="M42.7542857,41.3636364 L7.12571429,41.6945455 C6.79428571,41.6945455 6.46285714,41.3636364 6.46285714,41.0327273 L6.13142857,7.11454545 C6.13142857,6.78363636 6.46285714,6.45272727 6.79428571,6.45272727 L49.0514286,6.12181818 C49.3828571,6.12181818 49.7142857,6.45272727 49.7142857,6.78363636 L49.88,34.0836364 C50.0457143,38.0545455 46.7314286,41.3636364 42.7542857,41.3636364 L42.7542857,41.3636364 L42.7542857,41.3636364 Z M7.78857143,40.2054545 L42.7542857,40.04 C45.9028571,40.04 48.5542857,37.3927273 48.72,34.0836364 L48.5542857,7.44545455 L7.78857143,7.77636364 L7.78857143,40.2054545 L7.78857143,40.2054545 Z" id="Fill-1602"></path>
                <path d="M41.76,37.5581818 L14.4171429,37.7236364 C14.2514286,37.7236364 14.0857143,37.5581818 14.0857143,37.3927273 L13.92,10.0927273 C13.92,9.92727273 14.0857143,9.76181818 14.2514286,9.76181818 L41.5942857,9.59636364 C41.76,9.59636364 41.9257143,9.76181818 41.9257143,9.92727273 L42.0914286,37.2272727 C42.0914286,37.3927273 42.0914286,37.5581818 41.76,37.5581818 L41.76,37.5581818 L41.76,37.5581818 Z M14.9142857,37.0618182 L41.4285714,36.8963636 L41.2628571,10.2581818 L14.7485714,10.4236364 L14.9142857,37.0618182 L14.9142857,37.0618182 Z" id="Fill-1603"></path>
                <path d="M44.2457143,84.7127273 L44.08,84.7127273 L39.1085714,79.7490909 C38.9428571,79.5836364 38.9428571,79.4181818 39.1085714,79.2527273 C39.2742857,79.0872727 39.44,79.0872727 39.6057143,79.2527273 L44.5771429,84.2163636 C44.7428571,84.3818182 44.7428571,84.5472727 44.5771429,84.7127273 L44.2457143,84.7127273" id="Fill-1604"></path>
                <path d="M45.9028571,83.0581818 L45.7371429,83.0581818 L40.7657143,78.0945455 C40.6,77.9290909 40.6,77.7636364 40.7657143,77.5981818 C40.9314286,77.4327273 41.0971429,77.4327273 41.2628571,77.5981818 L46.2342857,82.5618182 C46.4,82.7272727 46.4,82.8927273 46.2342857,83.0581818 C46.0685714,82.8927273 45.9028571,82.8927273 45.9028571,83.0581818" id="Fill-1605"></path>
                <path d="M47.56,81.2381818 L47.3942857,81.2381818 L42.4228571,76.2745455 C42.2571429,76.1090909 42.2571429,75.9436364 42.4228571,75.7781818 C42.5885714,75.6127273 42.7542857,75.6127273 42.92,75.7781818 L47.8914286,80.7418182 C48.0571429,80.9072727 48.0571429,81.0727273 47.8914286,81.2381818 L47.56,81.2381818" id="Fill-1606"></path>
                <path d="M49.3828571,79.4181818 L49.2171429,79.4181818 L44.2457143,74.4545455 C44.08,74.2890909 44.08,74.1236364 44.2457143,73.9581818 C44.4114286,73.7927273 44.5771429,73.7927273 44.7428571,73.9581818 L49.7142857,78.9218182 C49.88,79.0872727 49.88,79.2527273 49.7142857,79.4181818 C49.5485714,79.2527273 49.3828571,79.4181818 49.3828571,79.4181818" id="Fill-1607"></path>
                <path d="M51.04,77.5981818 L50.8742857,77.5981818 L45.9028571,72.6345455 C45.7371429,72.4690909 45.7371429,72.3036364 45.9028571,72.1381818 C46.0685714,71.9727273 46.2342857,71.9727273 46.4,72.1381818 L51.3714286,77.1018182 C51.5371429,77.2672727 51.5371429,77.4327273 51.3714286,77.5981818 C51.2057143,77.5981818 51.2057143,77.7636364 51.04,77.5981818" id="Fill-1608"></path>
                <path d="M52.6971429,75.9436364 L52.5314286,75.9436364 L47.56,70.98 C47.3942857,70.8145455 47.3942857,70.6490909 47.56,70.4836364 C47.7257143,70.3181818 47.8914286,70.3181818 48.0571429,70.4836364 L53.0285714,75.4472727 C53.1942857,75.6127273 53.1942857,75.7781818 53.0285714,75.9436364 C53.0285714,75.9436364 52.8628571,75.7781818 52.6971429,75.9436364" id="Fill-1609"></path>
                <path d="M17.7314286,65.52 L12.5942857,65.6854545 C12.2628571,65.6854545 11.9314286,65.3545455 11.9314286,65.0236364 L11.9314286,60.2254545 L7.12571429,60.2254545 C6.79428571,60.2254545 6.46285714,59.8945455 6.46285714,59.5636364 L6.29714286,54.4345455 C6.29714286,54.1036364 6.62857143,53.7727273 6.96,53.7727273 L11.7657143,53.7727273 L11.7657143,48.9745455 C11.7657143,48.6436364 12.0971429,48.3127273 12.4285714,48.3127273 L17.5657143,48.1472727 C17.8971429,48.1472727 18.2285714,48.4781818 18.2285714,48.8090909 L18.2285714,53.6072727 L23.0342857,53.6072727 C23.3657143,53.6072727 23.6971429,53.9381818 23.6971429,54.2690909 L23.8628571,59.3981818 C23.8628571,59.7290909 23.5314286,60.06 23.2,60.06 L18.3942857,60.06 L18.3942857,64.8581818 C18.56,65.1890909 18.2285714,65.52 17.7314286,65.52 L17.7314286,65.52 L17.7314286,65.52 Z M13.5885714,64.1963636 L17.2342857,64.1963636 L17.2342857,59.3981818 C17.2342857,59.0672727 17.5657143,58.7363636 17.8971429,58.7363636 L22.7028571,58.7363636 L22.7028571,55.0963636 L17.8971429,55.0963636 C17.5657143,55.0963636 17.2342857,54.7654545 17.2342857,54.4345455 L17.2342857,49.6363636 L13.5885714,49.6363636 L13.5885714,54.4345455 C13.5885714,54.7654545 13.2571429,55.0963636 12.9257143,55.0963636 L8.12,55.0963636 L8.12,58.7363636 L12.9257143,58.7363636 C13.2571429,58.7363636 13.5885714,59.0672727 13.5885714,59.3981818 L13.5885714,64.1963636 L13.5885714,64.1963636 Z" id="Fill-1610"></path>
                <path d="M45.24,56.2545455 C44.08,56.2545455 43.0857143,55.9236364 42.2571429,55.0963636 C40.6,53.6072727 40.6,50.96 42.0914286,49.3054545 C43.5828571,47.8163636 46.4,47.6509091 47.8914286,49.14 C49.5485714,50.6290909 49.5485714,53.2763636 48.0571429,54.9309091 C47.3942857,55.9236364 46.2342857,56.42 45.24,56.2545455 L45.24,56.2545455 L45.24,56.2545455 Z M45.0742857,49.4709091 C44.2457143,49.4709091 43.7485714,49.6363636 43.0857143,50.2981818 C41.9257143,51.4563636 41.9257143,53.1109091 43.0857143,54.2690909 C44.08,55.2618182 45.9028571,55.2618182 47.0628571,54.2690909 C48.2228571,53.1109091 48.2228571,51.4563636 47.0628571,50.2981818 C46.5657143,49.6363636 45.9028571,49.3054545 45.0742857,49.4709091 L45.0742857,49.4709091 L45.0742857,49.4709091 Z" id="Fill-1611"></path>
                <path d="M37.4514286,64.1963636 C36.2914286,64.1963636 35.2971429,63.8654545 34.4685714,63.0381818 C32.8114286,61.5490909 32.8114286,58.9018182 34.3028571,57.2472727 C35.7942857,55.7581818 38.6114286,55.5927273 40.1028571,57.0818182 C41.76,58.5709091 41.76,61.2181818 40.2685714,62.8727273 C39.6057143,63.8654545 38.4457143,64.1963636 37.4514286,64.1963636 L37.4514286,64.1963636 L37.4514286,64.1963636 Z M37.2857143,57.2472727 C36.4571429,57.2472727 35.96,57.4127273 35.2971429,58.0745455 C34.1371429,59.2327273 34.1371429,60.8872727 35.2971429,62.0454545 C36.2914286,63.0381818 38.1142857,63.0381818 39.1085714,62.0454545 C40.2685714,60.8872727 40.2685714,59.2327273 39.1085714,58.0745455 C38.7771429,57.5781818 38.1142857,57.2472727 37.2857143,57.2472727 L37.2857143,57.2472727 L37.2857143,57.2472727 Z" id="Fill-1612"></path>
                <path d="M17.7314286,79.4181818 C16.7371429,79.4181818 16.0742857,78.9218182 15.7428571,78.0945455 L15.7428571,77.7636364 C15.2457143,76.7709091 15.9085714,75.4472727 16.9028571,75.1163636 L22.04,73.1309091 C23.0342857,72.8 24.36,73.2963636 24.6914286,74.2890909 L24.6914286,74.62 C25.0228571,75.1163636 24.8571429,75.7781818 24.6914286,76.1090909 C24.36,76.6054545 24.0285714,76.9363636 23.5314286,77.2672727 L18.3942857,79.2527273 C18.2285714,79.4181818 18.0628571,79.4181818 17.7314286,79.4181818 L17.7314286,79.4181818 L17.7314286,79.4181818 Z M22.7028571,74.2890909 C22.5371429,74.2890909 22.5371429,74.4545455 22.3714286,74.2890909 L17.2342857,76.2745455 C16.9028571,76.44 16.7371429,76.7709091 16.9028571,77.2672727 L16.9028571,77.5981818 C17.0685714,77.9290909 17.4,78.0945455 17.8971429,77.9290909 L23.0342857,75.9436364 C23.2,75.7781818 23.3657143,75.7781818 23.3657143,75.4472727 C23.3657143,75.2818182 23.5314286,75.1163636 23.3657143,74.9509091 L23.3657143,74.62 C23.3657143,74.4545455 23.2,74.2890909 22.7028571,74.2890909 L22.7028571,74.2890909 L22.7028571,74.2890909 Z" id="Fill-1613"></path>
                <path d="M28.6685714,79.4181818 C27.6742857,79.4181818 27.0114286,78.9218182 26.68,78.0945455 L26.68,77.7636364 C26.1828571,76.7709091 26.8457143,75.4472727 27.84,75.1163636 L32.9771429,73.1309091 C33.9714286,72.8 35.2971429,73.2963636 35.6285714,74.2890909 L35.6285714,74.62 C35.96,75.1163636 35.7942857,75.7781818 35.6285714,76.1090909 C35.2971429,76.6054545 34.9657143,76.9363636 34.4685714,77.2672727 L29.3314286,79.2527273 C29.1657143,79.2527273 29,79.2527273 28.6685714,79.4181818 L28.6685714,79.4181818 L28.6685714,79.4181818 Z M33.64,74.2890909 C33.4742857,74.2890909 33.4742857,74.4545455 33.3085714,74.2890909 L28.1714286,76.2745455 C27.84,76.44 27.6742857,76.7709091 27.84,77.2672727 L27.84,77.5981818 C28.0057143,77.9290909 28.5028571,78.26 28.8342857,77.9290909 L33.9714286,75.9436364 C34.1371429,75.7781818 34.3028571,75.7781818 34.3028571,75.4472727 C34.3028571,75.2818182 34.4685714,75.1163636 34.3028571,74.9509091 L34.3028571,74.62 C34.3028571,74.4545455 33.9714286,74.1236364 33.64,74.2890909 L33.64,74.2890909 L33.64,74.2890909 Z" id="Fill-1614"></path>
                <path d="M16.4057143,17.8690909 L16.24,17.8690909 C16.0742857,17.7036364 16.0742857,17.5381818 16.24,17.3727273 L21.5428571,12.0781818 C21.7085714,11.9127273 21.8742857,11.9127273 22.04,12.0781818 C22.2057143,12.2436364 22.2057143,12.4090909 22.04,12.5745455 L16.7371429,17.8690909 C16.5714286,17.7036364 16.4057143,17.8690909 16.4057143,17.8690909" id="Fill-1615"></path>
                <path d="M16.4057143,22.6672727 L16.24,22.6672727 C16.0742857,22.5018182 16.0742857,22.3363636 16.24,22.1709091 L26.3485714,11.7472727 C26.5142857,11.5818182 26.68,11.5818182 26.8457143,11.7472727 C27.0114286,11.9127273 27.0114286,12.0781818 26.8457143,12.2436364 L16.4057143,22.6672727 L16.4057143,22.6672727" id="Fill-1616"></path>
                <path d="M16.4057143,27.7963636 L16.24,27.7963636 C16.0742857,27.6309091 16.0742857,27.4654545 16.24,27.3 L31.32,11.9127273 C31.4857143,11.7472727 31.6514286,11.7472727 31.8171429,11.9127273 C31.9828571,12.0781818 31.9828571,12.2436364 31.8171429,12.4090909 L16.7371429,27.7963636 C16.7371429,27.7963636 16.5714286,27.6309091 16.4057143,27.7963636" id="Fill-1617"></path>
            </g>
        </g>
    </g>
</svg>