<?xml version="1.0" encoding="UTF-8" standalone="no"?>
<svg width="71px" height="29px" viewBox="0 0 71 29" version="1.1" xmlns="http://www.w3.org/2000/svg" xmlns:xlink="http://www.w3.org/1999/xlink" xmlns:sketch="http://www.bohemiancoding.com/sketch/ns">
    <!-- Generator: Sketch 3.3.3 (12081) - http://www.bohemiancoding.com/sketch -->
    <title>glasses</title>
    <desc>Created with Sketch.</desc>
    <defs></defs>
    <g id="Page-1" stroke="none" stroke-width="1" fill="none" fill-rule="evenodd" sketch:type="MSPage">
        <g id="pattern.yello" sketch:type="MSLayerGroup" transform="translate(-28.000000, -133.000000)" fill="#BBE1A5">
            <g id="glasses" transform="translate(63.000000, 147.500000) rotate(-270.000000) translate(-63.000000, -147.500000) translate(49.000000, 112.000000)" sketch:type="MSShapeGroup">
                <path d="M14.3388889,66.52 C6.76666667,66.68 0.644444444,60.6 0.483333333,53.08 C0.322222222,45.56 6.44444444,39.48 14.0166667,39.32 C21.5888889,39.16 27.7111111,45.24 27.8722222,52.76 C27.8722222,60.44 21.75,66.68 14.3388889,66.52 L14.3388889,66.52 L14.3388889,66.52 Z M14.1777778,41.56 C7.89444444,41.56 2.57777778,46.84 2.73888889,53.24 C2.73888889,59.48 8.05555556,64.76 14.5,64.6 C20.7833333,64.6 26.1,59.32 25.9388889,52.92 C25.7777778,46.68 20.6222222,41.56 14.1777778,41.56 L14.1777778,41.56 L14.1777778,41.56 Z" id="Fill-1050"></path>
                <path d="M5.31666667,53.4 C5.15555556,53.4 4.99444444,53.24 4.99444444,53.08 C4.99444444,49.72 6.76666667,46.52 9.66666667,44.92 C9.82777778,44.76 9.98888889,44.92 10.15,45.08 C10.3111111,45.24 10.15,45.4 9.98888889,45.56 C7.25,47 5.47777778,49.88 5.47777778,53.08 C5.63888889,53.24 5.63888889,53.56 5.31666667,53.4" id="Fill-1051"></path>
                <path d="M14.0166667,31.48 C6.44444444,31.64 0.322222222,25.56 0.161111111,18.04 C-7.48012763e-14,10.52 6.12222222,4.44 13.6944444,4.28 C21.2666667,4.12 27.3888889,10.2 27.55,17.72 C27.55,25.4 21.4277778,31.48 14.0166667,31.48 L14.0166667,31.48 L14.0166667,31.48 Z M13.8555556,6.52 C7.57222222,6.52 2.25555556,11.8 2.41666667,18.2 C2.41666667,24.44 7.73333333,29.72 14.1777778,29.56 C20.4611111,29.56 25.7777778,24.28 25.6166667,17.88 C25.4555556,11.64 20.3,6.52 13.8555556,6.52 L13.8555556,6.52 L13.8555556,6.52 Z" id="Fill-1054"></path>
                <path d="M14.1777778,41.56 C11.9222222,41.56 10.3111111,39.16 10.3111111,35.48 C10.3111111,34.04 10.6333333,32.6 11.1166667,31.64 C11.7611111,30.36 12.8888889,29.56 14.0166667,29.4 L14.0166667,31.48 C12.8888889,31.48 12.2444444,33.56 12.2444444,35.48 C12.2444444,37.4 13.05,39.48 14.1777778,39.48 L14.1777778,41.56" id="Fill-1055"></path>
                <path d="M14.0166667,70.2 C13.6944444,70.2 13.3722222,69.88 13.3722222,69.56 L13.2111111,57.08 C13.2111111,54.84 14.3388889,52.76 16.2722222,51.64 L18.2055556,50.36 C18.5277778,50.2 18.85,50.2 19.1722222,50.52 C19.3333333,50.84 19.1722222,51.16 19.0111111,51.48 L17.0777778,52.76 C15.4666667,53.72 14.6611111,55.32 14.6611111,57.08 L14.8222222,69.56 C14.8222222,69.88 14.3388889,70.36 14.0166667,70.2" id="Fill-1056"></path>
                <path d="M18.3666667,20.44 C18.2055556,20.44 18.2055556,20.44 18.0444444,20.28 L16.2722222,19.16 C14.3388889,17.88 13.05,15.96 13.2111111,13.56 L13.05,1.08 C13.05,0.76 13.3722222,0.44 13.6944444,0.44 C14.0166667,0.44 14.3388889,0.76 14.3388889,1.08 L14.5,13.56 C14.5,15.32 15.4666667,16.92 16.9166667,17.88 L18.85,19.16 C19.1722222,19.32 19.3333333,19.8 19.0111111,20.12 C18.85,20.44 18.5277778,20.6 18.3666667,20.44" id="Fill-1057"></path>
                <path d="M11.6,44.12 C11.9222222,44.12 12.0833333,44.44 12.0833333,44.6 C12.0833333,44.76 11.7611111,45.08 11.6,45.08 C11.2777778,45.08 11.1166667,44.76 11.1166667,44.6 C11.1166667,44.28 11.4388889,44.12 11.6,44.12" id="Fill-1058"></path>
                <path d="M5.15555556,18.2 C4.99444444,18.2 4.83333333,18.04 4.83333333,17.88 C4.83333333,14.52 6.60555556,11.32 9.50555556,9.72 C9.66666667,9.56 9.82777778,9.72 9.98888889,9.88 C10.15,10.04 9.98888889,10.2 9.82777778,10.36 C7.08888889,11.8 5.31666667,14.68 5.31666667,17.88 C5.47777778,18.04 5.31666667,18.36 5.15555556,18.2" id="Fill-1059"></path>
                <path d="M11.4388889,8.92 C11.7611111,8.92 11.9222222,9.24 11.9222222,9.4 C11.9222222,9.72 11.6,9.88 11.4388889,9.88 C11.1166667,9.88 10.9555556,9.56 10.9555556,9.4 C10.9555556,9.24 11.1166667,8.92 11.4388889,8.92" id="Fill-1060"></path>
            </g>
        </g>
    </g>
</svg>