<?xml version="1.0" encoding="UTF-8" standalone="no"?>
<svg width="82px" height="125px" viewBox="0 0 82 125" version="1.1" xmlns="http://www.w3.org/2000/svg" xmlns:xlink="http://www.w3.org/1999/xlink" xmlns:sketch="http://www.bohemiancoding.com/sketch/ns">
    <!-- Generator: Sketch 3.3.3 (12081) - http://www.bohemiancoding.com/sketch -->
    <title>graphictablet</title>
    <desc>Created with Sketch.</desc>
    <defs></defs>
    <g id="Page-1" stroke="none" stroke-width="1" fill="none" fill-rule="evenodd" sketch:type="MSPage">
        <g id="pattern.yello" sketch:type="MSLayerGroup" transform="translate(-282.000000, -82.000000)" fill="#BBE1A5">
            <g id="graphictablet" transform="translate(322.970173, 145.000000) rotate(-90.000000) translate(-322.970173, -145.000000) translate(259.970173, 103.500000)" sketch:type="MSShapeGroup">
                <path d="M121.38,81.4525424 L5.88,82.2966102 C3.5,82.2966102 1.54,80.4677966 1.68,78.0762712 L1.12,6.04915254 C1.12,3.65762712 2.94,1.68813559 5.32,1.82881356 L120.82,0.984745763 C123.2,0.984745763 125.16,2.81355932 125.02,5.20508475 L125.58,77.2322034 C125.58,79.6237288 123.76,81.5932203 121.38,81.4525424 L121.38,81.4525424 L121.38,81.4525424 Z M5.32,3.65762712 C3.92,3.65762712 2.94,4.78305085 2.94,6.18983051 L3.5,78.2169492 C3.5,79.6237288 4.62,80.6084746 6.02,80.6084746 L121.52,79.7644068 C122.92,79.7644068 123.9,78.6389831 123.9,77.2322034 L123.34,5.20508475 C123.34,3.79830508 122.22,2.81355932 120.82,2.81355932 L5.32,3.65762712 L5.32,3.65762712 Z" id="Fill-946"></path>
                <path d="M104.58,71.6050847 L2.38,72.3084746 L2.38,71.1830508 L104.58,70.479661 C105.84,70.479661 106.82,69.4949153 106.82,68.3694915 L106.4,14.6305085 C106.4,13.3644068 105.42,12.379661 104.3,12.379661 L2.1,13.0830508 L2.1,11.9576271 L104.3,11.2542373 C106.26,11.2542373 107.66,12.6610169 107.66,14.6305085 L108.08,68.3694915 C107.94,70.1983051 106.4,71.6050847 104.58,71.6050847" id="Fill-947"></path>
                <path d="M25.76,12.379661 L26.88,12.379661 L27.3,70.9016949 L26.18,70.9016949 L25.76,12.379661 L25.76,12.379661 Z" id="Fill-948"></path>
                <path d="M14.56,49.0966102 C10.78,49.0966102 7.56,46.0016949 7.56,42.2033898 C7.56,38.4050847 10.64,35.1694915 14.42,35.1694915 C18.2,35.1694915 21.42,38.2644068 21.42,42.0627119 C21.42,45.8610169 18.34,48.9559322 14.56,49.0966102 L14.56,49.0966102 L14.56,49.0966102 Z M14.42,36.1542373 C11.2,36.1542373 8.68,38.8271186 8.68,41.9220339 C8.68,45.1576271 11.34,47.6898305 14.42,47.6898305 C17.64,47.6898305 20.16,45.0169492 20.16,41.9220339 C20.16,38.8271186 17.5,36.2949153 14.42,36.1542373 L14.42,36.1542373 L14.42,36.1542373 Z" id="Fill-949"></path>
                <path d="M14.56,45.4389831 C12.74,45.4389831 11.34,44.0322034 11.2,42.2033898 C11.06,40.3745763 12.6,38.9677966 14.42,38.8271186 C16.24,38.8271186 17.64,40.2338983 17.78,42.0627119 C17.92,43.8915254 16.38,45.2983051 14.56,45.4389831 L14.56,45.4389831 L14.56,45.4389831 Z M14.42,39.3898305 C13.02,39.3898305 11.76,40.6559322 11.62,42.2033898 C11.62,43.6101695 12.88,44.8762712 14.42,45.0169492 C15.82,45.0169492 17.08,43.7508475 17.22,42.2033898 C17.22,40.5152542 15.96,39.3898305 14.42,39.3898305 L14.42,39.3898305 L14.42,39.3898305 Z" id="Fill-950"></path>
                <path d="M17.08,32.3559322 L11.06,32.3559322 C10.5,32.3559322 10.08,31.9338983 10.08,31.3711864 L10.08,28.979661 C10.08,28.4169492 10.5,27.9949153 11.06,27.9949153 L17.08,27.9949153 C17.64,27.9949153 17.92,28.4169492 18.06,28.979661 L18.06,31.3711864 C17.92,31.9338983 17.64,32.4966102 17.08,32.3559322 L17.08,32.3559322 L17.08,32.3559322 Z M10.92,28.8389831 C10.64,28.8389831 10.5,28.979661 10.64,29.2610169 L10.64,31.6525424 C10.64,31.9338983 10.78,32.0745763 11.06,31.9338983 L17.08,31.9338983 C17.36,31.9338983 17.5,31.7932203 17.36,31.5118644 L17.36,29.120339 C17.36,28.8389831 17.22,28.6983051 16.94,28.8389831 L10.92,28.8389831 L10.92,28.8389831 Z" id="Fill-951"></path>
                <path d="M16.94,26.1661017 L10.92,26.1661017 C10.36,26.1661017 9.94,25.7440678 9.94,25.1813559 L9.94,22.7898305 C9.94,22.2271186 10.36,21.8050847 10.92,21.8050847 L16.94,21.8050847 C17.5,21.8050847 17.78,22.2271186 17.92,22.7898305 L17.92,25.1813559 C17.92,25.7440678 17.5,26.1661017 16.94,26.1661017 L16.94,26.1661017 L16.94,26.1661017 Z M10.92,22.6491525 C10.64,22.6491525 10.5,22.7898305 10.64,23.0711864 L10.64,25.4627119 C10.64,25.7440678 10.78,25.8847458 11.06,25.7440678 L17.08,25.7440678 C17.36,25.7440678 17.5,25.6033898 17.36,25.3220339 L17.36,22.9305085 C17.36,22.6491525 17.22,22.5084746 16.94,22.6491525 L10.92,22.6491525 L10.92,22.6491525 Z" id="Fill-952"></path>
                <path d="M16.94,19.9762712 L10.92,19.9762712 C10.36,19.9762712 9.94,19.5542373 9.94,18.9915254 L9.94,16.6 C9.94,16.0372881 10.36,15.6152542 10.92,15.6152542 L16.94,15.6152542 C17.5,15.6152542 17.78,16.0372881 17.92,16.6 L17.92,18.9915254 C17.92,19.5542373 17.5,19.9762712 16.94,19.9762712 L16.94,19.9762712 L16.94,19.9762712 Z M10.92,16.459322 C10.64,16.459322 10.5,16.6 10.64,16.8813559 L10.64,19.2728814 C10.64,19.5542373 10.78,19.6949153 11.06,19.5542373 L17.08,19.5542373 C17.36,19.5542373 17.5,19.4135593 17.36,19.1322034 L17.36,16.740678 C17.36,16.459322 17.22,16.3186441 16.94,16.459322 L10.92,16.459322 L10.92,16.459322 Z" id="Fill-953"></path>
                <path d="M17.36,68.2288136 L11.34,68.2288136 C10.78,68.2288136 10.36,67.8067797 10.36,67.2440678 L10.36,64.8525424 C10.36,64.2898305 10.78,63.8677966 11.34,63.8677966 L17.36,63.8677966 C17.92,63.8677966 18.2,64.2898305 18.34,64.8525424 L18.34,67.2440678 C18.2,67.8067797 17.92,68.2288136 17.36,68.2288136 L17.36,68.2288136 L17.36,68.2288136 Z M11.2,64.7118644 C10.92,64.7118644 10.78,64.8525424 10.92,65.1338983 L10.92,67.5254237 C10.92,67.8067797 11.06,67.9474576 11.34,67.8067797 L17.36,67.8067797 C17.64,67.8067797 17.78,67.6661017 17.64,67.3847458 L17.64,64.9932203 C17.64,64.7118644 17.5,64.5711864 17.22,64.7118644 L11.2,64.7118644 L11.2,64.7118644 Z" id="Fill-954"></path>
                <path d="M17.36,61.7576271 L11.34,61.7576271 C10.78,61.7576271 10.36,61.3355932 10.36,60.7728814 L10.36,58.3813559 C10.36,57.8186441 10.78,57.3966102 11.34,57.3966102 L17.36,57.3966102 C17.92,57.3966102 18.2,57.8186441 18.34,58.3813559 L18.34,60.7728814 C18.2,61.3355932 17.78,61.7576271 17.36,61.7576271 L17.36,61.7576271 L17.36,61.7576271 Z M11.2,58.1 C10.92,58.1 10.78,58.240678 10.92,58.5220339 L10.92,60.9135593 C10.92,61.1949153 11.06,61.3355932 11.34,61.1949153 L17.36,61.1949153 C17.64,61.1949153 17.78,61.0542373 17.64,60.7728814 L17.64,58.3813559 C17.64,58.1 17.5,57.959322 17.22,58.1 L11.2,58.1 L11.2,58.1 Z" id="Fill-955"></path>
                <path d="M17.22,55.2864407 L11.2,55.2864407 C10.64,55.2864407 10.22,54.8644068 10.22,54.3016949 L10.22,51.9101695 C10.22,51.3474576 10.64,50.9254237 11.2,50.9254237 L17.22,50.9254237 C17.78,50.9254237 18.06,51.3474576 18.2,51.9101695 L18.2,54.3016949 C18.06,54.8644068 17.78,55.2864407 17.22,55.2864407 L17.22,55.2864407 L17.22,55.2864407 Z M11.06,51.6288136 C10.78,51.6288136 10.64,51.7694915 10.78,52.0508475 L10.78,54.4423729 C10.78,54.7237288 10.92,54.8644068 11.2,54.7237288 L17.22,54.7237288 C17.5,54.7237288 17.64,54.5830508 17.5,54.3016949 L17.5,51.9101695 C17.5,51.6288136 17.36,51.4881356 17.08,51.6288136 L11.06,51.6288136 L11.06,51.6288136 Z" id="Fill-956"></path>
                <path d="M31.36,24.6186441 L31.22,24.6186441 C31.08,24.4779661 31.08,24.3372881 31.22,24.1966102 L38.08,17.3033898 C38.22,17.1627119 38.36,17.1627119 38.5,17.3033898 C38.64,17.4440678 38.64,17.5847458 38.5,17.7254237 L31.64,24.6186441 L31.36,24.6186441" id="Fill-957"></path>
                <path d="M31.36,32.2152542 L31.22,32.2152542 C31.08,32.0745763 31.08,31.9338983 31.22,31.7932203 L45.5,16.740678 C45.64,16.6 45.78,16.6 45.92,16.740678 C46.06,16.8813559 46.06,17.0220339 45.92,17.1627119 L31.64,32.2152542 C31.5,32.2152542 31.5,32.3559322 31.36,32.2152542" id="Fill-958"></path>
                <path d="M37.1,34.3254237 L36.96,34.3254237 C36.82,34.1847458 36.82,34.0440678 36.96,33.9033898 L52.92,17.3033898 C53.06,17.1627119 53.2,17.1627119 53.34,17.3033898 C53.48,17.4440678 53.48,17.5847458 53.34,17.7254237 L37.38,34.3254237 L37.1,34.3254237" id="Fill-959"></path>
                <path d="M31.5,39.8118644 L31.36,39.8118644 C31.22,39.6711864 31.22,39.5305085 31.36,39.3898305 L33.88,36.7169492 C34.02,36.5762712 34.16,36.5762712 34.3,36.7169492 C34.44,36.8576271 34.44,36.9983051 34.3,37.1389831 L31.78,39.8118644 C31.64,39.9525424 31.5,39.8118644 31.5,39.8118644" id="Fill-960"></path>
                <path d="M93.52,61.8983051 L93.52,61.8983051 L46.48,61.8983051 C46.06,61.8983051 45.5,61.8983051 44.94,61.6169492 L38.5,59.9288136 C37.66,59.6474576 37.24,59.0847458 37.24,58.3813559 C37.24,57.6779661 37.66,57.1152542 38.5,56.8338983 L44.94,55.1457627 C45.36,55.0050847 45.92,55.0050847 46.34,55.0050847 L93.52,55.0050847 C95.48,55.0050847 97.02,56.5525424 97.02,58.5220339 C96.88,60.3508475 95.48,61.8983051 93.52,61.8983051 L93.52,61.8983051 L93.52,61.8983051 Z M46.48,56.1305085 C46.06,56.1305085 45.64,56.2711864 45.36,56.2711864 L38.92,57.959322 C38.64,57.959322 38.5,58.240678 38.5,58.3813559 C38.5,58.5220339 38.64,58.6627119 38.92,58.8033898 L45.36,60.4915254 C45.78,60.6322034 46.06,60.6322034 46.62,60.6322034 L93.66,60.6322034 L93.66,61.1949153 L93.66,60.6322034 C94.92,60.6322034 95.9,59.6474576 95.9,58.3813559 C95.9,57.1152542 94.92,56.1305085 93.66,56.1305085 L46.48,56.1305085 L46.48,56.1305085 Z" id="Fill-988"></path>
                <path d="M47.04,61.4762712 L47.04,61.4762712 C46.9,61.4762712 46.76,61.3355932 46.76,61.1949153 L46.76,55.4271186 C46.76,55.2864407 46.9,55.1457627 47.04,55.1457627 C47.18,55.1457627 47.32,55.2864407 47.32,55.4271186 L47.32,61.1949153 C47.32,61.4762712 47.18,61.6169492 47.04,61.4762712" id="Fill-989"></path>
                <path d="M43.68,60.7728814 L43.68,60.7728814 C43.54,60.7728814 43.4,60.6322034 43.4,60.4915254 L43.4,56.2711864 C43.4,56.1305085 43.54,55.9898305 43.68,55.9898305 L43.68,55.9898305 C43.82,55.9898305 43.96,56.1305085 43.96,56.2711864 L43.96,60.4915254 C43.96,60.6322034 43.96,60.7728814 43.68,60.7728814" id="Fill-990"></path>
                <path d="M92.68,61.6169492 L92.68,61.6169492 C92.54,61.6169492 92.4,61.4762712 92.4,61.3355932 L92.4,55.5677966 C92.4,55.4271186 92.54,55.2864407 92.68,55.2864407 C92.82,55.2864407 92.96,55.4271186 92.96,55.5677966 L92.96,61.3355932 C92.96,61.4762712 92.82,61.6169492 92.68,61.6169492" id="Fill-991"></path>
                <path d="M70,61.6169492 L70,61.6169492 C69.86,61.6169492 69.72,61.4762712 69.72,61.3355932 L69.72,55.5677966 C69.72,55.4271186 69.86,55.2864407 70,55.2864407 L70,55.2864407 C70.14,55.2864407 70.28,55.4271186 70.28,55.5677966 L70.28,61.3355932 C70.28,61.4762712 70.14,61.6169492 70,61.6169492" id="Fill-992"></path>
                <path d="M61.32,58.1 L61.32,58.1 L50.96,58.1 C50.82,58.1 50.68,57.959322 50.68,57.8186441 C50.68,57.6779661 50.82,57.5372881 50.96,57.5372881 L50.96,57.5372881 L61.32,57.5372881 C61.46,57.5372881 61.6,57.6779661 61.6,57.8186441 C61.74,57.959322 61.6,58.1 61.32,58.1" id="Fill-993"></path>
            </g>
        </g>
    </g>
</svg>