<?xml version="1.0" encoding="UTF-8" standalone="no"?>
<svg width="88px" height="106px" viewBox="0 0 88 106" version="1.1" xmlns="http://www.w3.org/2000/svg" xmlns:xlink="http://www.w3.org/1999/xlink" xmlns:sketch="http://www.bohemiancoding.com/sketch/ns">
    <!-- Generator: Sketch 3.3.3 (12081) - http://www.bohemiancoding.com/sketch -->
    <title>ipad</title>
    <desc>Created with Sketch.</desc>
    <defs></defs>
    <g id="Page-1" stroke="none" stroke-width="1" fill="none" fill-rule="evenodd" sketch:type="MSPage">
        <g id="pattern.yello" sketch:type="MSLayerGroup" transform="translate(-207.000000, -204.000000)" fill="#BBE1A5">
            <g id="ipad" transform="translate(251.121911, 256.567664) rotate(-72.000000) translate(-251.121911, -256.567664) translate(204.286225, 222.784546)" sketch:type="MSShapeGroup">
                <path d="M86.1469504,66.7984374 L6.91018318,67.412676 C3.37831178,67.412676 0.460678879,64.4950431 0.460678879,61.1167313 L0,7.52442169 C0,3.99255028 2.76407327,0.921357758 6.44950431,0.921357758 L85.6862715,0.307119253 C89.2181429,0.307119253 92.1357758,3.22475215 92.1357758,6.60306393 L92.5964547,60.1953735 C92.5964547,63.8808045 89.6788218,66.6448778 86.1469504,66.7984374 L86.1469504,66.7984374 L86.1469504,66.7984374 Z M6.29594468,2.76407327 C3.83899066,2.76407327 1.68915589,4.91390804 1.84271552,7.37086206 L2.30339439,60.9631716 C2.30339439,63.4201257 4.45322916,65.5699604 6.91018318,65.5699604 L86.1469504,64.9557219 C88.6039044,64.9557219 90.7537392,62.8058872 90.6001795,60.3489331 L90.1395006,6.75662356 C90.1395006,4.29966954 87.9896659,2.14983477 85.5327119,2.14983477 L6.29594468,2.76407327 L6.29594468,2.76407327 Z" id="Fill-1618"></path>
                <path d="M79.5438864,60.6560524 L13.3596875,61.1167313 C13.0525682,61.1167313 12.745449,60.809612 12.745449,60.5024928 L12.4383297,7.52442169 C12.4383297,7.21730244 12.745449,6.91018318 13.0525682,6.91018318 L79.2367672,6.44950431 C79.5438864,6.44950431 79.8510057,6.75662356 79.8510057,7.06374281 L80.1581249,60.0418139 C80.1581249,60.3489331 79.8510057,60.6560524 79.5438864,60.6560524 L79.5438864,60.6560524 L79.5438864,60.6560524 Z M13.973926,59.8882543 L78.7760883,59.4275754 L78.3154094,7.67798132 L13.5132471,8.13866019 L13.973926,59.8882543 L13.973926,59.8882543 Z" id="Fill-1619"></path>
                <path d="M85.5327119,33.4759985 C85.5327119,33.7831178 85.2255926,33.9366774 84.9184734,34.090237 C84.6113541,34.090237 84.4577945,33.7831178 84.3042348,33.4759985 C84.1506752,33.1688793 84.6113541,33.0153197 84.9184734,32.86176 C85.3791522,33.0153197 85.5327119,33.1688793 85.5327119,33.4759985" id="Fill-1620"></path>
                <path d="M7.21730244,37.0078699 C5.68170617,37.0078699 4.45322916,35.7793929 4.29966954,34.2437967 C4.29966954,32.7082004 5.52814655,31.4797234 7.06374281,31.3261638 C8.59933907,31.3261638 9.82781608,32.5546408 9.98137571,34.090237 C10.1349353,35.6258333 8.7528987,37.0078699 7.21730244,37.0078699 L7.21730244,37.0078699 L7.21730244,37.0078699 Z M7.21730244,32.5546408 C6.29594468,32.5546408 5.68170617,33.3224389 5.68170617,34.2437967 C5.68170617,35.1651544 6.44950431,35.7793929 7.37086206,35.7793929 C8.29221982,35.7793929 8.90645833,35.0115948 8.90645833,34.090237 C8.7528987,33.3224389 7.98510057,32.5546408 7.21730244,32.5546408 L7.21730244,32.5546408 L7.21730244,32.5546408 Z" id="Fill-1621"></path>
                <path d="M16.7379993,20.4234303 L16.5844396,20.4234303 C16.43088,20.2698707 16.43088,20.116311 16.5844396,19.9627514 L25.1837787,11.2098527 C25.3373383,11.0562931 25.490898,11.0562931 25.6444576,11.2098527 C25.7980172,11.3634123 25.7980172,11.516972 25.6444576,11.6705316 L17.0451185,20.4234303 C16.7379993,20.4234303 16.7379993,20.5769899 16.7379993,20.4234303" id="Fill-1622"></path>
                <path d="M16.7379993,27.6407327 L16.5844396,27.6407327 C16.43088,27.4871731 16.43088,27.3336135 16.5844396,27.1800539 L32.2475215,11.2098527 C32.4010812,11.0562931 32.5546408,11.0562931 32.7082004,11.2098527 C32.86176,11.3634123 32.86176,11.516972 32.7082004,11.6705316 L17.0451185,27.6407327 L16.7379993,27.6407327" id="Fill-1623"></path>
                <path d="M25.490898,26.8729346 L25.3373383,26.8729346 C25.1837787,26.719375 25.1837787,26.5658154 25.3373383,26.4122557 L40.0790625,11.3634123 C40.2326221,11.2098527 40.3861817,11.2098527 40.5397413,11.3634123 C40.693301,11.516972 40.693301,11.6705316 40.5397413,11.8240912 L25.7980172,26.8729346 L25.490898,26.8729346" id="Fill-1624"></path>
                <path d="M17.8129167,34.090237 L17.659357,34.090237 C17.5057974,33.9366774 17.5057974,33.7831178 17.659357,33.6295582 L22.4197054,28.8692097 C22.5732651,28.7156501 22.7268247,28.7156501 22.8803843,28.8692097 C23.0339439,29.0227694 23.0339439,29.176329 22.8803843,29.3298886 L18.1200359,34.090237 L17.8129167,34.090237" id="Fill-1625"></path>
            </g>
        </g>
    </g>
</svg>