<?xml version="1.0" encoding="UTF-8" standalone="no"?>
<svg width="58px" height="73px" viewBox="0 0 58 73" version="1.1" xmlns="http://www.w3.org/2000/svg" xmlns:xlink="http://www.w3.org/1999/xlink" xmlns:sketch="http://www.bohemiancoding.com/sketch/ns">
    <!-- Generator: Sketch 3.3.3 (12081) - http://www.bohemiancoding.com/sketch -->
    <title>iphone</title>
    <desc>Created with Sketch.</desc>
    <defs></defs>
    <g id="Page-1" stroke="none" stroke-width="1" fill="none" fill-rule="evenodd" sketch:type="MSPage">
        <g id="pattern.yello" sketch:type="MSLayerGroup" transform="translate(-182.000000, -4.000000)" fill="#BBE1A5">
            <g id="iphone" transform="translate(211.403517, 40.854901) rotate(22.000000) translate(-211.403517, -40.854901) translate(191.655749, 5.747759)" sketch:type="MSShapeGroup">
                <path d="M19.4552078,70.0680042 C10.8247021,70.214284 0.731398791,68.6052066 0.585119033,64.0705341 L0.146279758,5.70491057 C0.146279758,1.02395831 14.4816961,0.585119033 18.8700888,0.438839275 C23.2584816,0.438839275 37.7401776,0.585119033 37.7401776,5.2660713 L38.1790169,63.6316948 C38.3252967,68.3126471 28.2319933,70.0680042 19.4552078,70.0680042 L19.4552078,70.0680042 L19.4552078,70.0680042 Z M19.0163686,2.48675589 C8.0453867,2.48675589 2.19419637,4.53467251 2.04791662,5.70491057 L2.48675589,64.0705341 C2.48675589,66.1184507 8.92306525,68.1663673 19.4552078,68.1663673 C29.8410707,68.1663673 36.4236598,65.8258912 36.27738,63.7779746 L35.8385408,5.41235105 C35.8385408,4.24211299 29.8410707,2.48675589 19.0163686,2.48675589 L19.0163686,2.48675589 L19.0163686,2.48675589 Z" id="Fill-994"></path>
                <path d="M33.3517849,59.8284211 L5.41235105,60.1209806 C5.11979154,60.1209806 4.82723202,59.8284211 4.82723202,59.5358616 L4.53467251,11.7023807 C4.53467251,11.4098211 4.82723202,11.1172616 5.11979154,11.1172616 L33.0592254,10.8247021 C33.3517849,10.8247021 33.6443444,11.1172616 33.6443444,11.4098211 L33.9369039,59.2433021 C33.9369039,59.5358616 33.6443444,59.8284211 33.3517849,59.8284211 L33.3517849,59.8284211 L33.3517849,59.8284211 Z M6.14374985,58.8044628 L32.7666658,58.6581831 L32.4741063,11.9949402 L5.85119033,12.1412199 L6.14374985,58.8044628 L6.14374985,58.8044628 Z" id="Fill-995"></path>
                <path d="M20.3328864,7.60654743 C20.3328864,6.87514864 19.7477674,6.43630936 19.0163686,6.43630936 C18.2849698,6.43630936 17.8461305,7.0214284 17.8461305,7.75282719 C17.8461305,8.48422598 18.4312495,8.92306525 19.1626483,8.92306525 C19.6014876,8.77678549 20.3328864,8.19166646 20.3328864,7.60654743" id="Fill-996"></path>
                <path d="M20.0403269,63.6316948 C20.0403269,63.9242544 19.7477674,64.3630936 19.3089281,64.3630936 C19.0163686,64.3630936 18.5775293,64.0705341 18.5775293,63.6316948 C18.5775293,63.1928556 19.0163686,62.900296 19.3089281,62.900296 C19.8940471,62.900296 20.1866066,63.1928556 20.0403269,63.6316948" id="Fill-997"></path>
                <path d="M7.16770815,20.1866066 L7.0214284,20.1866066 C6.87514864,20.0403269 6.87514864,19.8940471 7.0214284,19.7477674 L13.0188985,13.7502973 C13.1651782,13.6040175 13.311458,13.6040175 13.4577378,13.7502973 C13.6040175,13.896577 13.6040175,14.0428568 13.4577378,14.1891365 L7.46026767,20.1866066 L7.16770815,20.1866066" id="Fill-998"></path>
                <path d="M7.60654743,25.1601184 L7.46026767,25.1601184 C7.31398791,25.0138387 7.31398791,24.8675589 7.46026767,24.7212791 L18.13869,13.896577 C18.2849698,13.7502973 18.4312495,13.7502973 18.5775293,13.896577 C18.7238091,14.0428568 18.7238091,14.1891365 18.5775293,14.3354163 L7.89910694,25.1601184 C7.75282719,25.1601184 7.75282719,25.3063982 7.60654743,25.1601184" id="Fill-999"></path>
                <path d="M13.4577378,24.2824399 L13.311458,24.2824399 C13.1651782,24.1361601 13.1651782,23.9898804 13.311458,23.8436006 L22.965922,14.0428568 C23.1122018,13.896577 23.2584816,13.896577 23.4047613,14.0428568 C23.5510411,14.1891365 23.5510411,14.3354163 23.4047613,14.4816961 L13.7502973,24.2824399 C13.6040175,24.2824399 13.6040175,24.1361601 13.4577378,24.2824399" id="Fill-1000"></path>
                <path d="M8.0453867,29.9873504 L7.89910694,29.9873504 C7.75282719,29.8410707 7.75282719,29.6947909 7.89910694,29.5485112 L11.7023807,25.5989577 C11.8486604,25.4526779 11.9949402,25.4526779 12.1412199,25.5989577 C12.2874997,25.7452374 12.2874997,25.8915172 12.1412199,26.037797 L8.19166646,29.9873504 C8.19166646,29.8410707 8.19166646,29.8410707 8.0453867,29.9873504" id="Fill-1001"></path>
            </g>
        </g>
    </g>
</svg>