<?xml version="1.0" encoding="UTF-8" standalone="no"?>
<svg width="77px" height="67px" viewBox="0 0 77 67" version="1.1" xmlns="http://www.w3.org/2000/svg" xmlns:xlink="http://www.w3.org/1999/xlink" xmlns:sketch="http://www.bohemiancoding.com/sketch/ns">
    <!-- Generator: Sketch 3.3.3 (12081) - http://www.bohemiancoding.com/sketch -->
    <title>ipod</title>
    <desc>Created with Sketch.</desc>
    <defs></defs>
    <g id="Page-1" stroke="none" stroke-width="1" fill="none" fill-rule="evenodd" sketch:type="MSPage">
        <g id="ipod" sketch:type="MSLayerGroup" transform="translate(39.374403, 32.446519) rotate(-7.000000) translate(-39.374403, -32.446519) translate(3.874403, 0.946519)" fill="#FFFFFF">
            <path d="M0.107692308,1.18529412 L27.4307692,1 L27.8,52.1411765 L0.476923077,52.3264706 L0.107692308,1.18529412 L0.107692308,1.18529412 Z M2.87692308,50.1029412 L25.4,49.9176471 L25.0307692,3.40882353 L2.50769231,3.59411765 L2.87692308,50.1029412 L2.87692308,50.1029412 Z" id="Fill-1118" sketch:type="MSShapeGroup"></path>
            <path d="M4.35384615,6.00294118 L23,6.00294118 L23.1846154,39.7264706 L4.53846154,39.7264706 L4.35384615,6.00294118 L4.35384615,6.00294118 Z M6.01538462,38.2441176 L21.5230769,38.0588235 L21.3384615,7.48529412 L5.83076923,7.67058824 L6.01538462,38.2441176 L6.01538462,38.2441176 Z" id="Fill-1119" sketch:type="MSShapeGroup"></path>
            <path d="M13.9538462,48.8058824 C11.9230769,48.8058824 10.2615385,47.1382353 10.0769231,44.9147059 C10.0769231,42.8764706 11.7384615,41.2088235 13.9538462,41.0235294 C15.9846154,41.0235294 17.6461538,42.6911765 17.8307692,44.9147059 C17.8307692,47.1382353 15.9846154,48.8058824 13.9538462,48.8058824 L13.9538462,48.8058824 L13.9538462,48.8058824 Z M13.9538462,41.95 C12.2923077,41.95 10.8153846,43.2470588 11,45.1 C11,46.7676471 12.2923077,48.25 14.1384615,48.0647059 C15.8,48.0647059 17.2769231,46.7676471 17.0923077,44.9147059 C16.9076923,43.4323529 15.6153846,41.95 13.9538462,41.95 L13.9538462,41.95 L13.9538462,41.95 Z" id="Fill-1120" sketch:type="MSShapeGroup"></path>
            <path d="M7.49230769,12.1176471 L7.30769231,12.1176471 C7.12307692,11.9323529 7.12307692,11.7470588 7.30769231,11.5617647 L10.2615385,8.59705882 C10.4461538,8.41176471 10.6307692,8.41176471 10.8153846,8.59705882 C11,8.78235294 11,8.96764706 10.8153846,9.15294118 L7.86153846,12.1176471 L7.49230769,12.1176471" id="Fill-1121" sketch:type="MSShapeGroup"></path>
            <path d="M7.67692308,15.2676471 L7.49230769,15.2676471 C7.30769231,15.0823529 7.30769231,14.8970588 7.49230769,14.7117647 L13.4,8.59705882 C13.5846154,8.41176471 13.7692308,8.41176471 13.9538462,8.59705882 C14.1384615,8.78235294 14.1384615,8.96764706 13.9538462,9.15294118 L8.04615385,15.2676471 C7.86153846,15.2676471 7.86153846,15.4529412 7.67692308,15.2676471" id="Fill-1122" sketch:type="MSShapeGroup"></path>
            <path d="M10.8153846,15.8235294 L10.6307692,15.8235294 C10.4461538,15.6382353 10.4461538,15.4529412 10.6307692,15.2676471 L17.2769231,8.59705882 C17.4615385,8.41176471 17.6461538,8.41176471 17.8307692,8.59705882 C18.0153846,8.78235294 18.0153846,8.96764706 17.8307692,9.15294118 L11.3692308,15.6382353 C11,15.8235294 10.8153846,15.8235294 10.8153846,15.8235294" id="Fill-1123" sketch:type="MSShapeGroup"></path>
            <path d="M7.67692308,18.9735294 L7.49230769,18.9735294 C7.30769231,18.7882353 7.30769231,18.6029412 7.49230769,18.4176471 L9.33846154,16.5647059 C9.52307692,16.3794118 9.70769231,16.3794118 9.89230769,16.5647059 C10.0769231,16.75 10.0769231,16.9352941 9.89230769,17.1205882 L8.04615385,18.9735294 C7.86153846,18.7882353 7.86153846,18.7882353 7.67692308,18.9735294" id="Fill-1124" sketch:type="MSShapeGroup"></path>
            <path d="M59.9230769,51.7705882 L59.9230769,53.4382353 C61.2153846,53.9941176 62.1384615,55.4764706 62.3230769,56.9588235 C62.3230769,58.9970588 60.4769231,60.85 58.4461538,60.85 C56.4153846,60.85 54.5692308,58.9970588 54.5692308,56.9588235 C54.5692308,55.4764706 55.4923077,53.9941176 56.7846154,53.2529412 L56.7846154,51.5852941 C54.5692308,52.3264706 53.0923077,54.3647059 53.0923077,56.7735294 C53.0923077,59.7382353 55.6769231,62.3323529 58.6307692,62.1470588 C61.5846154,62.1470588 64.1692308,59.5529412 63.9846154,56.5882353 C63.9846154,54.55 62.3230769,52.5117647 59.9230769,51.7705882" id="Fill-1125" sketch:type="MSShapeGroup"></path>
            <path d="M58.4461538,57.3294118 C57.1538462,57.3294118 56.0461538,56.4029412 56.0461538,54.9205882 L55.8615385,43.8029412 C55.8615385,42.5058824 56.7846154,41.3941176 58.2615385,41.3941176 C59.5538462,41.3941176 60.6615385,42.3205882 60.6615385,43.8029412 L60.8461538,54.9205882 C60.8461538,56.2176471 59.9230769,57.3294118 58.4461538,57.3294118 L58.4461538,57.3294118 L58.4461538,57.3294118 Z M58.4461538,42.8764706 C58.0769231,42.8764706 57.5230769,43.2470588 57.7076923,43.6176471 L57.8923077,54.7352941 C57.8923077,55.1058824 58.2615385,55.6617647 58.6307692,55.4764706 C59,55.4764706 59.5538462,55.1058824 59.3692308,54.7352941 L59.1846154,43.6176471 C59.1846154,43.2470588 58.8153846,42.8764706 58.4461538,42.8764706 L58.4461538,42.8764706 L58.4461538,42.8764706 Z" id="Fill-1126" sketch:type="MSShapeGroup"></path>
            <path d="M66.2,44.5441176 L66.2,46.2117647 C67.4923077,46.7676471 68.4153846,48.25 68.6,49.7323529 C68.6,51.7705882 66.7538462,53.6235294 64.7230769,53.6235294 C62.6923077,53.6235294 60.8461538,51.7705882 60.8461538,49.7323529 C60.8461538,48.0647059 61.7692308,46.7676471 63.0615385,46.0264706 L63.0615385,44.3588235 C60.8461538,45.1 59.3692308,47.1382353 59.3692308,49.5470588 C59.3692308,52.5117647 61.9538462,55.1058824 64.9076923,54.9205882 C67.8615385,54.9205882 70.4461538,52.3264706 70.2615385,49.3617647 C70.2615385,47.3235294 68.6,45.2852941 66.2,44.5441176" id="Fill-1127" sketch:type="MSShapeGroup"></path>
            <path d="M64.7230769,50.1029412 C63.4307692,50.1029412 62.3230769,49.1764706 62.3230769,47.6941176 L62.1384615,36.5764706 C62.1384615,35.2794118 63.0615385,34.1676471 64.5384615,34.1676471 C65.8307692,34.1676471 66.9384615,35.0941176 66.9384615,36.5764706 L67.1230769,47.6941176 C67.1230769,48.9911765 66.2,50.1029412 64.7230769,50.1029412 L64.7230769,50.1029412 L64.7230769,50.1029412 Z M64.7230769,35.65 C64.3538462,35.65 63.8,36.0205882 63.9846154,36.3911765 L64.1692308,47.5088235 C64.1692308,47.8794118 64.5384615,48.4352941 64.9076923,48.25 C65.2769231,48.25 65.8307692,47.8794118 65.6461538,47.5088235 L65.4615385,36.3911765 C65.4615385,36.0205882 65.0923077,35.65 64.7230769,35.65 L64.7230769,35.65 L64.7230769,35.65 Z" id="Fill-1128" sketch:type="MSShapeGroup"></path>
            <path d="M45.3384615,62.7029412 C42.5692308,62.7029412 40.1692308,60.4794118 40.1692308,57.5147059 L39.8,6.00294118 C39.8,4.15 38.3230769,2.85294118 36.6615385,2.85294118 C34.8153846,2.85294118 33.5230769,4.33529412 33.5230769,6.00294118 L33.8923077,53.8088235 C33.8923077,58.6264706 29.8307692,62.7029412 25.2153846,62.7029412 L13.7692308,62.7029412 C8.96923077,62.7029412 4.90769231,58.6264706 4.90769231,53.9941176 L4.90769231,51.4 C4.90769231,51.0294118 5.27692308,50.6588235 5.64615385,50.6588235 C6.01538462,50.6588235 6.38461538,51.0294118 6.38461538,51.4 L6.38461538,53.9941176 C6.38461538,58.0705882 9.70769231,61.2205882 13.7692308,61.2205882 L25.2153846,61.2205882 C29.2769231,61.2205882 32.4153846,57.8852941 32.4153846,53.8088235 L32.0461538,6.00294118 C32.0461538,3.40882353 34.2615385,1.37058823 36.6615385,1.18529412 C39.2461538,1.18529412 41.2769231,3.40882353 41.4615385,5.81764706 L41.8307692,57.3294118 C41.8307692,59.1823529 43.4923077,60.85 45.3384615,60.85 C47.1846154,60.85 48.8461538,59.1823529 48.8461538,57.3294118 L48.4769231,6.37352941 C48.4769231,3.40882353 50.6923077,1.18529412 53.6461538,1.18529412 C56.6,1.18529412 58.8153846,3.40882353 58.8153846,6.37352941 L59,41.3941176 C59,41.7647059 58.6307692,42.1352941 58.2615385,42.1352941 C57.8923077,42.1352941 57.5230769,41.7647059 57.5230769,41.3941176 L57.3384615,6.37352941 C57.3384615,4.33529412 55.6769231,2.66764706 53.4615385,2.66764706 C51.4307692,2.85294118 49.7692308,4.33529412 49.7692308,6.55882353 L50.1384615,57.5147059 C50.3230769,60.2941176 48.1076923,62.5176471 45.3384615,62.7029412" id="Fill-1129" sketch:type="MSShapeGroup"></path>
            <path d="M64.7230769,35.65 C64.3538462,35.65 63.9846154,35.2794118 63.9846154,34.9088235 L63.8,17.8617647 C63.8,14.7117647 61.2153846,12.3029412 58.2615385,12.3029412 C57.8923077,12.3029412 57.5230769,11.9323529 57.5230769,11.5617647 C57.5230769,11.1911765 57.8923077,10.8205882 58.2615385,10.8205882 C62.3230769,10.8205882 65.4615385,13.9705882 65.4615385,17.8617647 L65.6461538,34.9088235 C65.4615385,35.2794118 65.0923077,35.65 64.7230769,35.65" id="Fill-1130" sketch:type="MSShapeGroup"></path>
        </g>
    </g>
</svg>