<?xml version="1.0" encoding="UTF-8" standalone="no"?>
<svg width="58px" height="53px" viewBox="0 0 58 53" version="1.1" xmlns="http://www.w3.org/2000/svg" xmlns:xlink="http://www.w3.org/1999/xlink" xmlns:sketch="http://www.bohemiancoding.com/sketch/ns">
    <!-- Generator: Sketch 3.3.3 (12081) - http://www.bohemiancoding.com/sketch -->
    <title>joystick</title>
    <desc>Created with Sketch.</desc>
    <defs></defs>
    <g id="Page-1" stroke="none" stroke-width="1" fill="none" fill-rule="evenodd" sketch:type="MSPage">
        <g id="joystick" sketch:type="MSLayerGroup" transform="translate(30.500000, 26.000000) rotate(120.000000) translate(-30.500000, -26.000000) translate(11.000000, -1.000000)" fill="#FFFFFF">
            <path d="M31.1,54 L31.1,54 C30.5,54 30,53.9 29.4,53.8 L20.8,51.5 C19,53 16.7,53.8 14.3,53.8 C10.7,53.8 7.2,51.9 5.3,48.9 L5.1,48.9 L3.8,48.9 C2.3,48.9 1,47.7 0.9,46.1 L0.9,40.7 C0.9,39.2 2.1,37.9 3.7,37.8 L5,37.8 L5.2,37.8 C5.5,37.3 5.9,36.7 6.4,36.2 L6.2,18.5 C5.8,18.1 5.4,17.5 5.1,17 L4.9,17 L3.6,17 C2.1,17 0.8,15.8 0.7,14.2 L0.7,8.8 C0.7,7.3 1.9,6 3.5,6 L4.8,6 L5,6 C6.9,2.9 10.3,1 13.9,1 C16.2,1 18.6,1.7 20.4,3.3 L29,0.9 C29.5,0.7 30.1,0.7 30.7,0.7 C33.9,0.7 36.7,2.8 37.5,5.9 C37.9,7.7 37.7,9.6 36.7,11.2 C35.7,12.8 34.2,13.9 32.5,14.4 L26.8,16.2 C27.3,17.1 27.6,18 27.6,19.1 C27.6,21.9 25.5,24.2 22.8,24.6 L22.8,31 C25.5,31.3 27.6,33.6 27.7,36.4 C27.7,37.1 27.6,37.8 27.3,38.5 L33.7,40.2 C35.5,40.7 36.8,41.8 37.5,43.4 C38.1,44.9 38.3,46.8 37.8,48.6 C37.1,51.8 34.4,54 31.1,54 L31.1,54 L31.1,54 Z M20.7,50.2 L20.8,50.2 L29.7,52.6 C30.1,52.7 30.6,52.8 31,52.8 C33.6,52.8 35.9,51 36.5,48.4 C36.9,46.8 36.8,45.2 36.3,44 C35.7,42.7 34.7,41.8 33.4,41.5 L26.3,39.6 C26.1,39.5 26,39.4 25.9,39.2 C25.8,39 25.9,38.8 25.9,38.6 C26.3,37.9 26.5,37.2 26.5,36.4 C26.5,34.1 24.6,32.2 22.3,32.3 C22,32.3 21.7,32 21.7,31.7 L21.6,24.1 C21.6,23.8 21.9,23.5 22.2,23.5 C24.5,23.5 26.4,21.5 26.3,19.3 C26.3,18.3 25.9,17.3 25.2,16.5 C25.1,16.4 25,16.1 25.1,15.9 C25.2,15.7 25.3,15.6 25.5,15.5 L32.1,13.4 C33.6,13 34.9,12.1 35.6,10.8 C36.4,9.5 36.6,8 36.2,6.5 C35.5,4 33.2,2.2 30.7,2.2 C30.2,2.2 29.8,2.3 29.4,2.4 L20.6,4.9 C20.4,4.9 20.2,4.9 20,4.8 C18.3,3.4 16.2,2.6 14.1,2.6 C10.8,2.7 7.7,4.5 6.1,7.4 C5.9,7.7 5.7,7.8 5.4,7.7 C5.3,7.7 5.2,7.6 5,7.7 L3.7,7.7 C2.8,7.7 2.1,8.4 2.2,9.3 L2.2,14.7 C2.2,15.6 2.9,16.2 3.8,16.2 L5.1,16.2 C5.2,16.2 5.3,16.2 5.4,16.1 C5.7,16 5.9,16.2 6.1,16.4 C6.5,17.1 6.9,17.7 7.5,18.2 C7.6,18.3 7.7,18.5 7.7,18.7 L7.9,36.9 C7.9,37.1 7.8,37.2 7.8,37.3 C7.2,37.9 6.8,38.5 6.4,39.2 C6.2,39.5 6,39.6 5.7,39.5 C5.6,39.5 5.5,39.4 5.3,39.5 L4,39.5 C3.1,39.5 2.5,40.2 2.5,41.1 L2.5,46.5 C2.5,47.4 3.2,48 4.1,48 L5.4,48 C5.5,48 5.6,48 5.7,47.9 C6,47.8 6.2,48 6.4,48.2 C8,51.1 11.2,52.9 14.5,52.8 C16.7,52.8 18.7,52 20.5,50.6 C20.4,50.3 20.6,50.2 20.7,50.2 L20.7,50.2 L20.7,50.2 Z" id="Fill-2353" sketch:type="MSShapeGroup"></path>
            <path d="M21.6,40.1 C19.8,40.1 18.2,38.6 18.2,36.8 C18.2,35 19.7,33.4 21.5,33.4 C23.3,33.4 24.9,34.9 24.9,36.7 C25,38.6 23.5,40.1 21.6,40.1 L21.6,40.1 L21.6,40.1 Z M21.6,34.2 C20.2,34.2 19,35.4 19.1,36.8 C19.1,38.2 20.3,39.4 21.7,39.3 C23.1,39.3 24.3,38.1 24.2,36.7 C24.1,35.4 22.9,34.2 21.6,34.2 L21.6,34.2 L21.6,34.2 Z" id="Fill-2354" sketch:type="MSShapeGroup"></path>
            <path d="M21.5,22.5 C19.7,22.5 18.1,21 18.1,19.2 C18.1,17.4 19.6,15.8 21.4,15.8 C23.2,15.8 24.8,17.3 24.8,19.1 C24.8,20.9 23.3,22.5 21.5,22.5 L21.5,22.5 L21.5,22.5 Z M21.4,16.5 C20,16.5 18.8,17.7 18.9,19.1 C18.9,20.5 20.1,21.7 21.5,21.6 C22.9,21.6 24.1,20.4 24,19 C23.9,17.6 22.9,16.5 21.4,16.5 L21.4,16.5 L21.4,16.5 Z" id="Fill-2355" sketch:type="MSShapeGroup"></path>
            <path d="M23.2,19.2 C23.1,19.2 23,19.1 23,19 C23,18.1 22.3,17.4 21.4,17.5 C21.3,17.5 21.2,17.4 21.2,17.3 C21.2,17.2 21.3,17.1 21.4,17.1 C22.5,17.1 23.4,17.9 23.4,19.1 C23.4,19.1 23.3,19.3 23.2,19.2" id="Fill-2356" sketch:type="MSShapeGroup"></path>
            <path d="M23.3,37 C23.2,37 23.1,36.9 23.1,36.8 C23.1,35.9 22.4,35.2 21.5,35.3 C21.4,35.3 21.3,35.2 21.3,35.1 C21.3,35 21.4,34.9 21.5,34.9 C22.6,34.9 23.5,35.8 23.5,36.9 C23.5,36.9 23.5,36.9 23.3,37" id="Fill-2357" sketch:type="MSShapeGroup"></path>
            <path d="M18.5,29.7 C17.6,29.8 16.8,29 16.8,28.1 C16.7,27.2 17.5,26.4 18.4,26.4 C19.3,26.3 20.1,27.1 20.1,28 C20.2,28.9 19.5,29.7 18.5,29.7 L18.5,29.7 L18.5,29.7 Z M18.5,26.8 C17.8,26.8 17.3,27.4 17.3,28 C17.3,28.7 17.9,29.2 18.5,29.2 C19.2,29.2 19.7,28.6 19.7,28 C19.8,27.3 19.2,26.8 18.5,26.8 L18.5,26.8 L18.5,26.8 Z" id="Fill-2360" sketch:type="MSShapeGroup"></path>
            <path d="M19.2,28.2 C19.1,28.2 19,28.1 19,28 C19,27.8 18.8,27.5 18.5,27.5 C18.4,27.5 18.3,27.4 18.3,27.3 C18.3,27.2 18.4,27.1 18.5,27.1 C19,27.1 19.4,27.5 19.4,28 C19.5,28.1 19.4,28.2 19.2,28.2" id="Fill-2361" sketch:type="MSShapeGroup"></path>
            <path d="M9.8,12.7 C8.9,12.8 8.1,12 8.1,11.1 C8,10.2 8.8,9.4 9.7,9.4 C10.6,9.3 11.4,10.1 11.4,11 C11.5,11.9 10.7,12.6 9.8,12.7 L9.8,12.7 L9.8,12.7 Z M9.8,9.7 C9.1,9.7 8.6,10.3 8.6,10.9 C8.6,11.6 9.2,12.1 9.8,12.1 C10.5,12.1 11,11.5 11,10.9 C11,10.3 10.4,9.7 9.8,9.7 L9.8,9.7 L9.8,9.7 Z" id="Fill-2362" sketch:type="MSShapeGroup"></path>
            <path d="M17,12.6 C16.1,12.7 15.3,11.9 15.3,11 C15.2,10.1 16,9.3 16.9,9.3 C17.8,9.2 18.6,10 18.6,10.9 C18.6,11.9 17.9,12.6 17,12.6 L17,12.6 L17,12.6 Z M16.9,9.7 C16.2,9.7 15.7,10.3 15.7,10.9 C15.7,11.5 16.3,12.1 16.9,12.1 C17.6,12.1 18.1,11.5 18.1,10.9 C18.2,10.2 17.7,9.7 16.9,9.7 L16.9,9.7 L16.9,9.7 Z" id="Fill-2363" sketch:type="MSShapeGroup"></path>
            <path d="M13.4,9.1 C12.5,9.2 11.7,8.4 11.7,7.5 C11.6,6.6 12.4,5.8 13.3,5.8 C14.2,5.8 15,6.5 15,7.4 C15,8.3 14.3,9 13.4,9.1 L13.4,9.1 L13.4,9.1 Z M13.3,6.2 C12.6,6.2 12.1,6.8 12.1,7.4 C12.1,8.1 12.7,8.6 13.3,8.6 C14,8.6 14.5,8 14.5,7.4 C14.5,6.7 14,6.2 13.3,6.2 L13.3,6.2 L13.3,6.2 Z" id="Fill-2364" sketch:type="MSShapeGroup"></path>
            <path d="M13.4,16.4 C12.5,16.5 11.7,15.7 11.7,14.8 C11.6,13.9 12.4,13.1 13.3,13.1 C14.2,13.1 15,13.8 15,14.7 C15,15.6 14.3,16.3 13.4,16.4 L13.4,16.4 L13.4,16.4 Z M13.4,13.4 C12.7,13.4 12.2,14 12.2,14.6 C12.2,15.3 12.8,15.8 13.4,15.8 C14.1,15.8 14.6,15.2 14.6,14.6 C14.6,14 14.1,13.5 13.4,13.4 L13.4,13.4 L13.4,13.4 Z" id="Fill-2365" sketch:type="MSShapeGroup"></path>
            <path d="M11.4,42.1 C11.6,42.1 11.8,42.2 11.9,42.3 L12.3,42.8 C12.5,43 12.5,43.3 12.3,43.5 L11.9,44 C11.8,44.1 11.6,44.2 11.4,44.2 L9.1,44.2 C8.8,44.2 8.5,44 8.5,43.6 L8.5,42.6 C8.5,42.3 8.7,42 9.1,42 L11.4,42.1 M11.4,41.6 L9.1,41.6 C8.5,41.6 8.1,42 8.1,42.6 L8.1,43.6 C8.1,44.2 8.5,44.6 9.1,44.6 L11.4,44.6 C11.7,44.6 12,44.5 12.2,44.2 L12.6,43.7 C12.9,43.3 12.9,42.8 12.6,42.4 L12.2,41.9 C12,41.8 11.7,41.7 11.4,41.6" id="Fill-2366" sketch:type="MSShapeGroup"></path>
            <path d="M18.1,42.1 C18.4,42.1 18.7,42.3 18.7,42.7 L18.7,43.7 C18.7,44 18.5,44.3 18.1,44.3 L15.8,44.3 C15.6,44.3 15.4,44.2 15.3,44.1 L14.9,43.6 C14.7,43.4 14.7,43.1 14.9,42.9 L15.3,42.4 C15.4,42.3 15.6,42.2 15.8,42.2 L18.1,42.1 M18.2,41.6 L15.9,41.6 C15.6,41.6 15.3,41.7 15.1,42 L14.7,42.5 C14.4,42.9 14.4,43.4 14.7,43.7 L15.1,44.2 C15.3,44.4 15.6,44.6 15.9,44.6 L18.2,44.6 C18.8,44.6 19.2,44.2 19.2,43.6 L19.2,42.6 C19.2,42 18.7,41.6 18.2,41.6" id="Fill-2367" sketch:type="MSShapeGroup"></path>
            <path d="M14.1,38.1 C14.4,38.1 14.7,38.3 14.7,38.7 L14.7,41 C14.7,41.2 14.6,41.4 14.5,41.5 L14,41.9 C13.9,42 13.8,42 13.6,42 C13.5,42 13.4,41.9 13.2,41.9 L12.7,41.5 C12.6,41.4 12.5,41.2 12.5,41 L12.5,38.7 C12.5,38.4 12.7,38.1 13.1,38.1 L14.1,38.1 M14.1,37.6 L13.1,37.6 C12.5,37.6 12.1,38 12.1,38.6 L12.1,40.9 C12.1,41.2 12.2,41.5 12.5,41.7 L13,42.1 C13.2,42.2 13.4,42.3 13.7,42.3 C13.9,42.3 14.1,42.2 14.3,42.1 L14.8,41.7 C15,41.5 15.2,41.2 15.2,40.9 L15.2,38.6 C15.2,38.1 14.7,37.6 14.1,37.6" id="Fill-2368" sketch:type="MSShapeGroup"></path>
            <path d="M13.7,44.4 C13.8,44.4 13.9,44.5 14.1,44.5 L14.6,44.9 C14.7,45 14.8,45.2 14.9,45.4 L14.9,47.7 C14.9,48 14.7,48.3 14.3,48.3 L13.3,48.3 C13,48.3 12.7,48.1 12.7,47.7 L12.7,45.4 C12.7,45.2 12.8,45 12.9,44.9 L13.4,44.5 C13.4,44.4 13.5,44.4 13.7,44.4 M13.6,44 L13.6,44 C13.4,44 13.2,44.1 13,44.2 L12.5,44.6 C12.3,44.8 12.1,45.1 12.1,45.4 L12.1,47.7 C12.1,48.3 12.5,48.7 13.1,48.7 L14.1,48.7 C14.7,48.7 15.1,48.3 15.1,47.7 L15.1,45.4 C15.1,45.1 15,44.8 14.7,44.6 L14.2,44.2 C14.1,44.1 13.9,44 13.6,44" id="Fill-2369" sketch:type="MSShapeGroup"></path>
            <path d="M12.5,35.3 L7,35.4 C6.8,35.4 6.6,35.2 6.6,35 C6.6,34.8 6.8,34.6 7,34.6 L12.5,34.5 C13.2,34.5 13.8,33.9 13.8,33.2 L13.7,21.3 C13.7,20.6 13.1,20 12.4,20 L6.9,20.1 C6.7,20.1 6.5,19.9 6.5,19.7 C6.5,19.5 6.7,19.3 6.9,19.3 L12.4,19.2 C13.5,19.2 14.5,20.2 14.5,21.3 L14.6,33.2 C14.7,34.3 13.7,35.3 12.5,35.3" id="Fill-2370" sketch:type="MSShapeGroup"></path>
            <path d="M34.3,43.8 L34.3,43.8 L25.9,41.8 C25.8,41.8 25.7,41.7 25.7,41.5 C25.7,41.3 25.8,41.3 26,41.3 L34.4,43.3 C34.5,43.3 34.6,43.4 34.6,43.6 C34.5,43.7 34.4,43.9 34.3,43.8" id="Fill-2372" sketch:type="MSShapeGroup"></path>
            <path d="M21,7 C20.9,7 20.8,6.9 20.8,6.9 C20.7,6.8 20.9,6.7 21,6.6 L30.3,4.3 C30.4,4.2 30.5,4.4 30.6,4.5 C30.7,4.6 30.5,4.7 30.4,4.8 L21,7" id="Fill-2373" sketch:type="MSShapeGroup"></path>
        </g>
    </g>
</svg>