<?xml version="1.0" encoding="UTF-8" standalone="no"?>
<svg width="35px" height="63px" viewBox="0 0 35 63" version="1.1" xmlns="http://www.w3.org/2000/svg" xmlns:xlink="http://www.w3.org/1999/xlink" xmlns:sketch="http://www.bohemiancoding.com/sketch/ns">
    <!-- Generator: Sketch 3.3.3 (12081) - http://www.bohemiancoding.com/sketch -->
    <title>mouse</title>
    <desc>Created with Sketch.</desc>
    <defs></defs>
    <g id="Page-1" stroke="none" stroke-width="1" fill="none" fill-rule="evenodd" sketch:type="MSPage">
        <g id="mouse" sketch:type="MSLayerGroup" fill="#FFFFFF">
            <path d="M18.9318182,62.4146341 L16.3863636,62.4146341 C7.63636364,62.5731707 0.636363636,55.4390244 0.477272727,46.7195122 L0.318181818,16.1219512 C0.159090909,7.40243902 7.31818182,0.42682927 15.9090909,0.26829268 L18.4545455,0.26829268 C27.2045455,0.1097561 34.2045455,7.24390244 34.3636364,15.9634146 L34.5227273,46.5609756 C34.5227273,55.1219512 27.5227273,62.2560976 18.9318182,62.4146341 L18.9318182,62.4146341 L18.9318182,62.4146341 Z M15.9090909,2.48780488 C8.43181818,2.48780488 2.22727273,8.67073171 2.38636364,16.2804878 L2.54545455,46.8780488 C2.54545455,54.3292683 8.75,60.5121951 16.3863636,60.5121951 L18.9318182,60.5121951 C26.4090909,60.5121951 32.6136364,54.3292683 32.4545455,46.7195122 L32.2954545,16.1219512 C32.2954545,8.67073171 26.0909091,2.48780488 18.4545455,2.48780488 L15.9090909,2.48780488 L15.9090909,2.48780488 Z" id="Fill-933" sketch:type="MSShapeGroup"></path>
            <path d="M17.1818182,28.0121951 C13.5227273,28.0121951 9.86363636,27.5365854 6.20454545,26.4268293 L1.11363636,24.8414634 C0.795454545,24.6829268 0.636363636,24.3658537 0.636363636,24.0487805 C0.795454545,23.7317073 1.11363636,23.4146341 1.59090909,23.7317073 L6.68181818,25.3170732 C13.6818182,27.3780488 21,27.3780488 27.8409091,25.1585366 L33.0909091,23.5731707 C33.5681818,23.4146341 33.8863636,23.7317073 34.0454545,23.8902439 C34.2045455,24.2073171 33.8863636,24.6829268 33.7272727,24.8414634 L28.4772727,26.4268293 C24.6590909,27.5365854 21,28.0121951 17.1818182,28.0121951" id="Fill-934" sketch:type="MSShapeGroup"></path>
            <path d="M17.5,20.0853659 L17.1818182,20.0853659 C15.5909091,20.0853659 14.1590909,18.8170732 14.1590909,17.0731707 L14.1590909,10.5731707 C14.1590909,8.98780488 15.4318182,7.56097561 17.1818182,7.56097561 L17.5,7.56097561 C19.0909091,7.56097561 20.5227273,8.82926829 20.5227273,10.5731707 L20.5227273,17.0731707 C20.3636364,18.8170732 19.0909091,20.0853659 17.5,20.0853659 L17.5,20.0853659 L17.5,20.0853659 Z M17.0227273,8.98780488 C16.0681818,8.98780488 15.4318182,9.7804878 15.4318182,10.7317073 L15.4318182,17.2317073 C15.4318182,18.1829268 16.2272727,18.8170732 17.1818182,18.8170732 L17.5,18.8170732 C18.4545455,18.8170732 19.0909091,18.0243902 19.0909091,17.0731707 L19.0909091,10.5731707 C19.0909091,9.6219512 18.2954545,8.98780488 17.3409091,8.98780488 L17.0227273,8.98780488 L17.0227273,8.98780488 Z" id="Fill-935" sketch:type="MSShapeGroup"></path>
            <path d="M5.88636364,41.6463415 C5.72727273,41.6463415 5.56818182,41.4878049 5.56818182,41.3292683 L5.40909091,30.7073171 C5.40909091,30.5487805 5.56818182,30.3902439 5.72727273,30.3902439 C5.88636364,30.3902439 6.04545455,30.5487805 6.04545455,30.7073171 L6.20454545,41.3292683 C6.20454545,41.4878049 5.88636364,41.6463415 5.88636364,41.6463415" id="Fill-936" sketch:type="MSShapeGroup"></path>
            <path d="M17.1818182,8.82926829 C17.0227273,8.82926829 16.8636364,8.67073171 16.8636364,8.51219512 L16.8636364,1.85365854 C16.8636364,1.69512195 17.0227273,1.53658537 17.1818182,1.53658537 C17.3409091,1.53658537 17.5,1.69512195 17.5,1.85365854 L17.5,8.51219512 C17.5,8.67073171 17.3409091,8.67073171 17.1818182,8.82926829" id="Fill-937" sketch:type="MSShapeGroup"></path>
            <path d="M17.3409091,27.8536585 C17.1818182,27.8536585 17.0227273,27.695122 17.0227273,27.5365854 L17.0227273,19.4512195 C17.0227273,19.2926829 17.1818182,19.1341463 17.3409091,19.1341463 C17.5,19.1341463 17.6590909,19.2926829 17.6590909,19.4512195 L17.6590909,27.5365854 C17.6590909,27.695122 17.5,27.8536585 17.3409091,27.8536585" id="Fill-938" sketch:type="MSShapeGroup"></path>
            <path d="M5.88636364,47.9878049 C5.72727273,47.9878049 5.56818182,47.8292683 5.56818182,47.6707317 L5.56818182,45.2926829 C5.56818182,45.1341463 5.72727273,44.9756098 5.88636364,44.9756098 C6.04545455,44.9756098 6.20454545,45.1341463 6.20454545,45.2926829 L6.20454545,47.6707317 C6.20454545,47.8292683 6.04545455,47.8292683 5.88636364,47.9878049" id="Fill-939" sketch:type="MSShapeGroup"></path>
        </g>
    </g>
</svg>