<?xml version="1.0" encoding="UTF-8" standalone="no"?>
<svg width="17px" height="50px" viewBox="0 0 17 50" version="1.1" xmlns="http://www.w3.org/2000/svg" xmlns:xlink="http://www.w3.org/1999/xlink" xmlns:sketch="http://www.bohemiancoding.com/sketch/ns">
    <!-- Generator: Sketch 3.3.3 (12081) - http://www.bohemiancoding.com/sketch -->
    <title>pens</title>
    <desc>Created with Sketch.</desc>
    <defs></defs>
    <g id="Page-1" stroke="none" stroke-width="1" fill="none" fill-rule="evenodd" sketch:type="MSPage">
        <g id="pens" sketch:type="MSLayerGroup" fill="#FFFFFF">
            <path d="M15.7,49 L10.5,49 C10.2,49 9.9,48.7 9.9,48.4 L9.5,2.5 C9.5,2.2 9.8,1.9 10.1,1.9 L15.3,1.9 C15.6,1.9 15.9,2.2 15.9,2.5 L16.3,48.4 C16.3,48.7 16,49 15.7,49 L15.7,49 L15.7,49 Z M11,47.8 L15,47.8 L14.7,3.2 L10.7,3.2 L11,47.8 L11,47.8 Z" id="Fill-2229" sketch:type="MSShapeGroup"></path>
            <path d="M15.4,13.8 L10.2,13.8 C10,13.8 9.8,13.6 9.8,13.4 C9.8,13.2 10,13 10.2,13 L15.4,13 C15.6,13 15.8,13.2 15.8,13.4 C15.8,13.6 15.6,13.8 15.4,13.8" id="Fill-2231" sketch:type="MSShapeGroup"></path>
            <path d="M14.5,3 C14.3,3 14.1,2.8 14.1,2.6 L14.1,0.8 L11.2,0.8 L11.2,2.6 C11.2,2.8 11,3 10.8,3 C10.6,3 10.4,2.8 10.4,2.6 L10.4,0.4 C10.4,0.2 10.6,0 10.8,0 L14.5,0 C14.7,0 14.9,0.2 14.9,0.4 L14.9,2.6 C14.9,2.8 14.8,3 14.5,3" id="Fill-2233" sketch:type="MSShapeGroup"></path>
            <path d="M11.9,34.3 C11.8,34.3 11.7,34.2 11.7,34.1 L11.6,14.9 C11.6,14.8 11.7,14.7 11.8,14.7 C11.9,14.7 12,14.8 12,14.9 L12.1,34.1 C12.1,34.2 12,34.3 11.9,34.3" id="Fill-2234" sketch:type="MSShapeGroup"></path>
            <path id="Fill-2238" sketch:type="MSShapeGroup" d="M11.8,10.1 C11.7,10.1 11.6,10 11.6,9.9 L11.6,4.4 C11.6,4.3 11.7,4.2 11.8,4.2 C11.9,4.2 12,4.3 12,4.4 L12,9.9 C12,10 11.9,10.1 11.8,10.1"></path>
            <path id="Fill-2239" sketch:type="MSShapeGroup" d="M11.8,11.8 C11.7,11.8 11.6,11.7 11.6,11.6 L11.6,11 C11.6,10.9 11.7,10.8 11.8,10.8 C11.9,10.8 12,10.9 12,11 L12,11.6 L11.8,11.8"></path>
            <path d="M15.7,49 L10.5,49 C10.2,49 9.9,48.7 9.9,48.4 L9.5,2.5 C9.5,2.2 9.8,1.9 10.1,1.9 L15.3,1.9 C15.6,1.9 15.9,2.2 15.9,2.5 L16.3,48.4 C16.3,48.7 16,49 15.7,49 L15.7,49 L15.7,49 Z M11,47.8 L15,47.8 L14.7,3.2 L10.7,3.2 L11,47.8 L11,47.8 Z" id="Fill-2240" sketch:type="MSShapeGroup"></path>
            <path d="M15.4,13.8 L10.2,13.8 C10,13.8 9.8,13.6 9.8,13.4 C9.8,13.2 10,13 10.2,13 L15.4,13 C15.6,13 15.8,13.2 15.8,13.4 C15.8,13.6 15.6,13.8 15.4,13.8" id="Fill-2242" sketch:type="MSShapeGroup"></path>
            <path d="M14.5,3 C14.3,3 14.1,2.8 14.1,2.6 L14.1,0.8 L11.2,0.8 L11.2,2.6 C11.2,2.8 11,3 10.8,3 C10.6,3 10.4,2.8 10.4,2.6 L10.4,0.4 C10.4,0.2 10.6,0 10.8,0 L14.5,0 C14.7,0 14.9,0.2 14.9,0.4 L14.9,2.6 C14.9,2.8 14.8,3 14.5,3" id="Fill-2244" sketch:type="MSShapeGroup"></path>
            <path d="M11.9,34.3 C11.8,34.3 11.7,34.2 11.7,34.1 L11.6,14.9 C11.6,14.8 11.7,14.7 11.8,14.7 C11.9,14.7 12,14.8 12,14.9 L12.1,34.1 C12.1,34.2 12,34.3 11.9,34.3" id="Fill-2245" sketch:type="MSShapeGroup"></path>
            <path id="Fill-2249" sketch:type="MSShapeGroup" d="M11.8,10.1 C11.7,10.1 11.6,10 11.6,9.9 L11.6,4.4 C11.6,4.3 11.7,4.2 11.8,4.2 C11.9,4.2 12,4.3 12,4.4 L12,9.9 C12,10 11.9,10.1 11.8,10.1"></path>
            <path id="Fill-2250" sketch:type="MSShapeGroup" d="M11.8,11.8 C11.7,11.8 11.6,11.7 11.6,11.6 L11.6,11 C11.6,10.9 11.7,10.8 11.8,10.8 C11.9,10.8 12,10.9 12,11 L12,11.6 L11.8,11.8"></path>
            <path d="M6.2,49.1 L1,49.1 C0.7,49.1 0.4,48.8 0.4,48.5 L0,2.6 C0,2.3 0.3,2 0.6,2 L5.8,2 C6.1,2 6.4,2.3 6.4,2.6 L6.8,48.5 C6.7,48.9 6.5,49.1 6.2,49.1 L6.2,49.1 L6.2,49.1 Z M1.5,47.9 L5.5,47.9 L5.2,3.3 L1.2,3.3 L1.5,47.9 L1.5,47.9 Z" id="Fill-2251" sketch:type="MSShapeGroup"></path>
            <path d="M5.9,13.8 L0.7,13.8 C0.5,13.8 0.3,13.6 0.3,13.4 C0.3,13.2 0.5,13 0.7,13 L5.9,13 C6.1,13 6.3,13.2 6.3,13.4 C6.3,13.7 6.1,13.9 5.9,13.8" id="Fill-2253" sketch:type="MSShapeGroup"></path>
            <path d="M5.1,3 C4.9,3 4.7,2.8 4.7,2.6 L4.7,0.8 L1.8,0.8 L1.8,2.6 C1.8,2.8 1.6,3 1.4,3 C1.2,3 1,2.8 1,2.6 L1,0.4 C1,0.2 1.2,0 1.4,0 L5.1,0 C5.3,0 5.5,0.2 5.5,0.4 L5.5,2.6 C5.4,2.8 5.2,3 5.1,3" id="Fill-2255" sketch:type="MSShapeGroup"></path>
            <path d="M2.4,34.4 C2.3,34.4 2.2,34.3 2.2,34.2 L2.1,15 C2.1,14.9 2.2,14.8 2.3,14.8 C2.4,14.8 2.5,14.9 2.5,15 L2.6,34.2 C2.7,34.3 2.6,34.3 2.4,34.4" id="Fill-2256" sketch:type="MSShapeGroup"></path>
            <path id="Fill-2260" sketch:type="MSShapeGroup" d="M2.2,10.2 C2.1,10.2 2,10.1 2,10 L2,4.5 C2,4.4 2.1,4.3 2.2,4.3 C2.3,4.3 2.4,4.4 2.4,4.5 L2.4,10 C2.5,10.1 2.4,10.2 2.2,10.2"></path>
            <path id="Fill-2261" sketch:type="MSShapeGroup" d="M2.3,11.8 C2.2,11.8 2.1,11.7 2.1,11.6 L2.1,11 C2.1,10.9 2.2,10.8 2.3,10.8 C2.4,10.8 2.5,10.9 2.5,11 L2.5,11.6 C2.5,11.7 2.4,11.8 2.3,11.8"></path>
            <path d="M6.2,49.1 L1,49.1 C0.7,49.1 0.4,48.8 0.4,48.5 L0,2.6 C0,2.3 0.3,2 0.6,2 L5.8,2 C6.1,2 6.4,2.3 6.4,2.6 L6.8,48.5 C6.7,48.9 6.5,49.1 6.2,49.1 L6.2,49.1 L6.2,49.1 Z M1.5,47.9 L5.5,47.9 L5.2,3.3 L1.2,3.3 L1.5,47.9 L1.5,47.9 Z" id="Fill-2262" sketch:type="MSShapeGroup"></path>
            <path d="M5.9,13.8 L0.7,13.8 C0.5,13.8 0.3,13.6 0.3,13.4 C0.3,13.2 0.5,13 0.7,13 L5.9,13 C6.1,13 6.3,13.2 6.3,13.4 C6.3,13.7 6.1,13.9 5.9,13.8" id="Fill-2264" sketch:type="MSShapeGroup"></path>
            <path d="M5.1,3 C4.9,3 4.7,2.8 4.7,2.6 L4.7,0.8 L1.8,0.8 L1.8,2.6 C1.8,2.8 1.6,3 1.4,3 C1.2,3 1,2.8 1,2.6 L1,0.4 C1,0.2 1.2,0 1.4,0 L5.1,0 C5.3,0 5.5,0.2 5.5,0.4 L5.5,2.6 C5.4,2.8 5.2,3 5.1,3" id="Fill-2266" sketch:type="MSShapeGroup"></path>
            <path d="M2.4,34.4 C2.3,34.4 2.2,34.3 2.2,34.2 L2.1,15 C2.1,14.9 2.2,14.8 2.3,14.8 C2.4,14.8 2.5,14.9 2.5,15 L2.6,34.2 C2.7,34.3 2.6,34.3 2.4,34.4" id="Fill-2267" sketch:type="MSShapeGroup"></path>
            <path id="Fill-2271" sketch:type="MSShapeGroup" d="M2.2,10.2 C2.1,10.2 2,10.1 2,10 L2,4.5 C2,4.4 2.1,4.3 2.2,4.3 C2.3,4.3 2.4,4.4 2.4,4.5 L2.4,10 C2.5,10.1 2.4,10.2 2.2,10.2"></path>
            <path id="Fill-2272" sketch:type="MSShapeGroup" d="M2.3,11.8 C2.2,11.8 2.1,11.7 2.1,11.6 L2.1,11 C2.1,10.9 2.2,10.8 2.3,10.8 C2.4,10.8 2.5,10.9 2.5,11 L2.5,11.6 C2.5,11.7 2.4,11.8 2.3,11.8"></path>
        </g>
    </g>
</svg>