<?xml version="1.0" encoding="UTF-8" standalone="no"?>
<svg width="76px" height="98px" viewBox="0 0 76 98" version="1.1" xmlns="http://www.w3.org/2000/svg" xmlns:xlink="http://www.w3.org/1999/xlink" xmlns:sketch="http://www.bohemiancoding.com/sketch/ns">
    <!-- Generator: Sketch 3.3.3 (12081) - http://www.bohemiancoding.com/sketch -->
    <title>speaker</title>
    <desc>Created with Sketch.</desc>
    <defs></defs>
    <g id="Page-1" stroke="none" stroke-width="1" fill="none" fill-rule="evenodd" sketch:type="MSPage">
        <g id="speaker" sketch:type="MSLayerGroup" transform="translate(38.000000, 50.000000) rotate(10.000000) translate(-38.000000, -50.000000) translate(6.000000, 4.000000)" fill="#FFFFFF">
            <path d="M58.2,87.9 L6.5,88.3 C3.4,88.3 0.8,85.8 0.8,82.7 L0.2,6.4 C0.2,3.3 2.7,0.7 5.8,0.7 L57.5,0.3 C60.6,0.3 63.2,2.8 63.2,5.9 L63.8,82.2 C63.8,85.4 61.3,87.9 58.2,87.9 L58.2,87.9 L58.2,87.9 Z M5.8,1.9 C3.4,1.9 1.4,3.9 1.5,6.3 L2.1,82.6 C2.1,85 4.1,87 6.5,86.9 L58.2,86.5 C60.6,86.5 62.6,84.5 62.5,82.1 L62,5.8 C62,3.4 60,1.4 57.6,1.5 L5.8,1.9 L5.8,1.9 Z" id="Fill-1703" sketch:type="MSShapeGroup"></path>
            <path d="M54.6,79.1 L9.9,79.4 C7.7,79.4 5.9,77.7 5.9,75.5 L5.4,9.4 C5.4,7.2 7.1,5.4 9.3,5.4 L54,5.1 C56.2,5.1 58,6.8 58,9 L58.5,75.1 C58.6,77.3 56.9,79.1 54.6,79.1 L54.6,79.1 L54.6,79.1 Z M9.4,6.6 C7.9,6.6 6.7,7.8 6.7,9.3 L7.2,75.4 C7.2,76.9 8.4,78.1 9.9,78.1 L54.6,77.8 C56.1,77.8 57.3,76.6 57.3,75.1 L56.8,9 C56.8,7.5 55.6,6.3 54.1,6.3 L9.4,6.6 L9.4,6.6 Z" id="Fill-1704" sketch:type="MSShapeGroup"></path>
            <path d="M12.1,12.9 C11.2,12.9 10.5,12.2 10.6,11.3 C10.7,10.4 11.3,9.7 12.2,9.8 C13.1,9.8 13.8,10.5 13.8,11.4 C13.7,12.2 13,12.9 12.1,12.9 L12.1,12.9 L12.1,12.9 Z M12.1,10.2 C11.5,10.2 11,10.7 10.9,11.4 C10.9,12 11.4,12.5 12.1,12.6 C12.7,12.6 13.2,12.1 13.3,11.4 C13.2,10.7 12.7,10.2 12.1,10.2 L12.1,10.2 L12.1,10.2 Z" id="Fill-1705" sketch:type="MSShapeGroup"></path>
            <path d="M52.3,12.6 C51.4,12.6 50.7,11.9 50.8,11 C50.8,10.1 51.5,9.4 52.4,9.5 C53.3,9.5 54,10.2 53.9,11.1 C53.9,11.9 53.2,12.5 52.3,12.6 L52.3,12.6 L52.3,12.6 Z M52.3,9.9 C51.7,9.9 51.2,10.4 51.1,11.1 C51.1,11.7 51.6,12.2 52.3,12.3 C52.9,12.3 53.4,11.8 53.5,11.1 C53.4,10.4 53,9.8 52.3,9.9 L52.3,9.9 L52.3,9.9 Z" id="Fill-1706" sketch:type="MSShapeGroup"></path>
            <path d="M12.6,75 C11.7,75 11,74.3 11.1,73.4 C11.2,72.5 11.8,71.8 12.7,71.9 C13.6,71.9 14.3,72.6 14.3,73.5 C14.1,74.3 13.4,75 12.6,75 L12.6,75 L12.6,75 Z M12.5,72.3 C11.9,72.3 11.4,72.8 11.3,73.5 C11.2,74.2 11.8,74.6 12.5,74.7 C13.1,74.7 13.6,74.2 13.7,73.5 C13.7,72.8 13.2,72.3 12.5,72.3 L12.5,72.3 L12.5,72.3 Z" id="Fill-1707" sketch:type="MSShapeGroup"></path>
            <path d="M52.8,74.7 C51.9,74.7 51.2,74 51.3,73.1 C51.3,72.2 52,71.5 52.9,71.6 C53.8,71.7 54.5,72.3 54.4,73.2 C54.4,74 53.7,74.7 52.8,74.7 L52.8,74.7 L52.8,74.7 Z M52.8,72 C52.2,72 51.7,72.5 51.6,73.2 C51.6,73.8 52.1,74.3 52.8,74.4 C53.5,74.5 53.9,73.9 54,73.2 C53.9,72.5 53.4,71.9 52.8,72 L52.8,72 L52.8,72 Z" id="Fill-1708" sketch:type="MSShapeGroup"></path>
            <path d="M18.1,91.1 L10.6,91.1 C9.4,91.1 8.3,90.1 8.3,88.8 L8.3,87.6 C8.3,87.3 8.6,87 8.9,87 C9.2,87 9.5,87.3 9.5,87.6 L9.5,88.8 C9.5,89.4 9.9,89.8 10.5,89.8 L18,89.8 C18.6,89.8 19,89.4 19,88.8 L19,87.6 C19,87.3 19.3,87 19.6,87 C19.9,87 20.2,87.3 20.2,87.6 L20.2,88.8 C20.3,90 19.4,91.1 18.1,91.1" id="Fill-1709" sketch:type="MSShapeGroup"></path>
            <path d="M53.4,90.8 L45.9,90.8 C44.7,90.8 43.6,89.8 43.6,88.5 L43.6,87.3 C43.6,87 43.9,86.7 44.2,86.7 C44.5,86.7 44.8,87 44.8,87.3 L44.8,88.5 C44.8,89.1 45.2,89.5 45.8,89.5 L53.3,89.5 C53.9,89.5 54.3,89.1 54.3,88.5 L54.3,87.3 C54.3,87 54.6,86.7 54.9,86.7 C55.2,86.7 55.5,87 55.5,87.3 L55.5,88.5 C55.6,89.8 54.6,90.7 53.4,90.8" id="Fill-1710" sketch:type="MSShapeGroup"></path>
            <path d="M31.9,26.9 C27.8,27 24.5,23.6 24.4,19.5 C24.3,15.4 27.7,12.1 31.8,12 C35.9,11.9 39.2,15.3 39.3,19.4 C39.4,23.5 36,26.8 31.9,26.9 L31.9,26.9 L31.9,26.9 Z M31.8,12.8 C28.2,12.8 25.2,15.8 25.3,19.4 C25.3,23 28.3,26 31.9,25.9 C35.5,25.9 38.5,22.9 38.4,19.3 C38.4,15.8 35.4,12.9 31.8,12.8 L31.8,12.8 L31.8,12.8 Z" id="Fill-1711" sketch:type="MSShapeGroup"></path>
            <path d="M31.9,24.6 C29.1,24.6 26.7,22.3 26.7,19.5 C26.7,16.7 29,14.3 31.8,14.3 C34.6,14.3 37,16.6 37,19.4 C37,22.2 34.7,24.6 31.9,24.6 L31.9,24.6 L31.9,24.6 Z M31.8,14.7 C29.2,14.7 27.1,16.9 27.1,19.5 C27.1,22.1 29.3,24.2 31.9,24.2 C34.5,24.2 36.6,22 36.6,19.4 C36.6,16.8 34.4,14.6 31.8,14.7 L31.8,14.7 L31.8,14.7 Z" id="Fill-1712" sketch:type="MSShapeGroup"></path>
            <path d="M31.9,22.6 C30.1,22.6 28.7,21.2 28.7,19.4 C28.7,17.6 30.1,16.2 31.9,16.2 C33.7,16.2 35.1,17.6 35.1,19.4 C35.1,21.2 33.6,22.7 31.9,22.6 L31.9,22.6 L31.9,22.6 Z M31.8,17.1 C30.5,17.1 29.5,18.2 29.5,19.5 C29.5,20.8 30.6,21.8 31.9,21.8 C33.2,21.8 34.2,20.7 34.2,19.4 C34.2,18.1 33.1,17.1 31.8,17.1 L31.8,17.1 L31.8,17.1 Z" id="Fill-1713" sketch:type="MSShapeGroup"></path>
            <path d="M24.9,12.8 C24.9,12.5 24.7,12.2 24.3,12.2 C24,12.2 23.7,12.4 23.7,12.8 C23.7,13.1 23.9,13.4 24.3,13.4 C24.7,13.4 24.9,13.1 24.9,12.8" id="Fill-1714" sketch:type="MSShapeGroup"></path>
            <path d="M39.8,12.7 C39.8,12.4 39.6,12.1 39.2,12.1 C38.9,12.1 38.6,12.3 38.6,12.7 C38.6,13 38.8,13.3 39.2,13.3 C39.5,13.3 39.8,13 39.8,12.7" id="Fill-1715" sketch:type="MSShapeGroup"></path>
            <path d="M25,26.2 C25,25.9 24.8,25.6 24.4,25.6 C24.1,25.6 23.8,25.8 23.8,26.2 C23.8,26.5 24,26.8 24.4,26.8 C24.8,26.8 25,26.5 25,26.2" id="Fill-1716" sketch:type="MSShapeGroup"></path>
            <path d="M39.9,26.1 C39.9,25.8 39.7,25.5 39.3,25.5 C39,25.5 38.7,25.7 38.7,26.1 C38.7,26.4 38.9,26.7 39.3,26.7 C39.6,26.6 39.9,26.4 39.9,26.1" id="Fill-1717" sketch:type="MSShapeGroup"></path>
            <path d="M32.2,71.3 C21.2,71.4 12.2,62.5 12.1,51.6 C12,40.7 20.8,31.6 31.8,31.5 C42.8,31.4 51.8,40.3 51.9,51.2 C52.1,62.2 43.2,71.2 32.2,71.3 L32.2,71.3 L32.2,71.3 Z M31.9,32.6 C21.6,32.7 13.3,41.1 13.4,51.4 C13.5,61.7 21.9,70 32.2,70 C42.5,69.9 50.8,61.5 50.7,51.2 C50.7,41 42.3,32.6 31.9,32.6 L31.9,32.6 L31.9,32.6 Z" id="Fill-1718" sketch:type="MSShapeGroup"></path>
            <path d="M32.1,57.2 C28.9,57.2 26.2,54.6 26.2,51.4 C26.2,48.2 28.8,45.5 32,45.5 C35.2,45.5 37.9,48.1 37.9,51.3 C38,54.6 35.3,57.2 32.1,57.2 L32.1,57.2 L32.1,57.2 Z M32,46.4 C29.3,46.5 27,48.7 27.1,51.4 C27.2,54.1 29.4,56.4 32.1,56.3 C34.8,56.2 37.1,54 37,51.3 C37,48.6 34.8,46.3 32,46.4 L32,46.4 L32,46.4 Z" id="Fill-1719" sketch:type="MSShapeGroup"></path>
            <path d="M32.2,68 C23,68.1 15.6,60.6 15.5,51.6 C15.4,42.4 22.8,34.9 31.9,34.9 C41.1,34.8 48.5,42.3 48.6,51.3 C48.7,60.4 41.3,67.9 32.2,68 L32.2,68 L32.2,68 Z M32,35.2 C23.1,35.3 15.9,42.6 15.9,51.5 C16,60.4 23.3,67.6 32.2,67.6 C41.1,67.6 48.3,60.2 48.3,51.3 C48.2,42.4 40.9,35.2 32,35.2 L32,35.2 L32,35.2 Z" id="Fill-1722" sketch:type="MSShapeGroup"></path>
            <path d="M46,49 C46,48.8 45.8,48.6 45.6,48.6 C45.4,48.6 45.2,48.8 45.2,49 C45.2,49.2 45.4,49.4 45.6,49.4 C45.8,49.3 46,49.2 46,49" id="Fill-1723" sketch:type="MSShapeGroup"></path>
            <path d="M31.7,64.9 C31.6,64.9 31.5,64.8 31.5,64.7 C31.5,64.6 31.6,64.5 31.7,64.5 C39.3,64.4 45.4,58.2 45.4,50.6 C45.4,50.5 45.5,50.4 45.6,50.4 C45.7,50.4 45.8,50.5 45.8,50.6 C45.8,58.4 39.5,64.8 31.7,64.9" id="Fill-1724" sketch:type="MSShapeGroup"></path>
        </g>
    </g>
</svg>