<?xml version="1.0" encoding="UTF-8" standalone="no"?>
<svg width="28px" height="46px" viewBox="0 0 28 46" version="1.1" xmlns="http://www.w3.org/2000/svg" xmlns:xlink="http://www.w3.org/1999/xlink" xmlns:sketch="http://www.bohemiancoding.com/sketch/ns">
    <!-- Generator: Sketch 3.3.3 (12081) - http://www.bohemiancoding.com/sketch -->
    <title>watch</title>
    <desc>Created with Sketch.</desc>
    <defs></defs>
    <g id="Page-1" stroke="none" stroke-width="1" fill="none" fill-rule="evenodd" sketch:type="MSPage">
        <g id="watch" sketch:type="MSLayerGroup" fill="#FFFFFF">
            <path d="M13.92,36.746875 C6.38,36.746875 0,30.578125 0,22.79375 C0,15.009375 6.09,8.69375 13.63,8.69375 C21.17,8.69375 27.55,14.8625 27.55,22.646875 C27.695,30.284375 21.605,36.746875 13.92,36.746875 L13.92,36.746875 L13.92,36.746875 Z M13.775,10.603125 C7.105,10.603125 1.74,16.184375 1.74,22.940625 C1.74,29.696875 7.25,35.13125 13.92,35.13125 C20.59,35.13125 25.955,29.55 25.81,22.79375 C25.81,16.0375 20.445,10.603125 13.775,10.603125 L13.775,10.603125 L13.775,10.603125 Z" id="Fill-309" sketch:type="MSShapeGroup"></path>
            <path d="M13.92,31.9 C8.99,31.9 4.93,27.934375 4.93,22.79375 C4.93,17.8 8.845,13.6875 13.92,13.6875 C18.85,13.6875 22.91,17.653125 22.91,22.79375 C22.91,27.640625 18.85,31.9 13.92,31.9 L13.92,31.9 L13.92,31.9 Z M13.775,14.8625 C9.425,14.8625 5.945,18.534375 5.945,22.79375 C5.945,27.2 9.57,30.725 13.775,30.725 C18.125,30.725 21.605,27.053125 21.605,22.79375 C21.605,18.3875 18.125,14.8625 13.775,14.8625 L13.775,14.8625 L13.775,14.8625 Z" id="Fill-311" sketch:type="MSShapeGroup"></path>
            <path d="M7.975,23.38125 C7.83,23.38125 7.685,23.234375 7.685,23.0875 C7.54,19.415625 10.585,16.478125 14.21,16.33125 C14.355,16.33125 14.5,16.478125 14.5,16.625 C14.5,16.771875 14.355,16.91875 14.21,16.91875 C10.875,16.91875 8.265,19.709375 8.265,22.940625 C8.12,23.234375 8.12,23.528125 7.975,23.38125" id="Fill-312" sketch:type="MSShapeGroup"></path>
            <path d="M22.185,13.39375 C21.895,13.39375 21.605,13.1 21.605,12.80625 L21.605,5.75625 C21.605,3.40625 19.575,1.35 17.255,1.496875 L9.86,1.496875 C7.54,1.496875 5.51,3.553125 5.655,5.903125 L5.655,12.953125 C5.655,13.246875 5.365,13.540625 5.075,13.540625 C4.785,13.540625 4.495,13.246875 4.495,12.953125 L4.495,5.903125 C4.495,2.81875 6.96,0.321875 10.005,0.321875 L17.4,0.321875 C20.445,0.321875 22.91,2.81875 22.91,5.903125 L22.91,12.953125 C22.91,13.1 22.62,13.39375 22.185,13.39375" id="Fill-314" sketch:type="MSShapeGroup"></path>
            <path d="M17.69,45.4125 L10.295,45.4125 C7.25,45.4125 4.785,42.915625 4.785,39.83125 L4.785,32.78125 C4.785,32.4875 5.075,32.19375 5.365,32.19375 C5.655,32.19375 5.945,32.4875 5.945,32.78125 L5.945,39.83125 C5.945,42.18125 7.975,44.2375 10.295,44.090625 L17.69,44.090625 C20.01,44.090625 22.04,42.034375 21.895,39.684375 L21.895,32.634375 C21.895,32.340625 22.185,32.046875 22.475,32.046875 C22.765,32.046875 23.055,32.340625 23.055,32.634375 L23.055,39.684375 C23.055,42.915625 20.735,45.4125 17.69,45.4125" id="Fill-315" sketch:type="MSShapeGroup"></path>
            <path d="M15.805,17.2125 C15.805,17.50625 15.95,17.8 16.24,17.653125 C16.53,17.653125 16.82,17.50625 16.675,17.2125 C16.53,16.91875 16.53,16.625 16.24,16.771875 C16.095,16.771875 15.805,16.91875 15.805,17.2125" id="Fill-316" sketch:type="MSShapeGroup"></path>
        </g>
    </g>
</svg>