<?xml version="1.0" encoding="UTF-8" standalone="no"?>
<svg width="69px" height="74px" viewBox="0 0 69 74" version="1.1" xmlns="http://www.w3.org/2000/svg" xmlns:xlink="http://www.w3.org/1999/xlink" xmlns:sketch="http://www.bohemiancoding.com/sketch/ns">
    <!-- Generator: Sketch 3.3.3 (12081) - http://www.bohemiancoding.com/sketch -->
    <title>logo-with-text</title>
    <desc>Created with Sketch.</desc>
    <defs></defs>
    <g id="Page-1" stroke="none" stroke-width="1" fill="none" fill-rule="evenodd" sketch:type="MSPage">
        <g id="signup-01" sketch:type="MSArtboardGroup" transform="translate(-127.000000, -119.000000)">
            <g id="icon-+-text-+-Manage-Contacts-You-" sketch:type="MSLayerGroup" transform="translate(88.000000, 120.000000)">
                <g id="logo-with-text" transform="translate(39.000000, 0.000000)" sketch:type="MSShapeGroup">
                    <g id="logo-without-text" transform="translate(15.180000, 0.000000)">
                        <ellipse id="XMLID_191_" stroke="#FFFFFF" stroke-width="2" fill-opacity="0.92" fill="#1770FD" cx="19.2455224" cy="19.2593061" rx="19.159769" ry="18.9443741"></ellipse>
                        <path d="M0.946010189,18.9807124 C0.946010189,8.96509254 9.15277783,0.850585705 19.2822739,0.850585705 C29.41177,0.850585705 37.6185377,8.96509254 37.6185377,18.9807124 L0.946010189,18.9807124 L0.946010189,18.9807124 Z" id="XMLID_67_" fill-opacity="0.92" fill="#1357C3"></path>
                        <ellipse id="XMLID_73_" opacity="0.49" fill="#064060" cx="20.1765598" cy="9.59331472" rx="3.92015734" ry="3.87608676"></ellipse>
                        <ellipse id="XMLID_190_" fill="#FFFFFF" cx="19.2945244" cy="9.30260825" rx="3.85890488" ry="3.81552291"></ellipse>
                        <ellipse id="XMLID_72_" opacity="0.49" fill="#064060" cx="20.1765598" cy="21.7060859" rx="8.31808386" ry="8.22457161"></ellipse>
                        <ellipse id="XMLID_189_" fill="#FFFFFF" cx="19.233272" cy="21.3548155" rx="7.71780974" ry="7.63104579"></ellipse>
                    </g>
                    <g id="logo-text" transform="translate(0.000000, 45.028037)" fill="#FFFFFF">
                        <rect id="XMLID_188_" x="0.439401591" y="0.210832965" width="68.1862367" height="0.850585705"></rect>
                        <rect id="XMLID_187_" x="0.439401591" y="27.0042827" width="68.1862367" height="0.850585705"></rect>
                        <g id="XMLID_66_" transform="translate(0.574157, 3.384379)">
                            <path d="M4.04266226,13.6510931 L0.0122504917,0.242255422 L3.34438423,0.242255422 L5.78223208,9.38739761 L8.22007992,0.242255422 L11.2582019,0.242255422 L7.22779009,13.6510931 L7.22779009,20.3010045 L4.04266226,20.3010045 L4.04266226,13.6510931 L4.04266226,13.6510931 Z" id="XMLID_59_"></path>
                            <path d="M12.9120182,3.27044821 L12.9120182,0.230142652 L15.9868917,0.230142652 L15.9868917,2.95551616 L14.5903356,6.14117497 L13.2917835,6.14117497 L14.1370674,3.27044821 L12.9120182,3.27044821 L12.9120182,3.27044821 Z" id="XMLID_57_"></path>
                            <path d="M20.8013348,8.69696969 L25.1747604,8.69696969 L25.1747604,11.5676965 L20.8013348,11.5676965 L20.8013348,17.4423904 L26.3140561,17.4423904 L26.3140561,20.3131172 L17.616207,20.3131172 L17.616207,0.230142652 L26.3140561,0.230142652 L26.3140561,3.10086941 L20.8013348,3.10086941 L20.8013348,8.69696969 L20.8013348,8.69696969 Z" id="XMLID_55_"></path>
                            <path d="M29.3766791,0.230142652 L32.5618069,0.230142652 L32.5618069,17.4302777 L37.8050173,17.4302777 L37.8050173,20.3010045 L29.3644286,20.3010045 L29.3644286,0.230142652 L29.3766791,0.230142652 L29.3766791,0.230142652 Z" id="XMLID_47_"></path>
                            <path d="M40.8676402,0.230142652 L44.0527681,0.230142652 L44.0527681,17.4302777 L49.2959786,17.4302777 L49.2959786,20.3010045 L40.8553898,20.3010045 L40.8553898,0.230142652 L40.8676402,0.230142652 L40.8676402,0.230142652 Z" id="XMLID_45_"></path>
                            <path d="M51.6603235,5.05102557 C51.6603235,1.84114121 53.3753923,0.0121127712 56.4992677,0.0121127712 C59.6353936,0.0121127712 61.3382118,1.84114121 61.3382118,5.05102557 L61.3382118,15.4801215 C61.3382118,18.6900059 59.623143,20.5190343 56.4992677,20.5190343 C53.3631418,20.5190343 51.6603235,18.6900059 51.6603235,15.4801215 L51.6603235,5.05102557 L51.6603235,5.05102557 Z M54.8577018,15.6860386 C54.8577018,17.1153456 55.4947274,17.6604203 56.5115181,17.6604203 C57.528309,17.6604203 58.1653345,17.1153456 58.1653345,15.6860386 L58.1653345,4.84510845 C58.1653345,3.41580146 57.528309,2.87072676 56.5115181,2.87072676 C55.4947274,2.87072676 54.8577018,3.41580146 54.8577018,4.84510845 L54.8577018,15.6860386 L54.8577018,15.6860386 Z" id="XMLID_42_"></path>
                            <path d="M65.2583692,15.8556174 L64.854103,8.60006751 L64.854103,0.230142652 L68.0392308,0.230142652 L68.0392308,8.60006751 L67.6349646,15.8556174 L65.2583692,15.8556174 L65.2583692,15.8556174 Z M67.9902288,17.2606989 L67.9902288,20.3010045 L64.9153555,20.3010045 L64.9153555,17.2606989 L67.9902288,17.2606989 L67.9902288,17.2606989 Z" id="XMLID_21_"></path>
                        </g>
                    </g>
                </g>
            </g>
        </g>
    </g>
</svg>